Grandstander-ExtraBoldItalic.ufo
<glyph name="exclam" format="2">
  <advance width="708.0"/>
  <unicode hex="0021"/>
  <outline>
    <contour>
      <point x="468.0" y="453.0" type="curve"/>
      <point x="544.125" y="698.0"/>
      <point x="766.375" y="1332.875"/>
      <point x="813.75" y="1455.625" type="curve"/>
      <point x="402.375" y="1472.875" type="line"/>
      <point x="313.0" y="1151.75"/>
      <point x="228.875" y="783.25"/>
      <point x="168.25" y="468.375" type="curve"/>
      <point x="240.75" y="459.375"/>
      <point x="400.875" y="453.0"/>
    </contour>
    <contour>
      <point x="219.5" y="-27.0" type="curve" smooth="yes"/>
      <point x="356.0" y="-27.0"/>
      <point x="487.875" y="76.0"/>
      <point x="487.875" y="208.5" type="curve" smooth="yes"/>
      <point x="487.875" y="307.0"/>
      <point x="409.625" y="385.5"/>
      <point x="297.625" y="385.5" type="curve" smooth="yes"/>
      <point x="151.375" y="385.5"/>
      <point x="26.5" y="279.375"/>
      <point x="26.5" y="138.375" type="curve" smooth="yes"/>
      <point x="26.5" y="44.5"/>
      <point x="101.625" y="-27.0"/>
    </contour>
  </outline>
</glyph>
<glyph name="quotedbl" format="2">
  <advance width="764.0"/>
  <unicode hex="0022"/>
  <outline>
    <contour>
      <point x="446.25" y="1028.125" type="curve"/>
      <point x="496.375" y="1127.0"/>
      <point x="554.0" y="1294.375"/>
      <point x="580.0" y="1388.0" type="curve" smooth="yes"/>
      <point x="587.75" y="1415.25"/>
      <point x="590.875" y="1436.875"/>
      <point x="591.0" y="1451.5" type="curve"/>
      <point x="560.375" y="1456.0"/>
      <point x="524.5" y="1457.75"/>
      <point x="487.75" y="1457.75" type="curve" smooth="yes"/>
      <point x="424.0" y="1457.75"/>
      <point x="371.25" y="1451.75"/>
      <point x="305.875" y="1440.5" type="curve"/>
      <point x="285.875" y="1361.375"/>
      <point x="253.125" y="1196.0"/>
      <point x="251.375" y="1034.875" type="curve"/>
      <point x="281.625" y="1030.0"/>
      <point x="386.25" y="1028.125"/>
    </contour>
    <contour>
      <point x="564.125" y="1022.125" type="curve"/>
      <point x="597.5" y="1022.0"/>
      <point x="658.875" y="1026.25"/>
      <point x="765.625" y="1039.375" type="curve"/>
      <point x="812.125" y="1122.25"/>
      <point x="920.75" y="1337.375"/>
      <point x="941.75" y="1419.75" type="curve" smooth="yes"/>
      <point x="943.875" y="1428.25"/>
      <point x="945.125" y="1435.0"/>
      <point x="946.125" y="1441.375" type="curve"/>
      <point x="878.875" y="1451.875"/>
      <point x="756.75" y="1456.125"/>
      <point x="661.25" y="1456.0" type="curve"/>
      <point x="656.375" y="1441.5"/>
      <point x="647.625" y="1413.0"/>
      <point x="640.625" y="1386.375" type="curve" smooth="yes"/>
      <point x="616.625" y="1297.625"/>
      <point x="574.25" y="1092.5"/>
    </contour>
  </outline>
</glyph>
<glyph name="numbersign" format="2">
  <advance width="1511.0"/>
  <unicode hex="0023"/>
  <outline>
    <contour>
      <point x="110.875" y="803.75" type="curve"/>
      <point x="327.875" y="809.0"/>
      <point x="652.375" y="820.625"/>
      <point x="973.0" y="833.375" type="curve" smooth="yes"/>
      <point x="1183.5" y="841.875"/>
      <point x="1398.0" y="852.75"/>
      <point x="1572.0" y="861.5" type="curve"/>
      <point x="1593.125" y="905.375"/>
      <point x="1661.0" y="1114.375"/>
      <point x="1673.5" y="1158.75" type="curve"/>
      <point x="1465.5" y="1154.375"/>
      <point x="1188.75" y="1141.125"/>
      <point x="903.375" y="1125.25" type="curve" smooth="yes"/>
      <point x="662.125" y="1112.0"/>
      <point x="363.875" y="1095.25"/>
      <point x="199.25" y="1087.375" type="curve"/>
      <point x="191.125" y="1065.625"/>
      <point x="129.375" y="872.125"/>
    </contour>
    <contour>
      <point x="1347.75" y="361.375" type="curve"/>
      <point x="1368.375" y="403.875"/>
      <point x="1452.375" y="610.625"/>
      <point x="1465.25" y="656.625" type="curve"/>
      <point x="1291.375" y="669.75"/>
      <point x="1105.125" y="675.25"/>
      <point x="919.5" y="675.625" type="curve" smooth="yes"/>
      <point x="778.5" y="676.0"/>
      <point x="638.875" y="674.5"/>
      <point x="501.0" y="670.125" type="curve" smooth="yes"/>
      <point x="347.125" y="664.875"/>
      <point x="198.5" y="658.625"/>
      <point x="62.0" y="651.875" type="curve"/>
      <point x="49.0" y="622.0"/>
      <point x="-17.0" y="432.375"/>
      <point x="-27.625" y="392.75" type="curve"/>
      <point x="72.375" y="400.0"/>
      <point x="186.375" y="402.75"/>
      <point x="308.0" y="402.75" type="curve" smooth="yes"/>
      <point x="442.875" y="402.75"/>
      <point x="588.875" y="400.125"/>
      <point x="733.75" y="393.875" type="curve" smooth="yes"/>
      <point x="945.75" y="385.0"/>
      <point x="1159.5" y="372.75"/>
    </contour>
    <contour>
      <point x="174.375" y="17.75" type="curve"/>
      <point x="232.5" y="17.75"/>
      <point x="461.375" y="33.75"/>
      <point x="506.75" y="42.25" type="curve"/>
      <point x="632.625" y="509.125"/>
      <point x="847.5" y="1177.375"/>
      <point x="949.625" y="1475.25" type="curve"/>
      <point x="842.5" y="1475.25"/>
      <point x="678.875" y="1472.5"/>
      <point x="643.625" y="1465.625" type="curve"/>
      <point x="514.0" y="1131.75"/>
      <point x="337.75" y="625.625"/>
    </contour>
    <contour>
      <point x="739.375" y="55.125" type="curve"/>
      <point x="784.0" y="55.125"/>
      <point x="1029.0" y="90.625"/>
      <point x="1076.0" y="99.875" type="curve"/>
      <point x="1124.625" y="413.875"/>
      <point x="1204.75" y="787.125"/>
      <point x="1292.5" y="1113.75" type="curve" smooth="yes"/>
      <point x="1328.375" y="1247.0"/>
      <point x="1364.25" y="1371.875"/>
      <point x="1401.0" y="1482.25" type="curve"/>
      <point x="1360.0" y="1482.25"/>
      <point x="1151.375" y="1468.875"/>
      <point x="1120.5" y="1463.875" type="curve"/>
      <point x="1042.125" y="1238.375"/>
      <point x="970.625" y="1002.5"/>
      <point x="906.375" y="763.875" type="curve" smooth="yes"/>
      <point x="842.875" y="527.875"/>
      <point x="786.875" y="288.0"/>
    </contour>
  </outline>
</glyph>
<glyph name="dollar" format="2">
  <advance width="1027.0"/>
  <unicode hex="0024"/>
  <anchor x="389.875" y="62.5" name="bottom"/>
  <anchor x="695.5" y="1252.0" name="top"/>
  <outline>
    <contour>
      <point x="502.0" y="-82.0" type="line"/>
      <point x="520.625" y="-12.875"/>
      <point x="552.875" y="113.625"/>
      <point x="563.875" y="157.625" type="curve"/>
      <point x="265.125" y="174.875" type="line"/>
      <point x="249.25" y="140.875"/>
      <point x="178.25" y="-57.875"/>
      <point x="169.5" y="-88.625" type="curve"/>
    </contour>
    <contour>
      <point x="556.0" y="1201.0" type="curve"/>
      <point x="828.75" y="1202.75" type="line"/>
      <point x="844.125" y="1258.75"/>
      <point x="875.75" y="1377.5"/>
      <point x="886.25" y="1420.5" type="curve"/>
      <point x="622.25" y="1408.875" type="line"/>
      <point x="609.75" y="1374.0"/>
      <point x="569.375" y="1244.0"/>
    </contour>
    <component base="s" xOffset="52.5" yOffset="131.25"/>
  </outline>
</glyph>
<glyph name="percent" format="2">
  <advance width="1385.0"/>
  <unicode hex="0025"/>
  <outline>
    <contour>
      <point x="60.375" y="-42.625" type="curve"/>
      <point x="413.375" y="234.25"/>
      <point x="1081.875" y="815.875"/>
      <point x="1508.25" y="1270.5" type="curve"/>
      <point x="1485.875" y="1323.125"/>
      <point x="1427.375" y="1410.875"/>
      <point x="1359.75" y="1445.625" type="curve"/>
      <point x="986.875" y="1035.875"/>
      <point x="285.5" y="395.5"/>
      <point x="-96.25" y="98.125" type="curve"/>
      <point x="-65.25" y="61.625"/>
      <point x="26.25" y="-15.5"/>
    </contour>
    <contour>
      <point x="991.75" y="288.375" type="curve" smooth="yes"/>
      <point x="945.5" y="288.375"/>
      <point x="922.25" y="312.5"/>
      <point x="922.25" y="351.875" type="curve" smooth="yes"/>
      <point x="922.25" y="422.625"/>
      <point x="980.0" y="470.625"/>
      <point x="1049.875" y="470.625" type="curve" smooth="yes"/>
      <point x="1088.625" y="470.625"/>
      <point x="1119.75" y="453.0"/>
      <point x="1119.75" y="411.125" type="curve" smooth="yes"/>
      <point x="1119.75" y="345.375"/>
      <point x="1055.5" y="288.375"/>
    </contour>
    <contour>
      <point x="944.375" y="91.5" type="curve" smooth="yes"/>
      <point x="1173.375" y="91.5"/>
      <point x="1315.625" y="224.125"/>
      <point x="1315.625" y="446.75" type="curve" smooth="yes"/>
      <point x="1315.625" y="579.5"/>
      <point x="1237.125" y="655.75"/>
      <point x="1089.875" y="655.75" type="curve" smooth="yes"/>
      <point x="887.875" y="655.75"/>
      <point x="707.75" y="489.875"/>
      <point x="707.75" y="294.5" type="curve" smooth="yes"/>
      <point x="707.75" y="159.875"/>
      <point x="818.0" y="91.5"/>
    </contour>
    <contour>
      <point x="438.0" y="737.875" type="curve" smooth="yes"/>
      <point x="638.125" y="737.875"/>
      <point x="817.875" y="927.375"/>
      <point x="817.875" y="1124.375" type="curve" smooth="yes"/>
      <point x="817.875" y="1261.375"/>
      <point x="703.75" y="1340.25"/>
      <point x="551.75" y="1340.25" type="curve" smooth="yes"/>
      <point x="357.875" y="1340.25"/>
      <point x="176.125" y="1169.875"/>
      <point x="176.125" y="973.125" type="curve" smooth="yes"/>
      <point x="176.125" y="827.5"/>
      <point x="266.375" y="737.875"/>
    </contour>
    <contour>
      <point x="477.625" y="959.625" type="curve" smooth="yes"/>
      <point x="438.75" y="959.625"/>
      <point x="402.125" y="976.5"/>
      <point x="402.125" y="1018.25" type="curve" smooth="yes"/>
      <point x="402.125" y="1085.375"/>
      <point x="456.75" y="1146.125"/>
      <point x="532.875" y="1146.125" type="curve" smooth="yes"/>
      <point x="581.875" y="1146.125"/>
      <point x="603.625" y="1121.0"/>
      <point x="603.625" y="1083.5" type="curve" smooth="yes"/>
      <point x="603.625" y="1012.625"/>
      <point x="557.25" y="959.625"/>
    </contour>
  </outline>
</glyph>
<glyph name="ampersand" format="2">
  <advance width="1395.0"/>
  <unicode hex="0026"/>
  <outline>
    <contour>
      <point x="443.625" y="-101.25" type="curve" smooth="yes"/>
      <point x="691.5" y="-101.25"/>
      <point x="865.0" y="7.625"/>
      <point x="951.125" y="105.625" type="curve"/>
      <point x="974.875" y="58.0"/>
      <point x="1023.125" y="-21.25"/>
      <point x="1056.5" y="-66.5" type="curve"/>
      <point x="1136.0" y="-25.5"/>
      <point x="1230.375" y="63.5"/>
      <point x="1289.125" y="134.25" type="curve"/>
      <point x="1254.25" y="188.375"/>
      <point x="1216.5" y="246.5"/>
      <point x="1172.625" y="301.5" type="curve"/>
      <point x="1227.25" y="348.125"/>
      <point x="1331.375" y="442.25"/>
      <point x="1353.0" y="488.75" type="curve"/>
      <point x="1316.0" y="543.75"/>
      <point x="1217.5" y="616.625"/>
      <point x="1166.875" y="643.375" type="curve"/>
      <point x="1146.0" y="606.0"/>
      <point x="1077.375" y="522.375"/>
      <point x="1038.75" y="492.25" type="curve"/>
      <point x="971.625" y="588.5"/>
      <point x="875.625" y="725.125"/>
      <point x="829.0" y="784.75" type="curve"/>
      <point x="997.0" y="859.125"/>
      <point x="1128.0" y="987.5"/>
      <point x="1128.0" y="1164.25" type="curve" smooth="yes"/>
      <point x="1128.0" y="1322.75"/>
      <point x="994.375" y="1415.75"/>
      <point x="820.5" y="1415.75" type="curve" smooth="yes"/>
      <point x="593.125" y="1415.75"/>
      <point x="395.625" y="1303.5"/>
      <point x="395.625" y="1089.875" type="curve" smooth="yes"/>
      <point x="395.625" y="1004.625"/>
      <point x="441.5" y="913.625"/>
      <point x="496.0" y="846.625" type="curve"/>
      <point x="250.75" y="742.125"/>
      <point x="10.25" y="558.625"/>
      <point x="10.25" y="280.625" type="curve" smooth="yes"/>
      <point x="10.25" y="63.375"/>
      <point x="161.5" y="-101.25"/>
    </contour>
    <contour>
      <point x="494.5" y="158.875" type="curve" smooth="yes"/>
      <point x="384.5" y="158.875"/>
      <point x="333.875" y="221.75"/>
      <point x="333.875" y="312.75" type="curve" smooth="yes"/>
      <point x="333.875" y="476.625"/>
      <point x="478.625" y="572.375"/>
      <point x="620.75" y="658.75" type="curve"/>
      <point x="681.75" y="552.75"/>
      <point x="759.375" y="419.875"/>
      <point x="820.5" y="324.875" type="curve"/>
      <point x="756.125" y="257.5"/>
      <point x="651.125" y="158.875"/>
    </contour>
    <contour>
      <point x="709.125" y="954.75" type="curve"/>
      <point x="691.375" y="980.25"/>
      <point x="673.75" y="1033.875"/>
      <point x="673.75" y="1082.875" type="curve" smooth="yes"/>
      <point x="673.75" y="1156.5"/>
      <point x="717.5" y="1203.25"/>
      <point x="787.125" y="1203.25" type="curve" smooth="yes"/>
      <point x="828.875" y="1203.25"/>
      <point x="855.125" y="1184.125"/>
      <point x="855.125" y="1148.625" type="curve" smooth="yes"/>
      <point x="855.125" y="1074.25"/>
      <point x="772.0" y="991.125"/>
    </contour>
  </outline>
</glyph>
<glyph name="quotesingle" format="2">
  <advance width="462.0"/>
  <unicode hex="0027"/>
  <outline>
    <contour>
      <point x="601.0" y="1379.75" type="curve" smooth="yes"/>
      <point x="608.875" y="1411.125"/>
      <point x="615.875" y="1439.125"/>
      <point x="617.375" y="1452.125" type="curve"/>
      <point x="583.0" y="1456.625"/>
      <point x="546.625" y="1458.5"/>
      <point x="507.5" y="1458.5" type="curve" smooth="yes"/>
      <point x="443.875" y="1458.5"/>
      <point x="375.625" y="1453.0"/>
      <point x="307.125" y="1440.5" type="curve"/>
      <point x="285.625" y="1344.75"/>
      <point x="260.875" y="1065.625"/>
      <point x="257.5" y="983.375" type="curve"/>
      <point x="294.875" y="979.75"/>
      <point x="326.125" y="976.875"/>
      <point x="358.375" y="976.875" type="curve" smooth="yes"/>
      <point x="386.375" y="976.875"/>
      <point x="416.125" y="978.625"/>
      <point x="455.25" y="982.25" type="curve"/>
      <point x="509.75" y="1091.25"/>
      <point x="573.75" y="1271.5"/>
    </contour>
  </outline>
</glyph>
<glyph name="parenleft" format="2">
  <advance width="677.0"/>
  <unicode hex="0028"/>
  <outline>
    <contour>
      <point x="48.375" y="-528.625" type="curve"/>
      <point x="125.875" y="-497.375"/>
      <point x="317.25" y="-395.5"/>
      <point x="387.875" y="-351.625" type="curve"/>
      <point x="336.875" y="-250.375"/>
      <point x="312.0" y="-53.375"/>
      <point x="312.0" y="105.875" type="curve" smooth="yes"/>
      <point x="312.0" y="617.125"/>
      <point x="539.875" y="1037.0"/>
      <point x="872.25" y="1488.375" type="curve"/>
      <point x="804.75" y="1527.75"/>
      <point x="682.875" y="1570.25"/>
      <point x="555.625" y="1588.25" type="curve"/>
      <point x="199.625" y="1191.75"/>
      <point x="-53.375" y="601.625"/>
      <point x="-53.375" y="53.375" type="curve" smooth="yes"/>
      <point x="-53.375" y="-146.375"/>
      <point x="-20.625" y="-409.375"/>
    </contour>
  </outline>
</glyph>
<glyph name="parenright" format="2">
  <advance width="651.0"/>
  <unicode hex="0029"/>
  <outline>
    <contour>
      <point x="352.0" y="1063.125" type="curve" smooth="yes"/>
      <point x="352.0" y="615.125"/>
      <point x="114.875" y="-32.875"/>
      <point x="-193.625" y="-338.0" type="curve"/>
      <point x="-159.5" y="-385.25"/>
      <point x="3.5" y="-480.25"/>
      <point x="69.375" y="-504.25" type="curve"/>
      <point x="419.625" y="-183.625"/>
      <point x="707.125" y="549.5"/>
      <point x="707.125" y="1053.25" type="curve" smooth="yes"/>
      <point x="707.125" y="1257.625"/>
      <point x="673.0" y="1455.75"/>
      <point x="602.5" y="1583.5" type="curve"/>
      <point x="494.0" y="1561.625"/>
      <point x="380.875" y="1520.625"/>
      <point x="277.375" y="1470.5" type="curve"/>
      <point x="328.25" y="1368.375"/>
      <point x="352.0" y="1218.75"/>
    </contour>
  </outline>
</glyph>
<glyph name="asterisk" format="2">
  <advance width="963.375"/>
  <unicode hex="002A"/>
  <outline>
    <contour>
      <point x="889.875" y="930.75" type="curve"/>
      <point x="920.5" y="961.0"/>
      <point x="1059.625" y="1110.25"/>
      <point x="1083.75" y="1148.25" type="curve"/>
      <point x="1001.75" y="1201.25"/>
      <point x="839.625" y="1275.375"/>
      <point x="762.375" y="1304.375" type="curve"/>
      <point x="687.375" y="1367.375"/>
      <point x="492.25" y="1499.75"/>
      <point x="419.625" y="1545.0" type="curve"/>
      <point x="382.875" y="1511.5"/>
      <point x="263.625" y="1375.875"/>
      <point x="235.0" y="1333.875" type="curve"/>
      <point x="322.625" y="1281.75"/>
      <point x="527.875" y="1187.875"/>
      <point x="619.125" y="1150.875" type="curve"/>
      <point x="681.875" y="1086.125"/>
      <point x="819.25" y="974.25"/>
    </contour>
    <contour>
      <point x="567.875" y="840.5" type="curve" smooth="yes"/>
      <point x="625.0" y="840.5"/>
      <point x="682.0" y="845.125"/>
      <point x="702.875" y="848.875" type="curve"/>
      <point x="724.125" y="937.625"/>
      <point x="763.5" y="1149.625"/>
      <point x="781.375" y="1249.75" type="curve"/>
      <point x="813.75" y="1331.625"/>
      <point x="863.25" y="1478.375"/>
      <point x="894.625" y="1596.25" type="curve"/>
      <point x="874.875" y="1600.125"/>
      <point x="823.0" y="1603.0"/>
      <point x="769.375" y="1603.0" type="curve" smooth="yes"/>
      <point x="715.75" y="1603.0"/>
      <point x="660.375" y="1600.125"/>
      <point x="638.25" y="1596.25" type="curve"/>
      <point x="620.875" y="1512.75"/>
      <point x="593.375" y="1361.25"/>
      <point x="575.5" y="1249.75" type="curve"/>
      <point x="526.125" y="1119.5"/>
      <point x="462.75" y="945.5"/>
      <point x="436.0" y="848.875" type="curve"/>
      <point x="455.0" y="845.0"/>
      <point x="511.5" y="840.5"/>
    </contour>
    <contour>
      <point x="275.625" y="901.25" type="curve"/>
      <point x="395.5" y="959.25"/>
      <point x="554.875" y="1045.25"/>
      <point x="670.75" y="1108.875" type="curve"/>
      <point x="780.75" y="1153.0"/>
      <point x="1042.875" y="1273.125"/>
      <point x="1149.625" y="1325.625" type="curve"/>
      <point x="1143.875" y="1367.625"/>
      <point x="1095.75" y="1509.625"/>
      <point x="1077.625" y="1542.375" type="curve"/>
      <point x="979.375" y="1492.375"/>
      <point x="764.75" y="1367.875"/>
      <point x="663.625" y="1304.75" type="curve"/>
      <point x="555.0" y="1266.0"/>
      <point x="312.75" y="1178.875"/>
      <point x="202.75" y="1125.875" type="curve"/>
      <point x="207.625" y="1088.625"/>
      <point x="263.0" y="931.25"/>
    </contour>
  </outline>
</glyph>
<glyph name="plus" format="2">
  <advance width="1050.0"/>
  <unicode hex="002B"/>
  <outline>
    <contour>
      <point x="993.5" y="564.875" type="curve"/>
      <point x="1005.5" y="594.625"/>
      <point x="1068.5" y="769.5"/>
      <point x="1100.0" y="888.875" type="curve"/>
      <point x="995.625" y="871.5"/>
      <point x="776.375" y="863.25"/>
      <point x="561.375" y="863.25" type="curve" smooth="yes"/>
      <point x="371.375" y="863.25"/>
      <point x="187.875" y="869.625"/>
      <point x="112.25" y="878.875" type="curve"/>
      <point x="102.0" y="842.75"/>
      <point x="55.0" y="628.375"/>
      <point x="51.5" y="583.75" type="curve"/>
      <point x="192.125" y="562.875"/>
      <point x="462.125" y="546.875"/>
      <point x="679.75" y="546.875" type="curve" smooth="yes"/>
      <point x="813.875" y="546.875"/>
      <point x="926.0" y="552.875"/>
    </contour>
    <contour>
      <point x="847.875" y="1182.375" type="curve"/>
      <point x="818.75" y="1182.5"/>
      <point x="535.75" y="1170.5"/>
      <point x="497.5" y="1167.875" type="curve"/>
      <point x="487.125" y="1044.625"/>
      <point x="435.75" y="716.5"/>
      <point x="366.875" y="463.625" type="curve" smooth="yes"/>
      <point x="348.0" y="393.75"/>
      <point x="328.5" y="327.5"/>
      <point x="307.5" y="272.875" type="curve"/>
      <point x="343.75" y="268.5"/>
      <point x="566.25" y="260.625"/>
      <point x="608.0" y="261.0" type="curve"/>
      <point x="662.5" y="376.75"/>
      <point x="713.75" y="537.625"/>
      <point x="754.125" y="685.75" type="curve" smooth="yes"/>
      <point x="810.75" y="895.0"/>
      <point x="846.375" y="1097.5"/>
    </contour>
  </outline>
</glyph>
<glyph name="comma" format="2">
  <advance width="667.0"/>
  <unicode hex="002C"/>
  <outline>
    <contour>
      <point x="190.0" y="-327.5" type="curve"/>
      <point x="355.0" y="-231.75"/>
      <point x="474.5" y="-22.5"/>
      <point x="474.5" y="148.875" type="curve" smooth="yes"/>
      <point x="474.5" y="295.625"/>
      <point x="371.875" y="358.875"/>
      <point x="262.625" y="358.875" type="curve" smooth="yes"/>
      <point x="101.0" y="358.875"/>
      <point x="-31.5" y="273.0"/>
      <point x="-31.5" y="114.375" type="curve" smooth="yes"/>
      <point x="-31.5" y="36.875"/>
      <point x="6.125" y="-28.5"/>
      <point x="84.625" y="-28.5" type="curve" smooth="yes"/>
      <point x="135.5" y="-28.5"/>
      <point x="169.125" y="-15.75"/>
      <point x="188.75" y="1.0" type="curve"/>
      <point x="188.875" y="-1.875"/>
      <point x="188.0" y="-6.75"/>
      <point x="187.125" y="-9.875" type="curve" smooth="yes"/>
      <point x="178.375" y="-46.125"/>
      <point x="69.125" y="-130.5"/>
      <point x="13.875" y="-152.875" type="curve"/>
      <point x="40.25" y="-246.375"/>
      <point x="165.0" y="-318.0"/>
    </contour>
  </outline>
</glyph>
<glyph name="hyphen" format="2">
  <advance width="924.375"/>
  <unicode hex="002D"/>
  <outline>
    <contour>
      <point x="958.5" y="829.75" type="curve"/>
      <point x="862.25" y="842.25"/>
      <point x="740.625" y="846.625"/>
      <point x="586.5" y="846.625" type="curve" smooth="yes"/>
      <point x="447.75" y="846.625"/>
      <point x="268.5" y="834.625"/>
      <point x="122.875" y="817.75" type="curve"/>
      <point x="101.125" y="773.0"/>
      <point x="35.125" y="583.875"/>
      <point x="13.875" y="500.375" type="curve"/>
      <point x="213.625" y="512.25"/>
      <point x="784.625" y="528.875"/>
      <point x="895.0" y="528.875" type="curve"/>
      <point x="916.75" y="611.25"/>
      <point x="949.25" y="736.375"/>
    </contour>
  </outline>
</glyph>
<glyph name="period" format="2">
  <advance width="632.0"/>
  <unicode hex="002E"/>
  <outline>
    <contour>
      <point x="258.125" y="385.5" type="curve" smooth="yes"/>
      <point x="115.875" y="385.5"/>
      <point x="-12.75" y="287.625"/>
      <point x="-12.75" y="132.625" type="curve" smooth="yes"/>
      <point x="-12.75" y="36.125"/>
      <point x="76.375" y="-38.0"/>
      <point x="182.625" y="-38.0" type="curve" smooth="yes"/>
      <point x="318.375" y="-38.0"/>
      <point x="438.0" y="57.25"/>
      <point x="438.0" y="217.125" type="curve" smooth="yes"/>
      <point x="438.0" y="310.0"/>
      <point x="360.875" y="385.5"/>
    </contour>
  </outline>
</glyph>
<glyph name="slash" format="2">
  <advance width="969.0"/>
  <unicode hex="002F"/>
  <outline>
    <contour>
      <point x="991.0" y="1537.25" type="curve"/>
      <point x="743.875" y="1160.125"/>
      <point x="175.0" y="348.75"/>
      <point x="-174.75" y="-42.375" type="curve"/>
      <point x="-132.0" y="-99.375"/>
      <point x="-44.125" y="-162.625"/>
      <point x="49.25" y="-185.25" type="curve"/>
      <point x="384.25" y="154.375"/>
      <point x="845.625" y="758.0"/>
      <point x="1223.625" y="1421.625" type="curve"/>
      <point x="1194.875" y="1469.875"/>
      <point x="1132.875" y="1506.625"/>
    </contour>
  </outline>
</glyph>
<glyph name="zero" format="2">
  <advance width="1087.0"/>
  <unicode hex="0030"/>
  <outline>
    <contour>
      <point x="407.875" y="-32.0" type="curve" smooth="yes"/>
      <point x="789.25" y="-32.0"/>
      <point x="1068.0" y="525.875"/>
      <point x="1068.0" y="971.625" type="curve" smooth="yes"/>
      <point x="1068.0" y="1195.75"/>
      <point x="973.875" y="1338.0"/>
      <point x="737.25" y="1338.0" type="curve" smooth="yes"/>
      <point x="339.75" y="1338.0"/>
      <point x="78.5" y="854.25"/>
      <point x="78.5" y="387.0" type="curve" smooth="yes"/>
      <point x="78.5" y="142.375"/>
      <point x="175.5" y="-32.0"/>
    </contour>
    <contour>
      <point x="479.75" y="307.125" type="curve" smooth="yes"/>
      <point x="431.25" y="307.125"/>
      <point x="396.875" y="345.125"/>
      <point x="396.875" y="452.0" type="curve" smooth="yes"/>
      <point x="396.875" y="639.0"/>
      <point x="526.25" y="1037.25"/>
      <point x="675.125" y="1037.25" type="curve" smooth="yes"/>
      <point x="734.125" y="1037.25"/>
      <point x="756.625" y="971.125"/>
      <point x="756.625" y="877.0" type="curve" smooth="yes"/>
      <point x="756.625" y="701.0"/>
      <point x="624.125" y="307.125"/>
    </contour>
  </outline>
</glyph>
<glyph name="one" format="2">
  <advance width="809.0"/>
  <unicode hex="0031"/>
  <outline>
    <contour>
      <point x="479.875" y="289.625" type="curve"/>
      <point x="530.125" y="428.5"/>
      <point x="580.375" y="582.875"/>
      <point x="614.875" y="714.0" type="curve" smooth="yes"/>
      <point x="698.125" y="1028.375"/>
      <point x="746.5" y="1246.25"/>
      <point x="753.75" y="1296.625" type="curve"/>
      <point x="699.875" y="1306.375"/>
      <point x="573.5" y="1311.875"/>
      <point x="513.125" y="1311.875" type="curve"/>
      <point x="401.0" y="1235.5"/>
      <point x="202.25" y="1076.625"/>
      <point x="150.125" y="1034.125" type="curve"/>
      <point x="168.875" y="954.0"/>
      <point x="209.625" y="846.625"/>
      <point x="240.0" y="797.125" type="curve"/>
      <point x="260.0" y="814.875"/>
      <point x="358.625" y="897.125"/>
      <point x="394.375" y="921.375" type="curve"/>
      <point x="362.625" y="804.375"/>
      <point x="242.625" y="392.625"/>
      <point x="208.5" y="276.5" type="curve"/>
      <point x="171.75" y="273.0"/>
      <point x="60.375" y="260.75"/>
      <point x="14.625" y="251.125" type="curve"/>
      <point x="-8.875" y="199.25"/>
      <point x="-53.0" y="43.25"/>
      <point x="-59.5" y="-12.0" type="curve"/>
      <point x="15.5" y="-3.375"/>
      <point x="513.375" y="9.0"/>
      <point x="560.25" y="9.0" type="curve"/>
      <point x="582.75" y="58.25"/>
      <point x="638.5" y="235.625"/>
      <point x="649.0" y="275.75" type="curve"/>
      <point x="614.875" y="283.0"/>
      <point x="544.375" y="289.625"/>
    </contour>
  </outline>
</glyph>
<glyph name="two" format="2">
  <advance width="995.0"/>
  <unicode hex="0032"/>
  <outline>
    <contour>
      <point x="860.875" y="375.5" type="curve"/>
      <point x="786.125" y="371.375"/>
      <point x="552.0" y="346.5"/>
      <point x="475.75" y="336.5" type="curve"/>
      <point x="520.0" y="368.75"/>
      <point x="598.0" y="436.75"/>
      <point x="755.125" y="583.0" type="curve" smooth="yes"/>
      <point x="915.625" y="732.625"/>
      <point x="1057.375" y="952.75"/>
      <point x="1057.375" y="1136.0" type="curve" smooth="yes"/>
      <point x="1057.375" y="1277.375"/>
      <point x="943.875" y="1364.0"/>
      <point x="775.375" y="1364.0" type="curve" smooth="yes"/>
      <point x="565.5" y="1364.0"/>
      <point x="306.875" y="1218.75"/>
      <point x="170.0" y="1028.875" type="curve"/>
      <point x="210.25" y="984.75"/>
      <point x="337.375" y="891.375"/>
      <point x="393.75" y="852.25" type="curve"/>
      <point x="467.375" y="945.875"/>
      <point x="583.75" y="1037.0"/>
      <point x="665.875" y="1037.0" type="curve" smooth="yes"/>
      <point x="691.75" y="1037.0"/>
      <point x="712.75" y="1026.5"/>
      <point x="712.75" y="1001.0" type="curve" smooth="yes"/>
      <point x="712.75" y="915.125"/>
      <point x="515.375" y="724.25"/>
      <point x="391.0" y="609.5" type="curve" smooth="yes"/>
      <point x="221.5" y="453.875"/>
      <point x="98.875" y="359.375"/>
      <point x="17.375" y="300.375" type="curve"/>
      <point x="-3.25" y="195.5"/>
      <point x="-14.75" y="5.0"/>
      <point x="-15.75" y="-17.0" type="curve"/>
      <point x="797.625" y="27.0" type="line"/>
      <point x="808.625" y="67.0"/>
      <point x="860.25" y="267.25"/>
    </contour>
  </outline>
</glyph>
<glyph name="three" format="2">
  <advance width="1032.0"/>
  <unicode hex="0033"/>
  <outline>
    <contour>
      <point x="361.125" y="-3.0" type="curve" smooth="yes"/>
      <point x="691.875" y="-3.0"/>
      <point x="925.875" y="173.125"/>
      <point x="925.875" y="457.875" type="curve" smooth="yes"/>
      <point x="925.875" y="593.625"/>
      <point x="848.5" y="704.5"/>
      <point x="724.5" y="733.375" type="curve"/>
      <point x="880.375" y="776.75"/>
      <point x="1022.0" y="909.25"/>
      <point x="1022.0" y="1074.125" type="curve" smooth="yes"/>
      <point x="1022.0" y="1241.125"/>
      <point x="895.125" y="1335.0"/>
      <point x="718.625" y="1335.0" type="curve" smooth="yes"/>
      <point x="450.0" y="1335.0"/>
      <point x="261.875" y="1192.625"/>
      <point x="204.625" y="1134.875" type="curve"/>
      <point x="210.625" y="1122.375"/>
      <point x="283.125" y="1020.75"/>
      <point x="362.625" y="942.125" type="curve"/>
      <point x="406.875" y="981.5"/>
      <point x="530.125" y="1053.0"/>
      <point x="613.625" y="1053.0" type="curve" smooth="yes"/>
      <point x="661.5" y="1053.0"/>
      <point x="681.25" y="1029.125"/>
      <point x="681.25" y="994.5" type="curve" smooth="yes"/>
      <point x="681.25" y="876.625"/>
      <point x="477.0" y="794.5"/>
      <point x="339.375" y="794.5" type="curve"/>
      <point x="312.5" y="694.0"/>
      <point x="303.625" y="608.75"/>
      <point x="303.625" y="558.5" type="curve"/>
      <point x="492.5" y="558.5"/>
      <point x="602.125" y="513.625"/>
      <point x="602.125" y="417.625" type="curve" smooth="yes"/>
      <point x="602.125" y="328.125"/>
      <point x="522.875" y="264.75"/>
      <point x="421.75" y="264.75" type="curve" smooth="yes"/>
      <point x="332.625" y="264.75"/>
      <point x="306.25" y="314.25"/>
      <point x="296.625" y="380.5" type="curve"/>
      <point x="203.25" y="351.875"/>
      <point x="68.5" y="292.875"/>
      <point x="-13.875" y="243.125" type="curve"/>
      <point x="5.375" y="78.625"/>
      <point x="142.5" y="-3.0"/>
    </contour>
  </outline>
</glyph>
<glyph name="four" format="2">
  <advance width="1104.0"/>
  <unicode hex="0034"/>
  <outline>
    <contour>
      <point x="989.5" y="306.875" type="curve"/>
      <point x="1013.625" y="395.875"/>
      <point x="1044.75" y="562.75"/>
      <point x="1045.625" y="581.625" type="curve"/>
      <point x="1026.0" y="582.5"/>
      <point x="943.5" y="583.375"/>
      <point x="890.375" y="582.75" type="curve"/>
      <point x="970.875" y="874.375"/>
      <point x="1100.75" y="1290.125"/>
      <point x="1117.25" y="1341.875" type="curve"/>
      <point x="1039.0" y="1342.0"/>
      <point x="829.0" y="1328.375"/>
      <point x="782.875" y="1321.375" type="curve"/>
      <point x="706.75" y="1251.75"/>
      <point x="260.0" y="732.375"/>
      <point x="101.125" y="527.125" type="curve"/>
      <point x="91.125" y="437.0"/>
      <point x="84.75" y="332.125"/>
      <point x="84.5" y="248.25" type="curve"/>
      <point x="138.875" y="254.375"/>
      <point x="379.5" y="277.75"/>
      <point x="510.5" y="286.0" type="curve"/>
      <point x="462.25" y="149.5"/>
      <point x="424.25" y="37.75"/>
      <point x="411.375" y="-10.25" type="curve"/>
      <point x="468.0" y="-10.125"/>
      <point x="663.75" y="3.625"/>
      <point x="740.625" y="18.625" type="curve"/>
      <point x="753.5" y="77.0"/>
      <point x="777.25" y="170.25"/>
      <point x="812.75" y="304.375" type="curve"/>
      <point x="874.75" y="306.5"/>
      <point x="931.25" y="306.875"/>
    </contour>
    <contour>
      <point x="760.625" y="967.75" type="curve"/>
      <point x="724.375" y="883.0"/>
      <point x="638.5" y="621.75"/>
      <point x="623.0" y="569.625" type="curve"/>
      <point x="557.375" y="569.125"/>
      <point x="446.25" y="555.5"/>
      <point x="417.875" y="551.375" type="curve"/>
      <point x="463.375" y="612.125"/>
      <point x="654.625" y="847.375"/>
    </contour>
  </outline>
</glyph>
<glyph name="five" format="2">
  <advance width="1137.0"/>
  <unicode hex="0035"/>
  <outline>
    <contour>
      <point x="-25.25" y="238.75" type="curve"/>
      <point x="42.5" y="66.0"/>
      <point x="266.875" y="0.125"/>
      <point x="445.875" y="0.125" type="curve" smooth="yes"/>
      <point x="795.125" y="0.125"/>
      <point x="1094.625" y="271.875"/>
      <point x="1094.625" y="613.75" type="curve" smooth="yes"/>
      <point x="1094.625" y="807.625"/>
      <point x="992.75" y="943.875"/>
      <point x="803.0" y="943.875" type="curve" smooth="yes"/>
      <point x="700.0" y="943.875"/>
      <point x="609.625" y="896.25"/>
      <point x="574.375" y="850.25" type="curve"/>
      <point x="585.5" y="894.25"/>
      <point x="601.0" y="961.125"/>
      <point x="611.875" y="1004.0" type="curve"/>
      <point x="720.625" y="1022.0"/>
      <point x="983.375" y="1049.875"/>
      <point x="1126.75" y="1053.25" type="curve"/>
      <point x="1127.375" y="1125.625"/>
      <point x="1127.875" y="1284.375"/>
      <point x="1123.5" y="1331.375" type="curve"/>
      <point x="929.625" y="1315.375"/>
      <point x="468.5" y="1241.625"/>
      <point x="306.25" y="1207.375" type="curve"/>
      <point x="279.5" y="1019.125"/>
      <point x="236.375" y="803.25"/>
      <point x="174.0" y="570.125" type="curve"/>
      <point x="199.5" y="569.125"/>
      <point x="279.125" y="567.375"/>
      <point x="315.0" y="567.375" type="curve" smooth="yes"/>
      <point x="392.875" y="567.375"/>
      <point x="439.875" y="571.875"/>
      <point x="480.5" y="577.375" type="curve"/>
      <point x="499.375" y="629.625"/>
      <point x="573.375" y="698.875"/>
      <point x="676.0" y="698.875" type="curve" smooth="yes"/>
      <point x="759.25" y="698.875"/>
      <point x="788.0" y="638.875"/>
      <point x="788.0" y="566.375" type="curve" smooth="yes"/>
      <point x="788.0" y="419.625"/>
      <point x="663.75" y="293.0"/>
      <point x="501.25" y="293.0" type="curve" smooth="yes"/>
      <point x="377.25" y="293.0"/>
      <point x="295.25" y="366.125"/>
      <point x="271.75" y="451.5" type="curve"/>
      <point x="219.375" y="426.625"/>
      <point x="44.25" y="313.5"/>
    </contour>
  </outline>
</glyph>
<glyph name="six" format="2">
  <advance width="1154.0"/>
  <unicode hex="0036"/>
  <outline>
    <contour>
      <point x="1079.625" y="1142.125" type="curve"/>
      <point x="1074.375" y="1223.875"/>
      <point x="1015.25" y="1363.875"/>
      <point x="978.5" y="1392.125" type="curve"/>
      <point x="499.875" y="1262.5"/>
      <point x="96.5" y="824.625"/>
      <point x="96.5" y="356.625" type="curve" smooth="yes"/>
      <point x="96.5" y="143.5"/>
      <point x="237.625" y="-9.0"/>
      <point x="480.5" y="-9.0" type="curve" smooth="yes"/>
      <point x="830.625" y="-9.0"/>
      <point x="1087.5" y="224.875"/>
      <point x="1087.5" y="543.875" type="curve" smooth="yes"/>
      <point x="1087.5" y="711.375"/>
      <point x="980.375" y="839.625"/>
      <point x="807.125" y="839.625" type="curve" smooth="yes"/>
      <point x="694.75" y="839.625"/>
      <point x="588.375" y="802.875"/>
      <point x="504.375" y="734.25" type="curve"/>
      <point x="631.25" y="924.25"/>
      <point x="900.125" y="1098.375"/>
    </contour>
    <contour>
      <point x="492.75" y="507.25" type="curve" smooth="yes"/>
      <point x="540.125" y="548.0"/>
      <point x="609.75" y="575.5"/>
      <point x="678.875" y="575.5" type="curve" smooth="yes"/>
      <point x="742.625" y="575.5"/>
      <point x="778.125" y="540.875"/>
      <point x="778.125" y="482.5" type="curve" smooth="yes"/>
      <point x="778.125" y="370.75"/>
      <point x="670.25" y="285.5"/>
      <point x="555.875" y="285.5" type="curve" smooth="yes"/>
      <point x="479.125" y="285.5"/>
      <point x="431.375" y="321.625"/>
      <point x="431.375" y="381.75" type="curve" smooth="yes"/>
      <point x="431.375" y="426.375"/>
      <point x="457.375" y="476.75"/>
    </contour>
  </outline>
</glyph>
<glyph name="seven" format="2">
  <advance width="1012.0"/>
  <unicode hex="0037"/>
  <outline>
    <contour>
      <point x="321.75" y="-45.625" type="curve"/>
      <point x="518.5" y="308.5"/>
      <point x="696.375" y="577.125"/>
      <point x="1150.75" y="1096.5" type="curve"/>
      <point x="1156.0" y="1127.5"/>
      <point x="1179.5" y="1343.75"/>
      <point x="1179.25" y="1376.75" type="curve"/>
      <point x="1006.375" y="1376.75"/>
      <point x="591.875" y="1319.625"/>
      <point x="297.875" y="1256.625" type="curve"/>
      <point x="279.125" y="1186.25"/>
      <point x="242.875" y="974.25"/>
      <point x="241.0" y="921.75" type="curve"/>
      <point x="298.25" y="938.375"/>
      <point x="527.875" y="991.0"/>
      <point x="728.375" y="1022.5" type="curve"/>
      <point x="440.875" y="756.25"/>
      <point x="174.625" y="397.125"/>
      <point x="-30.375" y="75.625" type="curve"/>
      <point x="-13.875" y="67.875"/>
      <point x="217.875" y="-18.25"/>
    </contour>
  </outline>
</glyph>
<glyph name="eight" format="2">
  <advance width="1243.0"/>
  <unicode hex="0038"/>
  <outline>
    <contour>
      <point x="542.5" y="-10.75" type="curve" smooth="yes"/>
      <point x="847.125" y="-10.75"/>
      <point x="1135.5" y="168.875"/>
      <point x="1135.5" y="422.875" type="curve" smooth="yes"/>
      <point x="1135.5" y="572.0"/>
      <point x="1059.75" y="677.25"/>
      <point x="962.375" y="692.375" type="curve"/>
      <point x="1118.75" y="741.125"/>
      <point x="1240.5" y="911.375"/>
      <point x="1240.5" y="1085.125" type="curve" smooth="yes"/>
      <point x="1240.5" y="1279.875"/>
      <point x="1070.25" y="1374.625"/>
      <point x="844.0" y="1374.625" type="curve" smooth="yes"/>
      <point x="521.75" y="1374.625"/>
      <point x="257.375" y="1219.625"/>
      <point x="257.375" y="945.5" type="curve" smooth="yes"/>
      <point x="257.375" y="842.5"/>
      <point x="340.5" y="752.125"/>
      <point x="399.375" y="736.75" type="curve"/>
      <point x="218.625" y="677.5"/>
      <point x="53.125" y="503.5"/>
      <point x="53.125" y="299.625" type="curve" smooth="yes"/>
      <point x="53.125" y="88.625"/>
      <point x="243.25" y="-10.75"/>
    </contour>
    <contour>
      <point x="568.375" y="279.5" type="curve" smooth="yes"/>
      <point x="481.875" y="279.5"/>
      <point x="410.625" y="311.125"/>
      <point x="410.625" y="388.0" type="curve" smooth="yes"/>
      <point x="410.625" y="495.875"/>
      <point x="530.625" y="544.875"/>
      <point x="647.75" y="544.875" type="curve" smooth="yes"/>
      <point x="734.25" y="544.875"/>
      <point x="803.5" y="516.875"/>
      <point x="803.5" y="445.75" type="curve" smooth="yes"/>
      <point x="803.5" y="333.5"/>
      <point x="692.0" y="279.5"/>
    </contour>
    <contour>
      <point x="723.25" y="856.875" type="curve" smooth="yes"/>
      <point x="634.375" y="856.875"/>
      <point x="587.75" y="890.5"/>
      <point x="587.75" y="965.625" type="curve" smooth="yes"/>
      <point x="587.75" y="1064.375"/>
      <point x="683.25" y="1114.625"/>
      <point x="783.0" y="1114.625" type="curve" smooth="yes"/>
      <point x="863.125" y="1114.625"/>
      <point x="909.75" y="1085.75"/>
      <point x="909.75" y="1016.375" type="curve" smooth="yes"/>
      <point x="909.75" y="924.0"/>
      <point x="817.5" y="856.875"/>
    </contour>
  </outline>
</glyph>
<glyph name="nine" format="2">
  <advance width="1067.0"/>
  <unicode hex="0039"/>
  <outline>
    <contour>
      <point x="761.75" y="26.625" type="curve"/>
      <point x="895.875" y="270.875"/>
      <point x="1117.125" y="752.0"/>
      <point x="1117.125" y="1006.125" type="curve" smooth="yes"/>
      <point x="1117.125" y="1227.75"/>
      <point x="986.125" y="1364.0"/>
      <point x="729.375" y="1364.0" type="curve" smooth="yes"/>
      <point x="397.625" y="1364.0"/>
      <point x="123.875" y="1153.125"/>
      <point x="123.875" y="815.375" type="curve" smooth="yes"/>
      <point x="123.875" y="611.875"/>
      <point x="227.5" y="486.875"/>
      <point x="457.25" y="486.875" type="curve" smooth="yes"/>
      <point x="563.125" y="486.875"/>
      <point x="644.875" y="518.375"/>
      <point x="678.875" y="554.375" type="curve"/>
      <point x="599.75" y="315.375"/>
      <point x="403.375" y="45.125"/>
      <point x="358.375" y="-0.25" type="curve"/>
      <point x="517.0" y="-0.25"/>
      <point x="677.875" y="10.5"/>
    </contour>
    <contour>
      <point x="683.25" y="1107.375" type="curve" smooth="yes"/>
      <point x="755.5" y="1107.375"/>
      <point x="798.875" y="1069.875"/>
      <point x="798.875" y="1008.375" type="curve" smooth="yes"/>
      <point x="798.875" y="885.375"/>
      <point x="706.875" y="784.375"/>
      <point x="573.5" y="784.375" type="curve" smooth="yes"/>
      <point x="497.5" y="784.375"/>
      <point x="457.75" y="831.125"/>
      <point x="457.75" y="896.125" type="curve" smooth="yes"/>
      <point x="457.75" y="1022.875"/>
      <point x="557.0" y="1107.375"/>
    </contour>
  </outline>
</glyph>
<glyph name="colon" format="2">
  <advance width="564.0"/>
  <unicode hex="003A"/>
  <outline>
    <contour>
      <point x="169.375" y="-9.875" type="curve" smooth="yes"/>
      <point x="283.375" y="-9.875"/>
      <point x="376.625" y="70.625"/>
      <point x="376.625" y="187.125" type="curve" smooth="yes"/>
      <point x="376.625" y="310.0"/>
      <point x="291.125" y="406.875"/>
      <point x="167.375" y="406.875" type="curve" smooth="yes"/>
      <point x="48.125" y="406.875"/>
      <point x="-47.5" y="301.5"/>
      <point x="-47.5" y="185.5" type="curve" smooth="yes"/>
      <point x="-47.5" y="79.25"/>
      <point x="48.0" y="-9.875"/>
    </contour>
    <component base="period" xOffset="131.0" yOffset="655.625"/>
  </outline>
</glyph>
<glyph name="semicolon" format="2">
  <advance width="593.0"/>
  <unicode hex="003B"/>
  <outline>
    <contour>
      <point x="407.375" y="1041.75" type="curve" smooth="yes"/>
      <point x="265.125" y="1041.75"/>
      <point x="136.5" y="943.875"/>
      <point x="136.5" y="788.875" type="curve" smooth="yes"/>
      <point x="136.5" y="692.375"/>
      <point x="225.625" y="618.25"/>
      <point x="331.875" y="618.25" type="curve" smooth="yes"/>
      <point x="467.625" y="618.25"/>
      <point x="587.25" y="713.5"/>
      <point x="587.25" y="873.375" type="curve" smooth="yes"/>
      <point x="587.25" y="966.25"/>
      <point x="510.125" y="1041.75"/>
    </contour>
    <contour>
      <point x="130.875" y="-325.875" type="curve"/>
      <point x="286.375" y="-235.25"/>
      <point x="400.0" y="-37.0"/>
      <point x="400.0" y="124.875" type="curve" smooth="yes"/>
      <point x="400.0" y="263.0"/>
      <point x="302.5" y="322.875"/>
      <point x="199.25" y="322.875" type="curve" smooth="yes"/>
      <point x="47.125" y="322.875"/>
      <point x="-77.625" y="241.25"/>
      <point x="-77.625" y="92.125" type="curve" smooth="yes"/>
      <point x="-77.625" y="18.875"/>
      <point x="-42.625" y="-43.0"/>
      <point x="31.625" y="-43.0" type="curve" smooth="yes"/>
      <point x="80.875" y="-43.0"/>
      <point x="112.875" y="-30.25"/>
      <point x="130.75" y="-14.25" type="curve"/>
      <point x="130.875" y="-17.125"/>
      <point x="130.0" y="-21.125"/>
      <point x="129.125" y="-24.25" type="curve" smooth="yes"/>
      <point x="121.25" y="-58.875"/>
      <point x="17.875" y="-140.125"/>
      <point x="-34.875" y="-161.625" type="curve"/>
      <point x="-10.25" y="-249.125"/>
      <point x="106.75" y="-316.375"/>
    </contour>
  </outline>
</glyph>
<glyph name="less" format="2">
  <advance width="807.0"/>
  <unicode hex="003C"/>
  <outline>
    <contour>
      <point x="770.125" y="1141.875" type="curve"/>
      <point x="673.5" y="1097.375"/>
      <point x="327.375" y="835.25"/>
      <point x="103.875" y="650.25" type="curve"/>
      <point x="29.875" y="388.625" type="line"/>
      <point x="230.75" y="321.25"/>
      <point x="415.0" y="235.5"/>
      <point x="590.25" y="148.5" type="curve"/>
      <point x="634.625" y="226.375"/>
      <point x="691.875" y="349.0"/>
      <point x="712.625" y="423.625" type="curve"/>
      <point x="655.875" y="465.125"/>
      <point x="353.375" y="585.375"/>
      <point x="280.0" y="611.625" type="curve"/>
      <point x="320.25" y="525.875" type="line"/>
      <point x="542.125" y="679.375"/>
      <point x="704.875" y="785.75"/>
      <point x="930.5" y="929.25" type="curve"/>
      <point x="925.875" y="994.75"/>
      <point x="834.375" y="1097.625"/>
    </contour>
  </outline>
</glyph>
<glyph name="equal" format="2">
  <advance width="1050.0"/>
  <unicode hex="003D"/>
  <outline>
    <contour>
      <point x="240.375" y="1090.375" type="curve"/>
      <point x="212.875" y="1057.125"/>
      <point x="151.5" y="874.125"/>
      <point x="135.0" y="814.5" type="curve"/>
      <point x="300.5" y="817.125"/>
      <point x="922.5" y="827.625"/>
      <point x="1105.25" y="830.25" type="curve"/>
      <point x="1114.625" y="867.0"/>
      <point x="1161.5" y="1113.625"/>
      <point x="1166.125" y="1158.0" type="curve"/>
      <point x="931.125" y="1158.0"/>
      <point x="392.25" y="1119.375"/>
    </contour>
    <contour>
      <point x="59.375" y="664.0" type="curve"/>
      <point x="42.375" y="603.5"/>
      <point x="0.875" y="430.75"/>
      <point x="0.25" y="396.875" type="curve"/>
      <point x="183.0" y="392.125"/>
      <point x="850.5" y="385.25"/>
      <point x="990.625" y="385.25" type="curve"/>
      <point x="1001.0" y="422.0"/>
      <point x="1044.375" y="646.375"/>
      <point x="1048.125" y="690.875" type="curve"/>
      <point x="981.625" y="695.0"/>
      <point x="895.625" y="697.25"/>
      <point x="800.875" y="697.25" type="curve" smooth="yes"/>
      <point x="569.625" y="697.25"/>
      <point x="280.75" y="684.125"/>
    </contour>
  </outline>
</glyph>
<glyph name="greater" format="2">
  <advance width="790.0"/>
  <unicode hex="003E"/>
  <outline>
    <contour>
      <point x="173.125" y="955.25" type="curve"/>
      <point x="275.75" y="880.625"/>
      <point x="504.125" y="705.875"/>
      <point x="564.25" y="655.25" type="curve"/>
      <point x="580.0" y="768.125" type="line"/>
      <point x="412.5" y="673.125"/>
      <point x="30.375" y="449.875"/>
      <point x="0.25" y="431.25" type="curve"/>
      <point x="0.25" y="375.875"/>
      <point x="47.5" y="230.75"/>
      <point x="64.0" y="184.625" type="curve"/>
      <point x="106.0" y="194.625"/>
      <point x="476.125" y="358.875"/>
      <point x="770.75" y="501.0" type="curve"/>
      <point x="846.875" y="814.0" type="line"/>
      <point x="693.0" y="949.0"/>
      <point x="472.875" y="1131.75"/>
      <point x="423.0" y="1145.75" type="curve"/>
      <point x="353.125" y="1113.375"/>
      <point x="239.25" y="1018.625"/>
    </contour>
  </outline>
</glyph>
<glyph name="question" format="2">
  <advance width="1036.0"/>
  <unicode hex="003F"/>
  <outline>
    <contour>
      <point x="682.75" y="456.625" type="curve"/>
      <point x="721.625" y="595.125"/>
      <point x="823.875" y="705.75"/>
      <point x="921.75" y="774.5" type="curve" smooth="yes"/>
      <point x="1075.75" y="882.5"/>
      <point x="1180.375" y="982.75"/>
      <point x="1180.375" y="1180.875" type="curve" smooth="yes"/>
      <point x="1180.375" y="1380.625"/>
      <point x="1013.125" y="1472.0"/>
      <point x="776.0" y="1472.0" type="curve" smooth="yes"/>
      <point x="527.375" y="1472.0"/>
      <point x="305.875" y="1352.375"/>
      <point x="165.125" y="1118.625" type="curve"/>
      <point x="413.0" y="953.75" type="line"/>
      <point x="520.125" y="1090.375"/>
      <point x="599.0" y="1158.875"/>
      <point x="705.25" y="1158.875" type="curve" smooth="yes"/>
      <point x="760.875" y="1158.875"/>
      <point x="796.75" y="1135.625"/>
      <point x="796.75" y="1091.625" type="curve" smooth="yes"/>
      <point x="796.75" y="1025.625"/>
      <point x="721.875" y="964.875"/>
      <point x="623.5" y="899.625" type="curve" smooth="yes"/>
      <point x="458.5" y="789.25"/>
      <point x="362.25" y="654.5"/>
      <point x="314.625" y="474.5" type="curve"/>
      <point x="438.75" y="461.625"/>
      <point x="527.0" y="456.625"/>
    </contour>
    <contour>
      <point x="402.875" y="-10.0" type="curve" smooth="yes"/>
      <point x="536.875" y="-10.0"/>
      <point x="674.75" y="90.75"/>
      <point x="674.75" y="220.5" type="curve" smooth="yes"/>
      <point x="674.75" y="312.625"/>
      <point x="599.5" y="377.25"/>
      <point x="482.5" y="377.25" type="curve" smooth="yes"/>
      <point x="354.5" y="377.25"/>
      <point x="218.0" y="289.875"/>
      <point x="218.0" y="154.375" type="curve" smooth="yes"/>
      <point x="218.0" y="51.0"/>
      <point x="296.125" y="-10.0"/>
    </contour>
  </outline>
</glyph>
<glyph name="at" format="2">
  <advance width="1920.0"/>
  <unicode hex="0040"/>
  <outline>
    <contour>
      <point x="750.5" y="-41.0" type="curve" smooth="yes"/>
      <point x="1036.75" y="-41.0"/>
      <point x="1274.5" y="38.5"/>
      <point x="1397.25" y="178.0" type="curve"/>
      <point x="1203.625" y="348.25" type="line"/>
      <point x="1125.75" y="275.25"/>
      <point x="990.625" y="209.0"/>
      <point x="817.125" y="209.0" type="curve" smooth="yes"/>
      <point x="570.625" y="209.0"/>
      <point x="385.375" y="338.75"/>
      <point x="385.375" y="591.625" type="curve" smooth="yes"/>
      <point x="385.375" y="1008.75"/>
      <point x="810.125" y="1238.75"/>
      <point x="1242.5" y="1238.75" type="curve" smooth="yes"/>
      <point x="1516.875" y="1238.75"/>
      <point x="1648.625" y="1120.875"/>
      <point x="1648.625" y="881.375" type="curve" smooth="yes"/>
      <point x="1648.625" y="758.125"/>
      <point x="1606.875" y="594.625"/>
      <point x="1517.0" y="594.625" type="curve" smooth="yes"/>
      <point x="1477.25" y="594.625"/>
      <point x="1458.0" y="611.5"/>
      <point x="1458.0" y="673.75" type="curve" smooth="yes"/>
      <point x="1458.0" y="700.125"/>
      <point x="1473.0" y="931.75"/>
      <point x="1488.5" y="1116.875" type="curve"/>
      <point x="1431.875" y="1114.125"/>
      <point x="1304.75" y="1109.375"/>
      <point x="1261.375" y="1109.0" type="curve"/>
      <point x="1258.125" y="1093.75"/>
      <point x="1252.125" y="1055.0"/>
      <point x="1250.875" y="1033.0" type="curve"/>
      <point x="1217.75" y="1067.0"/>
      <point x="1149.625" y="1089.125"/>
      <point x="1057.0" y="1089.125" type="curve" smooth="yes"/>
      <point x="801.625" y="1089.125"/>
      <point x="563.875" y="882.125"/>
      <point x="563.875" y="621.375" type="curve" smooth="yes"/>
      <point x="563.875" y="455.5"/>
      <point x="669.75" y="350.75"/>
      <point x="867.5" y="350.75" type="curve" smooth="yes"/>
      <point x="1009.75" y="350.75"/>
      <point x="1156.25" y="397.125"/>
      <point x="1236.0" y="494.5" type="curve"/>
      <point x="1247.75" y="402.125"/>
      <point x="1345.125" y="341.0"/>
      <point x="1466.125" y="341.0" type="curve" smooth="yes"/>
      <point x="1761.75" y="341.0"/>
      <point x="1939.625" y="603.75"/>
      <point x="1939.625" y="928.125" type="curve" smooth="yes"/>
      <point x="1939.625" y="1298.0"/>
      <point x="1678.5" y="1497.0"/>
      <point x="1252.0" y="1497.0" type="curve" smooth="yes"/>
      <point x="629.75" y="1497.0"/>
      <point x="63.0" y="1110.375"/>
      <point x="63.0" y="530.625" type="curve" smooth="yes"/>
      <point x="63.0" y="176.875"/>
      <point x="345.625" y="-41.0"/>
    </contour>
    <contour>
      <point x="985.625" y="609.0" type="curve" smooth="yes"/>
      <point x="925.75" y="609.0"/>
      <point x="871.5" y="639.75"/>
      <point x="871.5" y="694.875" type="curve" smooth="yes"/>
      <point x="871.5" y="775.5"/>
      <point x="941.5" y="843.875"/>
      <point x="1083.25" y="843.875" type="curve" smooth="yes"/>
      <point x="1154.125" y="843.875"/>
      <point x="1200.5" y="829.625"/>
      <point x="1226.125" y="815.125" type="curve"/>
      <point x="1219.0" y="712.0" type="line"/>
      <point x="1157.875" y="654.625"/>
      <point x="1077.25" y="609.0"/>
    </contour>
  </outline>
</glyph>
<glyph name="A" format="2">
  <advance width="1184.375"/>
  <unicode hex="0041"/>
  <anchor x="491.25" y="0.0" name="bottom"/>
  <anchor x="852.25" y="4.375" name="ogonek"/>
  <anchor x="890.25" y="1335.25" name="top"/>
  <outline>
    <contour>
      <point x="276.625" y="-15.0" type="curve"/>
      <point x="305.75" y="61.25"/>
      <point x="365.0" y="195.5"/>
      <point x="427.25" y="320.25" type="curve"/>
      <point x="467.25" y="328.25"/>
      <point x="603.75" y="338.0"/>
      <point x="709.875" y="339.75" type="curve"/>
      <point x="679.375" y="225.5"/>
      <point x="644.125" y="80.0"/>
      <point x="626.125" y="-15.0" type="curve"/>
      <point x="740.875" y="-15.0"/>
      <point x="937.875" y="-5.0"/>
      <point x="1014.125" y="5.5" type="curve"/>
      <point x="1158.5" y="762.75"/>
      <point x="1189.5" y="1089.0"/>
      <point x="1199.625" y="1323.0" type="curve"/>
      <point x="1126.75" y="1332.25"/>
      <point x="1053.25" y="1336.875"/>
      <point x="977.125" y="1336.875" type="curve" smooth="yes"/>
      <point x="850.625" y="1336.875"/>
      <point x="712.5" y="1325.0"/>
      <point x="554.75" y="1305.75" type="curve"/>
      <point x="356.875" y="947.0"/>
      <point x="10.625" y="257.75"/>
      <point x="-103.875" y="-2.625" type="curve"/>
      <point x="-10.0" y="-7.625"/>
      <point x="206.375" y="-15.0"/>
    </contour>
    <contour>
      <point x="556.75" y="633.375" type="curve"/>
      <point x="594.875" y="722.625"/>
      <point x="694.5" y="943.75"/>
      <point x="732.625" y="1024.5" type="curve"/>
      <point x="753.75" y="1027.0"/>
      <point x="841.5" y="1033.0"/>
      <point x="870.75" y="1033.0" type="curve"/>
      <point x="863.125" y="991.0"/>
      <point x="795.75" y="698.5"/>
      <point x="785.25" y="649.25" type="curve"/>
      <point x="732.375" y="648.5"/>
      <point x="594.375" y="639.5"/>
    </contour>
  </outline>
</glyph>
<glyph name="B" format="2">
  <advance width="1174.0"/>
  <unicode hex="0042"/>
  <anchor x="444.585" y="0.0" name="bottom"/>
  <anchor x="790.507" y="1291.0" name="top"/>
  <outline>
    <contour>
      <point x="-38.125" y="25.125" type="curve"/>
      <point x="25.125" y="9.5"/>
      <point x="128.25" y="2.25"/>
      <point x="235.625" y="2.25" type="curve" smooth="yes"/>
      <point x="682.875" y="2.25"/>
      <point x="1090.25" y="128.0"/>
      <point x="1090.25" y="481.75" type="curve" smooth="yes"/>
      <point x="1090.25" y="626.75"/>
      <point x="1001.75" y="716.625"/>
      <point x="857.875" y="727.125" type="curve" smooth="yes"/>
      <point x="846.375" y="728.0"/>
      <point x="840.125" y="728.0"/>
      <point x="833.5" y="728.0" type="curve"/>
      <point x="998.25" y="755.25"/>
      <point x="1151.5" y="891.0"/>
      <point x="1151.5" y="1062.5" type="curve" smooth="yes"/>
      <point x="1151.5" y="1230.75"/>
      <point x="1015.125" y="1306.0"/>
      <point x="810.375" y="1306.0" type="curve" smooth="yes"/>
      <point x="648.625" y="1306.0"/>
      <point x="436.0" y="1293.125"/>
      <point x="327.625" y="1285.0" type="curve"/>
      <point x="319.125" y="1254.375"/>
      <point x="10.75" y="207.0"/>
    </contour>
    <contour>
      <point x="414.5" y="336.375" type="curve"/>
      <point x="464.625" y="551.375" type="line"/>
      <point x="511.375" y="556.375"/>
      <point x="559.875" y="558.375"/>
      <point x="593.875" y="558.375" type="curve" smooth="yes"/>
      <point x="718.5" y="558.375"/>
      <point x="755.75" y="529.625"/>
      <point x="755.75" y="482.75" type="curve" smooth="yes"/>
      <point x="755.75" y="365.75"/>
      <point x="589.875" y="335.5"/>
      <point x="465.5" y="335.5" type="curve" smooth="yes"/>
      <point x="444.5" y="335.5"/>
      <point x="425.875" y="335.5"/>
    </contour>
    <contour>
      <point x="535.875" y="834.875" type="curve"/>
      <point x="584.5" y="1038.125" type="line"/>
      <point x="627.125" y="1043.375"/>
      <point x="688.0" y="1050.25"/>
      <point x="729.0" y="1050.25" type="curve" smooth="yes"/>
      <point x="788.5" y="1050.25"/>
      <point x="828.625" y="1023.625"/>
      <point x="828.625" y="972.75" type="curve" smooth="yes"/>
      <point x="828.625" y="887.0"/>
      <point x="722.875" y="849.5"/>
      <point x="635.75" y="842.0" type="curve" smooth="yes"/>
      <point x="610.125" y="836.375"/>
      <point x="581.25" y="835.125"/>
    </contour>
  </outline>
</glyph>
<glyph name="C" format="2">
  <advance width="1137.0"/>
  <unicode hex="0043"/>
  <anchor x="422.886875" y="0.0" name="bottom"/>
  <anchor x="768.818625" y="1291.0" name="top"/>
  <outline>
    <contour>
      <point x="1036.0" y="198.0" type="curve"/>
      <point x="1009.0" y="280.625"/>
      <point x="917.375" y="421.25"/>
      <point x="851.25" y="478.875" type="curve"/>
      <point x="761.25" y="402.875"/>
      <point x="663.5" y="350.25"/>
      <point x="574.875" y="350.25" type="curve" smooth="yes"/>
      <point x="478.375" y="350.25"/>
      <point x="441.5" y="434.375"/>
      <point x="441.5" y="553.25" type="curve" smooth="yes"/>
      <point x="441.5" y="765.5"/>
      <point x="564.75" y="1014.375"/>
      <point x="750.125" y="1014.375" type="curve" smooth="yes"/>
      <point x="876.625" y="1014.375"/>
      <point x="915.25" y="884.0"/>
      <point x="917.125" y="859.5" type="curve"/>
      <point x="1002.75" y="905.5"/>
      <point x="1154.875" y="1005.5"/>
      <point x="1234.5" y="1072.875" type="curve"/>
      <point x="1180.375" y="1244.0"/>
      <point x="993.5" y="1326.0"/>
      <point x="793.75" y="1326.0" type="curve" smooth="yes"/>
      <point x="361.25" y="1326.0"/>
      <point x="42.875" y="926.5"/>
      <point x="42.875" y="471.75" type="curve" smooth="yes"/>
      <point x="42.875" y="200.875"/>
      <point x="203.375" y="-13.125"/>
      <point x="510.875" y="-13.125" type="curve" smooth="yes"/>
      <point x="726.5" y="-13.125"/>
      <point x="904.5" y="79.75"/>
    </contour>
  </outline>
</glyph>
<glyph name="D" format="2">
  <advance width="1198.0"/>
  <unicode hex="0044"/>
  <anchor x="456.585" y="0.0" name="bottom"/>
  <anchor x="361.625" y="646.0" name="center"/>
  <anchor x="716.0" y="1291.0" name="top"/>
  <outline>
    <contour>
      <point x="21.875" y="-33.125" type="curve"/>
      <point x="810.875" y="-30.25"/>
      <point x="1190.625" y="179.75"/>
      <point x="1190.625" y="830.375" type="curve" smooth="yes"/>
      <point x="1190.625" y="1120.875"/>
      <point x="1051.125" y="1325.0"/>
      <point x="642.25" y="1325.0" type="curve" smooth="yes"/>
      <point x="504.375" y="1325.0"/>
      <point x="357.875" y="1309.75"/>
      <point x="271.625" y="1299.0" type="curve"/>
      <point x="245.375" y="1166.5"/>
      <point x="53.875" y="183.125"/>
    </contour>
    <contour>
      <point x="458.625" y="340.0" type="curve"/>
      <point x="506.375" y="547.75"/>
      <point x="550.875" y="784.5"/>
      <point x="592.875" y="1011.875" type="curve"/>
      <point x="609.875" y="1013.125"/>
      <point x="642.875" y="1013.625"/>
      <point x="665.25" y="1013.625" type="curve" smooth="yes"/>
      <point x="785.25" y="1013.625"/>
      <point x="821.875" y="923.0"/>
      <point x="821.875" y="804.875" type="curve" smooth="yes"/>
      <point x="821.875" y="550.625"/>
      <point x="715.625" y="345.0"/>
    </contour>
  </outline>
</glyph>
<glyph name="E" format="2">
  <advance width="957.0"/>
  <unicode hex="0045"/>
  <anchor x="336.948125" y="0.0" name="bottom"/>
  <anchor x="596.75" y="0.0" name="ogonek"/>
  <anchor x="683.0" y="1319.75" name="top"/>
  <anchor x="223.938375" y="1291.0" name="topleft"/>
  <outline>
    <contour>
      <point x="686.0" y="-14.25" type="curve"/>
      <point x="706.5" y="20.375"/>
      <point x="788.75" y="238.5"/>
      <point x="821.5" y="358.375" type="curve"/>
      <point x="770.125" y="362.625"/>
      <point x="678.875" y="368.75"/>
      <point x="587.25" y="368.75" type="curve" smooth="yes"/>
      <point x="503.625" y="368.75"/>
      <point x="413.125" y="368.625"/>
      <point x="399.25" y="368.375" type="curve"/>
      <point x="409.375" y="405.875"/>
      <point x="448.625" y="543.25"/>
      <point x="458.375" y="573.625" type="curve"/>
      <point x="499.75" y="574.0"/>
      <point x="688.375" y="561.875"/>
      <point x="733.125" y="559.25" type="curve"/>
      <point x="815.125" y="849.0" type="line"/>
      <point x="727.5" y="847.25"/>
      <point x="617.0" y="843.125"/>
      <point x="538.625" y="842.75" type="curve"/>
      <point x="545.875" y="870.0"/>
      <point x="575.375" y="979.5"/>
      <point x="585.875" y="1005.375" type="curve"/>
      <point x="994.75" y="1038.375" type="line"/>
      <point x="1031.875" y="1141.5"/>
      <point x="1063.125" y="1233.25"/>
      <point x="1088.75" y="1328.5" type="curve"/>
      <point x="1033.75" y="1328.5"/>
      <point x="703.25" y="1324.375"/>
      <point x="300.5" y="1251.0" type="curve"/>
      <point x="270.25" y="1156.25"/>
      <point x="205.875" y="945.125"/>
      <point x="128.875" y="658.75" type="curve" smooth="yes"/>
      <point x="79.0" y="472.375"/>
      <point x="25.375" y="257.375"/>
      <point x="-27.5" y="27.375" type="curve"/>
      <point x="85.5" y="20.625"/>
      <point x="201.625" y="13.75"/>
      <point x="314.5" y="7.625" type="curve" smooth="yes"/>
      <point x="439.5" y="1.5"/>
      <point x="561.75" y="-6.125"/>
    </contour>
  </outline>
</glyph>
<glyph name="F" format="2">
  <advance width="949.0"/>
  <unicode hex="0046"/>
  <anchor x="315.448125" y="0.0" name="bottom"/>
  <anchor x="661.438375" y="1291.0" name="top"/>
  <outline>
    <contour>
      <point x="379.75" y="-3.25" type="line"/>
      <point x="422.375" y="157.125"/>
      <point x="461.875" y="370.875"/>
      <point x="490.875" y="534.625" type="curve"/>
      <point x="596.625" y="534.625"/>
      <point x="718.375" y="523.75"/>
      <point x="794.75" y="515.0" type="curve"/>
      <point x="832.0" y="613.5"/>
      <point x="861.5" y="716.625"/>
      <point x="880.625" y="804.25" type="curve"/>
      <point x="825.25" y="815.0"/>
      <point x="659.375" y="832.625"/>
      <point x="544.625" y="832.625" type="curve"/>
      <point x="555.125" y="884.375"/>
      <point x="568.75" y="955.0"/>
      <point x="574.625" y="994.375" type="curve"/>
      <point x="751.75" y="994.375"/>
      <point x="943.25" y="980.125"/>
      <point x="1018.0" y="973.625" type="curve"/>
      <point x="1039.625" y="1053.125"/>
      <point x="1066.25" y="1173.875"/>
      <point x="1086.625" y="1280.0" type="curve"/>
      <point x="1006.0" y="1298.125"/>
      <point x="879.75" y="1312.125"/>
      <point x="723.625" y="1312.625" type="curve" smooth="yes"/>
      <point x="595.75" y="1313.0"/>
      <point x="449.375" y="1311.375"/>
      <point x="302.125" y="1301.75" type="curve"/>
      <point x="207.875" y="880.875"/>
      <point x="106.25" y="443.375"/>
      <point x="-0.5" y="13.375" type="curve"/>
    </contour>
  </outline>
</glyph>
<glyph name="G" format="2">
  <advance width="1275.0"/>
  <unicode hex="0047"/>
  <anchor x="495.585" y="0.0" name="bottom"/>
  <anchor x="841.507" y="1291.0" name="top"/>
  <outline>
    <contour>
      <point x="600.125" y="-48.0" type="curve" smooth="yes"/>
      <point x="941.25" y="-48.0"/>
      <point x="1139.5" y="202.625"/>
      <point x="1215.875" y="487.375" type="curve" smooth="yes"/>
      <point x="1229.125" y="537.375"/>
      <point x="1240.25" y="606.875"/>
      <point x="1241.5" y="653.25" type="curve"/>
      <point x="1109.5" y="691.875"/>
      <point x="854.375" y="725.625"/>
      <point x="716.875" y="726.875" type="curve"/>
      <point x="693.25" y="668.0"/>
      <point x="652.125" y="533.75"/>
      <point x="636.125" y="472.875" type="curve"/>
      <point x="691.375" y="471.875"/>
      <point x="825.375" y="454.875"/>
      <point x="863.875" y="443.625" type="curve"/>
      <point x="862.25" y="433.0"/>
      <point x="860.25" y="421.125"/>
      <point x="856.625" y="405.25" type="curve" smooth="yes"/>
      <point x="837.125" y="329.375"/>
      <point x="748.25" y="266.125"/>
      <point x="652.0" y="266.125" type="curve" smooth="yes"/>
      <point x="516.75" y="266.125"/>
      <point x="470.75" y="352.875"/>
      <point x="470.75" y="482.125" type="curve" smooth="yes"/>
      <point x="470.75" y="720.125"/>
      <point x="601.0" y="992.0"/>
      <point x="805.625" y="992.0" type="curve" smooth="yes"/>
      <point x="921.375" y="992.0"/>
      <point x="966.0" y="927.25"/>
      <point x="986.75" y="879.375" type="curve"/>
      <point x="1110.0" y="943.875"/>
      <point x="1271.125" y="1066.875"/>
      <point x="1324.5" y="1114.375" type="curve"/>
      <point x="1260.625" y="1260.5"/>
      <point x="1055.375" y="1338.0"/>
      <point x="863.875" y="1338.0" type="curve" smooth="yes"/>
      <point x="405.5" y="1338.0"/>
      <point x="111.5" y="918.0"/>
      <point x="111.5" y="441.875" type="curve" smooth="yes"/>
      <point x="111.5" y="133.125"/>
      <point x="283.375" y="-48.0"/>
    </contour>
  </outline>
</glyph>
<glyph name="H" format="2">
  <advance width="1094.0"/>
  <unicode hex="0048"/>
  <anchor x="412.136875" y="0.0" name="bottom"/>
  <anchor x="712.25" y="1063.0" name="center"/>
  <anchor x="746.818625" y="1291.0" name="top"/>
  <anchor x="223.507" y="1291.0" name="topleft"/>
  <outline>
    <contour>
      <point x="-9.5" y="4.125" type="curve"/>
      <point x="63.375" y="4.125"/>
      <point x="276.0" y="10.75"/>
      <point x="349.375" y="19.75" type="curve"/>
      <point x="356.75" y="49.5"/>
      <point x="419.75" y="321.5"/>
      <point x="458.0" y="489.625" type="curve"/>
      <point x="517.875" y="489.625"/>
      <point x="594.125" y="490.875"/>
      <point x="663.25" y="492.875" type="curve"/>
      <point x="619.0" y="342.875"/>
      <point x="580.125" y="199.0"/>
      <point x="531.5" y="1.5" type="curve"/>
      <point x="659.125" y="1.5"/>
      <point x="809.0" y="6.0"/>
      <point x="859.25" y="10.75" type="curve"/>
      <point x="891.125" y="128.25"/>
      <point x="957.25" y="355.75"/>
      <point x="1028.875" y="590.25" type="curve" smooth="yes"/>
      <point x="1121.0" y="894.25"/>
      <point x="1225.0" y="1219.25"/>
      <point x="1258.875" y="1299.0" type="curve"/>
      <point x="1216.875" y="1303.875"/>
      <point x="1119.625" y="1308.5"/>
      <point x="1026.5" y="1308.5" type="curve" smooth="yes"/>
      <point x="979.0" y="1308.5"/>
      <point x="923.875" y="1305.875"/>
      <point x="896.25" y="1304.0" type="curve"/>
      <point x="849.875" y="1143.25"/>
      <point x="791.75" y="947.5"/>
      <point x="748.0" y="803.625" type="curve"/>
      <point x="691.75" y="803.25"/>
      <point x="600.875" y="799.5"/>
      <point x="525.75" y="791.5" type="curve"/>
      <point x="537.0" y="836.75"/>
      <point x="566.125" y="960.125"/>
      <point x="588.5" y="1054.125" type="curve" smooth="yes"/>
      <point x="606.625" y="1130.0"/>
      <point x="631.25" y="1235.5"/>
      <point x="641.625" y="1296.0" type="curve"/>
      <point x="552.75" y="1296.0"/>
      <point x="324.625" y="1285.0"/>
      <point x="297.875" y="1282.0" type="curve"/>
      <point x="280.125" y="1229.375"/>
      <point x="256.75" y="1150.875"/>
      <point x="232.125" y="1056.5" type="curve" smooth="yes"/>
      <point x="140.375" y="705.0"/>
      <point x="11.25" y="147.25"/>
    </contour>
  </outline>
</glyph>
<glyph name="I" format="2">
  <advance width="575.375"/>
  <unicode hex="0049"/>
  <anchor x="141.375" y="0.0" name="bottom"/>
  <anchor x="299.0" y="-21.0" name="ogonek"/>
  <anchor x="487.375" y="1291.0" name="top"/>
  <anchor x="236.25" y="1291.0" name="topleft"/>
  <outline>
    <contour>
      <point x="299.0" y="-21.0" type="curve"/>
      <point x="346.0" y="88.0"/>
      <point x="417.125" y="332.0"/>
      <point x="476.0" y="552.375" type="curve" smooth="yes"/>
      <point x="545.625" y="814.5"/>
      <point x="618.5" y="1117.375"/>
      <point x="662.875" y="1322.625" type="curve"/>
      <point x="574.25" y="1322.625"/>
      <point x="371.75" y="1317.25"/>
      <point x="321.875" y="1315.25" type="curve"/>
      <point x="246.125" y="1056.0"/>
      <point x="176.125" y="808.875"/>
      <point x="117.25" y="588.625" type="curve" smooth="yes"/>
      <point x="60.375" y="375.5"/>
      <point x="-3.625" y="117.75"/>
      <point x="-32.875" y="-6.5" type="curve"/>
      <point x="62.25" y="-19.875"/>
      <point x="209.125" y="-21.0"/>
    </contour>
  </outline>
</glyph>
<glyph name="J" format="2">
  <advance width="1178.0"/>
  <unicode hex="004A"/>
  <anchor x="446.585" y="0.0" name="bottom"/>
  <anchor x="1057.375" y="1291.0" name="top"/>
  <outline>
    <contour>
      <point x="467.75" y="-19.0" type="curve" smooth="yes"/>
      <point x="783.125" y="-19.0"/>
      <point x="996.5" y="130.625"/>
      <point x="1116.375" y="610.375" type="curve" smooth="yes"/>
      <point x="1159.125" y="781.25"/>
      <point x="1231.875" y="1106.125"/>
      <point x="1263.375" y="1281.75" type="curve"/>
      <point x="1210.75" y="1288.875"/>
      <point x="1161.0" y="1290.875"/>
      <point x="1094.0" y="1290.875" type="curve" smooth="yes"/>
      <point x="1031.25" y="1290.875"/>
      <point x="950.125" y="1282.75"/>
      <point x="888.25" y="1271.0" type="curve"/>
      <point x="885.375" y="1249.0"/>
      <point x="810.625" y="847.75"/>
      <point x="755.625" y="640.875" type="curve" smooth="yes"/>
      <point x="697.25" y="422.25"/>
      <point x="641.125" y="326.375"/>
      <point x="543.125" y="326.375" type="curve" smooth="yes"/>
      <point x="455.5" y="326.375"/>
      <point x="393.125" y="425.375"/>
      <point x="393.125" y="564.375" type="curve"/>
      <point x="303.375" y="534.0"/>
      <point x="77.875" y="440.0"/>
      <point x="15.0" y="400.625" type="curve"/>
      <point x="16.375" y="134.0"/>
      <point x="187.875" y="-19.0"/>
    </contour>
  </outline>
</glyph>
<glyph name="K" format="2">
  <advance width="1108.25"/>
  <unicode hex="004B"/>
  <anchor x="415.585" y="0.0" name="bottom"/>
  <anchor x="761.507" y="1291.0" name="top"/>
  <outline>
    <contour>
      <point x="-38.125" y="-32.0" type="curve"/>
      <point x="119.5" y="-14.5"/>
      <point x="305.0" y="3.625"/>
      <point x="346.0" y="5.75" type="curve"/>
      <point x="358.0" y="48.625"/>
      <point x="405.0" y="285.625"/>
      <point x="433.25" y="435.5" type="curve"/>
      <point x="455.125" y="443.75"/>
      <point x="483.5" y="455.625"/>
      <point x="509.5" y="472.625" type="curve"/>
      <point x="560.5" y="363.875"/>
      <point x="625.125" y="91.625"/>
      <point x="638.75" y="-4.125" type="curve"/>
      <point x="749.0" y="28.375"/>
      <point x="929.5" y="109.625"/>
      <point x="996.25" y="147.5" type="curve"/>
      <point x="986.0" y="221.375"/>
      <point x="887.125" y="475.75"/>
      <point x="777.625" y="662.625" type="curve"/>
      <point x="949.875" y="788.25"/>
      <point x="1178.25" y="1056.375"/>
      <point x="1227.125" y="1131.25" type="curve"/>
      <point x="1185.25" y="1156.625"/>
      <point x="1065.25" y="1237.75"/>
      <point x="971.0" y="1319.25" type="curve"/>
      <point x="796.5" y="1090.75"/>
      <point x="615.375" y="884.625"/>
      <point x="507.125" y="797.625" type="curve"/>
      <point x="542.375" y="962.0"/>
      <point x="607.125" y="1227.625"/>
      <point x="624.0" y="1297.0" type="curve"/>
      <point x="590.75" y="1303.375"/>
      <point x="526.0" y="1309.625"/>
      <point x="454.25" y="1309.625" type="curve" smooth="yes"/>
      <point x="396.125" y="1309.625"/>
      <point x="320.375" y="1305.125"/>
      <point x="265.875" y="1296.0" type="curve"/>
      <point x="194.25" y="956.375"/>
      <point x="34.625" y="244.5"/>
    </contour>
  </outline>
</glyph>
<glyph name="L" format="2">
  <advance width="961.0"/>
  <unicode hex="004C"/>
  <anchor x="338.585" y="0.0" name="bottom"/>
  <anchor x="511.68" y="646.0" name="center"/>
  <anchor x="510.5" y="1299.5" name="top"/>
  <anchor x="686.5" y="910.5" name="topright"/>
  <outline>
    <contour>
      <point x="-41.125" y="27.375" type="curve"/>
      <point x="42.875" y="17.75"/>
      <point x="168.625" y="11.875"/>
      <point x="293.125" y="12.5" type="curve" smooth="yes"/>
      <point x="448.125" y="13.125"/>
      <point x="628.75" y="23.5"/>
      <point x="797.875" y="45.875" type="curve"/>
      <point x="827.125" y="151.625"/>
      <point x="870.625" y="341.625"/>
      <point x="875.125" y="397.375" type="curve"/>
      <point x="723.0" y="397.375"/>
      <point x="591.125" y="393.0"/>
      <point x="425.375" y="383.375" type="curve"/>
      <point x="447.25" y="443.25"/>
      <point x="470.625" y="512.0"/>
      <point x="493.125" y="583.25" type="curve" smooth="yes"/>
      <point x="590.125" y="884.375"/>
      <point x="675.625" y="1171.5"/>
      <point x="705.375" y="1292.0" type="curve"/>
      <point x="683.625" y="1296.5"/>
      <point x="606.75" y="1299.5"/>
      <point x="559.625" y="1299.5" type="curve" smooth="yes"/>
      <point x="457.125" y="1299.5"/>
      <point x="348.0" y="1289.75"/>
      <point x="303.375" y="1283.5" type="curve"/>
      <point x="272.125" y="1150.25"/>
      <point x="203.0" y="882.25"/>
      <point x="136.5" y="631.875" type="curve" smooth="yes"/>
      <point x="70.0" y="380.625"/>
      <point x="-4.5" y="137.375"/>
    </contour>
  </outline>
</glyph>
<glyph name="M" format="2">
  <advance width="1477.875"/>
  <unicode hex="004D"/>
  <anchor x="586.125" y="0.0" name="bottom"/>
  <anchor x="932.125" y="1291.0" name="top"/>
  <outline>
    <contour>
      <point x="-50.0" y="3.375" type="curve"/>
      <point x="66.75" y="3.375"/>
      <point x="220.875" y="5.5"/>
      <point x="302.375" y="8.375" type="curve"/>
      <point x="311.125" y="38.875"/>
      <point x="418.625" y="450.0"/>
      <point x="499.75" y="763.125" type="curve"/>
      <point x="498.875" y="602.25"/>
      <point x="487.625" y="154.875"/>
      <point x="482.375" y="85.375" type="curve"/>
      <point x="516.75" y="75.25"/>
      <point x="625.5" y="65.125"/>
      <point x="703.125" y="68.625" type="curve"/>
      <point x="760.0" y="148.75"/>
      <point x="1014.625" y="530.125"/>
      <point x="1092.5" y="673.375" type="curve"/>
      <point x="1074.75" y="616.75"/>
      <point x="1035.125" y="485.875"/>
      <point x="997.125" y="362.0" type="curve" smooth="yes"/>
      <point x="956.0" y="228.25"/>
      <point x="913.375" y="91.75"/>
      <point x="888.625" y="20.375" type="curve"/>
      <point x="953.875" y="15.625"/>
      <point x="1105.625" y="6.625"/>
      <point x="1215.75" y="6.625" type="curve"/>
      <point x="1273.375" y="169.375"/>
      <point x="1364.5" y="456.875"/>
      <point x="1433.125" y="714.375" type="curve" smooth="yes"/>
      <point x="1488.625" y="921.125"/>
      <point x="1530.875" y="1115.875"/>
      <point x="1536.375" y="1234.625" type="curve"/>
      <point x="1439.75" y="1251.5"/>
      <point x="1234.0" y="1256.5"/>
      <point x="1140.375" y="1256.5" type="curve"/>
      <point x="1085.125" y="1142.25"/>
      <point x="851.75" y="720.0"/>
      <point x="746.625" y="536.625" type="curve"/>
      <point x="752.375" y="725.75"/>
      <point x="749.375" y="1212.625"/>
      <point x="749.125" y="1262.0" type="curve"/>
      <point x="736.0" y="1262.0"/>
      <point x="456.625" y="1260.125"/>
      <point x="308.375" y="1245.5" type="curve"/>
      <point x="181.625" y="849.75"/>
      <point x="13.0" y="240.25"/>
    </contour>
  </outline>
</glyph>
<glyph name="N" format="2">
  <advance width="1282.0"/>
  <unicode hex="004E"/>
  <anchor x="498.585" y="0.0" name="bottom"/>
  <anchor x="844.507" y="1291.0" name="top"/>
  <outline>
    <contour>
      <point x="364.875" y="-6.75" type="curve"/>
      <point x="399.25" y="122.375"/>
      <point x="509.75" y="595.0"/>
      <point x="525.625" y="702.25" type="curve"/>
      <point x="608.5" y="440.0"/>
      <point x="686.125" y="106.625"/>
      <point x="705.875" y="12.0" type="curve"/>
      <point x="749.25" y="4.0"/>
      <point x="820.5" y="1.375"/>
      <point x="892.0" y="1.375" type="curve" smooth="yes"/>
      <point x="939.875" y="1.375"/>
      <point x="987.125" y="2.25"/>
      <point x="1028.125" y="4.125" type="curve"/>
      <point x="1059.875" y="57.625"/>
      <point x="1162.875" y="376.5"/>
      <point x="1242.0" y="675.0" type="curve" smooth="yes"/>
      <point x="1293.375" y="868.5"/>
      <point x="1346.25" y="1086.125"/>
      <point x="1366.25" y="1211.875" type="curve"/>
      <point x="1311.875" y="1229.75"/>
      <point x="1108.5" y="1245.75"/>
      <point x="1023.5" y="1245.75" type="curve"/>
      <point x="858.375" y="483.625" type="line"/>
      <point x="820.125" y="709.5"/>
      <point x="755.75" y="1003.5"/>
      <point x="661.75" y="1239.625" type="curve"/>
      <point x="566.375" y="1255.0"/>
      <point x="371.625" y="1265.25"/>
      <point x="313.75" y="1265.25" type="curve"/>
      <point x="286.375" y="1127.875"/>
      <point x="220.25" y="869.25"/>
      <point x="156.125" y="631.625" type="curve" smooth="yes"/>
      <point x="79.25" y="344.5"/>
      <point x="-3.125" y="43.375"/>
      <point x="-11.625" y="17.25" type="curve"/>
      <point x="55.375" y="8.5"/>
      <point x="226.25" y="-7.0"/>
    </contour>
  </outline>
</glyph>
<glyph name="O" format="2">
  <advance width="1354.0"/>
  <unicode hex="004F"/>
  <anchor x="534.585" y="0.0" name="bottom"/>
  <anchor x="659.875" y="646.0" name="center"/>
  <anchor x="878.625" y="0.0" name="ogonek"/>
  <anchor x="880.507" y="1291.0" name="top"/>
  <anchor x="223.507" y="1291.0" name="topleft"/>
  <anchor x="1193.875" y="1187.875" name="topright"/>
  <outline>
    <contour>
      <point x="585.875" y="-51.0" type="curve" smooth="yes"/>
      <point x="1101.875" y="-51.0"/>
      <point x="1336.375" y="279.875"/>
      <point x="1336.375" y="803.875" type="curve" smooth="yes"/>
      <point x="1336.375" y="1105.5"/>
      <point x="1203.125" y="1320.0"/>
      <point x="827.25" y="1320.0" type="curve" smooth="yes"/>
      <point x="349.5" y="1320.0"/>
      <point x="74.0" y="976.625"/>
      <point x="74.0" y="450.125" type="curve" smooth="yes"/>
      <point x="74.0" y="160.875"/>
      <point x="236.375" y="-51.0"/>
    </contour>
    <contour>
      <point x="642.25" y="309.625" type="curve" smooth="yes"/>
      <point x="492.625" y="309.625"/>
      <point x="439.25" y="433.25"/>
      <point x="439.25" y="555.0" type="curve" smooth="yes"/>
      <point x="439.25" y="819.125"/>
      <point x="562.25" y="1025.5"/>
      <point x="806.125" y="1025.5" type="curve" smooth="yes"/>
      <point x="962.5" y="1025.5"/>
      <point x="1003.375" y="895.75"/>
      <point x="1003.375" y="769.125" type="curve" smooth="yes"/>
      <point x="1003.375" y="500.875"/>
      <point x="889.75" y="309.625"/>
    </contour>
  </outline>
</glyph>
<glyph name="P" format="2">
  <advance width="1010.0"/>
  <unicode hex="0050"/>
  <anchor x="345.448125" y="0.0" name="bottom"/>
  <anchor x="691.438375" y="1291.0" name="top"/>
  <outline>
    <contour>
      <point x="-67.5" y="-6.75" type="curve"/>
      <point x="10.125" y="-12.125"/>
      <point x="222.625" y="-15.75"/>
      <point x="292.625" y="-15.75" type="curve"/>
      <point x="330.125" y="105.125"/>
      <point x="428.5" y="442.25"/>
      <point x="447.0" y="513.375" type="curve"/>
      <point x="466.625" y="504.5"/>
      <point x="533.625" y="496.875"/>
      <point x="567.5" y="496.875" type="curve" smooth="yes"/>
      <point x="868.25" y="496.875"/>
      <point x="1101.625" y="717.375"/>
      <point x="1101.625" y="996.5" type="curve" smooth="yes"/>
      <point x="1101.625" y="1194.25"/>
      <point x="954.125" y="1291.0"/>
      <point x="728.375" y="1291.0" type="curve" smooth="yes"/>
      <point x="584.875" y="1291.0"/>
      <point x="446.125" y="1280.75"/>
      <point x="312.75" y="1255.0" type="curve"/>
      <point x="228.75" y="1031.625"/>
      <point x="-47.375" y="68.125"/>
    </contour>
    <contour>
      <point x="517.375" y="803.375" type="curve"/>
      <point x="527.625" y="841.375"/>
      <point x="571.75" y="1009.75"/>
      <point x="574.875" y="1026.75" type="curve"/>
      <point x="611.25" y="1031.125"/>
      <point x="648.375" y="1034.5"/>
      <point x="680.25" y="1034.5" type="curve" smooth="yes"/>
      <point x="749.375" y="1034.5"/>
      <point x="792.875" y="1008.25"/>
      <point x="792.875" y="933.25" type="curve" smooth="yes"/>
      <point x="792.875" y="855.375"/>
      <point x="722.0" y="794.75"/>
      <point x="614.375" y="794.75" type="curve" smooth="yes"/>
      <point x="578.5" y="794.75"/>
      <point x="538.5" y="798.5"/>
    </contour>
  </outline>
</glyph>
<glyph name="Q" format="2">
  <advance width="1291.0"/>
  <unicode hex="0051"/>
  <anchor x="503.585" y="0.0" name="bottom"/>
  <anchor x="849.507" y="1291.0" name="top"/>
  <outline>
    <contour>
      <point x="919.0" y="-167.5" type="curve"/>
      <point x="995.875" y="-120.5"/>
      <point x="1094.125" y="-46.125"/>
      <point x="1156.25" y="20.125" type="curve"/>
      <point x="1093.375" y="54.125"/>
      <point x="1021.625" y="107.75"/>
      <point x="987.375" y="172.25" type="curve"/>
      <point x="1194.0" y="304.5"/>
      <point x="1305.625" y="588.25"/>
      <point x="1305.625" y="853.0" type="curve" smooth="yes"/>
      <point x="1305.625" y="1111.875"/>
      <point x="1170.5" y="1299.0"/>
      <point x="837.0" y="1299.0" type="curve" smooth="yes"/>
      <point x="396.125" y="1299.0"/>
      <point x="67.125" y="900.375"/>
      <point x="67.125" y="448.625" type="curve" smooth="yes"/>
      <point x="67.125" y="181.25"/>
      <point x="211.375" y="-17.375"/>
      <point x="498.375" y="-17.375" type="curve" smooth="yes"/>
      <point x="600.25" y="-17.375"/>
      <point x="701.875" y="17.5"/>
      <point x="740.0" y="39.5" type="curve"/>
      <point x="757.75" y="-5.5"/>
      <point x="862.625" y="-139.625"/>
    </contour>
    <contour>
      <point x="639.875" y="308.125" type="curve"/>
      <point x="631.875" y="303.25"/>
      <point x="612.375" y="292.625"/>
      <point x="571.875" y="292.625" type="curve" smooth="yes"/>
      <point x="455.875" y="292.625"/>
      <point x="418.625" y="391.875"/>
      <point x="418.625" y="511.375" type="curve" smooth="yes"/>
      <point x="418.625" y="784.125"/>
      <point x="561.5" y="1016.0"/>
      <point x="811.625" y="1016.0" type="curve" smooth="yes"/>
      <point x="943.625" y="1016.0"/>
      <point x="991.25" y="942.5"/>
      <point x="991.25" y="814.75" type="curve" smooth="yes"/>
      <point x="991.25" y="700.25"/>
      <point x="949.375" y="483.0"/>
      <point x="874.0" y="404.875" type="curve"/>
      <point x="849.375" y="452.125"/>
      <point x="836.25" y="533.25"/>
      <point x="830.25" y="588.0" type="curve"/>
      <point x="758.375" y="551.875"/>
      <point x="640.75" y="487.5"/>
      <point x="592.625" y="455.375" type="curve"/>
      <point x="595.75" y="412.0"/>
      <point x="624.5" y="328.75"/>
    </contour>
  </outline>
</glyph>
<glyph name="R" format="2">
  <advance width="1094.0"/>
  <unicode hex="0052"/>
  <anchor x="404.585" y="0.0" name="bottom"/>
  <anchor x="700.0" y="1329.75" name="top"/>
  <outline>
    <contour>
      <point x="-34.25" y="-24.625" type="curve"/>
      <point x="86.125" y="-24.625"/>
      <point x="248.25" y="-20.875"/>
      <point x="342.625" y="-1.25" type="curve"/>
      <point x="377.25" y="132.375"/>
      <point x="446.25" y="483.625"/>
      <point x="456.875" y="568.625" type="curve"/>
      <point x="486.25" y="569.5"/>
      <point x="517.75" y="573.0"/>
      <point x="556.625" y="581.125" type="curve"/>
      <point x="570.75" y="498.375"/>
      <point x="574.625" y="142.875"/>
      <point x="574.625" y="-20.25" type="curve"/>
      <point x="604.25" y="-18.375"/>
      <point x="815.375" y="23.625"/>
      <point x="942.5" y="80.625" type="curve"/>
      <point x="936.375" y="157.875"/>
      <point x="884.625" y="550.0"/>
      <point x="860.125" y="658.0" type="curve"/>
      <point x="1030.25" y="735.25"/>
      <point x="1143.625" y="847.375"/>
      <point x="1143.625" y="1030.75" type="curve" smooth="yes"/>
      <point x="1143.625" y="1260.125"/>
      <point x="965.25" y="1329.75"/>
      <point x="718.5" y="1329.75" type="curve" smooth="yes"/>
      <point x="572.875" y="1329.75"/>
      <point x="376.25" y="1319.625"/>
      <point x="253.75" y="1303.0" type="curve"/>
      <point x="159.125" y="850.75"/>
      <point x="42.875" y="300.0"/>
    </contour>
    <contour>
      <point x="497.0" y="835.625" type="curve"/>
      <point x="505.125" y="883.625"/>
      <point x="524.75" y="1005.5"/>
      <point x="533.0" y="1062.75" type="curve"/>
      <point x="556.75" y="1065.75"/>
      <point x="625.125" y="1072.75"/>
      <point x="668.125" y="1072.75" type="curve" smooth="yes"/>
      <point x="775.75" y="1072.75"/>
      <point x="822.625" y="1051.125"/>
      <point x="822.625" y="976.125" type="curve" smooth="yes"/>
      <point x="822.625" y="889.375"/>
      <point x="727.375" y="858.375"/>
      <point x="626.625" y="845.5" type="curve" smooth="yes"/>
      <point x="568.625" y="838.5"/>
      <point x="532.625" y="835.625"/>
    </contour>
  </outline>
</glyph>
<glyph name="S" format="2">
  <advance width="1152.0"/>
  <unicode hex="0053"/>
  <anchor x="465.125" y="0.0" name="bottom"/>
  <anchor x="731.0" y="1336.25" name="top"/>
  <outline>
    <contour>
      <point x="465.125" y="-16.875" type="curve" smooth="yes"/>
      <point x="780.375" y="-16.875"/>
      <point x="1066.875" y="154.25"/>
      <point x="1066.875" y="469.375" type="curve" smooth="yes"/>
      <point x="1066.875" y="687.875"/>
      <point x="907.25" y="787.125"/>
      <point x="673.625" y="878.125" type="curve" smooth="yes"/>
      <point x="603.125" y="904.625"/>
      <point x="567.125" y="934.625"/>
      <point x="567.125" y="978.0" type="curve" smooth="yes"/>
      <point x="567.125" y="1051.875"/>
      <point x="645.875" y="1083.375"/>
      <point x="724.25" y="1083.375" type="curve" smooth="yes"/>
      <point x="810.125" y="1083.375"/>
      <point x="904.125" y="1033.0"/>
      <point x="969.5" y="949.875" type="curve"/>
      <point x="1042.125" y="993.125"/>
      <point x="1144.375" y="1093.625"/>
      <point x="1212.125" y="1179.75" type="curve"/>
      <point x="1107.5" y="1318.25"/>
      <point x="912.0" y="1349.0"/>
      <point x="735.125" y="1349.0" type="curve" smooth="yes"/>
      <point x="454.125" y="1349.0"/>
      <point x="211.75" y="1201.625"/>
      <point x="211.75" y="925.375" type="curve" smooth="yes"/>
      <point x="211.75" y="739.875"/>
      <point x="352.875" y="655.125"/>
      <point x="546.25" y="567.5" type="curve" smooth="yes"/>
      <point x="679.375" y="508.5"/>
      <point x="709.5" y="451.375"/>
      <point x="709.5" y="391.875" type="curve" smooth="yes"/>
      <point x="709.5" y="314.375"/>
      <point x="629.625" y="260.125"/>
      <point x="534.375" y="260.125" type="curve" smooth="yes"/>
      <point x="407.375" y="260.125"/>
      <point x="331.625" y="343.75"/>
      <point x="263.375" y="449.5" type="curve"/>
      <point x="191.375" y="418.125"/>
      <point x="-3.375" y="244.0"/>
      <point x="-28.5" y="214.75" type="curve"/>
      <point x="70.5" y="39.75"/>
      <point x="281.75" y="-16.875"/>
    </contour>
  </outline>
</glyph>
<glyph name="T" format="2">
  <advance width="1039.0"/>
  <unicode hex="0054"/>
  <anchor x="394.75" y="0.0" name="bottom"/>
  <anchor x="550.96" y="646.0" name="center"/>
  <anchor x="723.507" y="1291.0" name="top"/>
  <outline>
    <contour>
      <point x="184.625" y="1002.375" type="curve"/>
      <point x="282.875" y="1003.0"/>
      <point x="392.875" y="1006.625"/>
      <point x="482.875" y="1013.0" type="curve"/>
      <point x="470.375" y="969.25"/>
      <point x="454.75" y="914.25"/>
      <point x="438.0" y="852.0" type="curve" smooth="yes"/>
      <point x="366.0" y="584.5"/>
      <point x="267.25" y="180.25"/>
      <point x="224.875" y="-14.0" type="curve"/>
      <point x="313.75" y="-14.0"/>
      <point x="512.5" y="-3.25"/>
      <point x="607.5" y="11.125" type="curve"/>
      <point x="616.25" y="55.875"/>
      <point x="789.75" y="847.75"/>
      <point x="828.5" y="1019.75" type="curve"/>
      <point x="903.0" y="1017.125"/>
      <point x="1048.125" y="1016.625"/>
      <point x="1096.875" y="1016.25" type="curve"/>
      <point x="1124.0" y="1068.25"/>
      <point x="1165.25" y="1184.375"/>
      <point x="1198.625" y="1310.125" type="curve"/>
      <point x="1086.25" y="1326.625"/>
      <point x="941.375" y="1332.375"/>
      <point x="793.125" y="1332.375" type="curve" smooth="yes"/>
      <point x="598.75" y="1332.375"/>
      <point x="397.625" y="1322.5"/>
      <point x="245.125" y="1311.125" type="curve"/>
      <point x="235.5" y="1275.375"/>
      <point x="188.5" y="1066.625"/>
    </contour>
  </outline>
</glyph>
<glyph name="U" format="2">
  <advance width="1212.0"/>
  <unicode hex="0055"/>
  <anchor x="463.585" y="0.0" name="bottom"/>
  <anchor x="655.75" y="0.0" name="ogonek"/>
  <anchor x="835.875" y="1318.875" name="top"/>
  <anchor x="1254.125" y="1174.0" name="topright"/>
  <outline>
    <contour>
      <point x="483.125" y="-29.0" type="curve" smooth="yes"/>
      <point x="939.375" y="-29.0"/>
      <point x="1103.375" y="404.625"/>
      <point x="1249.375" y="939.625" type="curve" smooth="yes"/>
      <point x="1284.0" y="1066.75"/>
      <point x="1308.5" y="1194.625"/>
      <point x="1320.75" y="1298.5" type="curve"/>
      <point x="1294.75" y="1306.625"/>
      <point x="1072.625" y="1328.25"/>
      <point x="954.125" y="1328.25" type="curve"/>
      <point x="941.5" y="1232.375"/>
      <point x="845.75" y="840.375"/>
      <point x="811.5" y="712.25" type="curve" smooth="yes"/>
      <point x="763.375" y="533.0"/>
      <point x="700.75" y="404.75"/>
      <point x="582.375" y="404.75" type="curve" smooth="yes"/>
      <point x="520.0" y="404.75"/>
      <point x="490.75" y="443.375"/>
      <point x="490.75" y="524.75" type="curve" smooth="yes"/>
      <point x="490.75" y="610.25"/>
      <point x="537.0" y="796.25"/>
      <point x="590.25" y="981.25" type="curve" smooth="yes"/>
      <point x="627.25" y="1111.0"/>
      <point x="670.875" y="1241.625"/>
      <point x="704.625" y="1338.375" type="curve"/>
      <point x="646.5" y="1344.875"/>
      <point x="569.75" y="1349.625"/>
      <point x="495.75" y="1349.625" type="curve" smooth="yes"/>
      <point x="438.75" y="1349.625"/>
      <point x="369.5" y="1345.0"/>
      <point x="306.0" y="1338.625" type="curve"/>
      <point x="268.25" y="1211.75"/>
      <point x="233.375" y="1091.875"/>
      <point x="204.875" y="979.375" type="curve" smooth="yes"/>
      <point x="142.875" y="734.75"/>
      <point x="102.25" y="531.625"/>
      <point x="102.25" y="364.5" type="curve" smooth="yes"/>
      <point x="102.25" y="109.875"/>
      <point x="204.75" y="-29.0"/>
    </contour>
  </outline>
</glyph>
<glyph name="V" format="2">
  <advance width="1180.875"/>
  <unicode hex="0056"/>
  <anchor x="448.823125" y="0.0" name="bottom"/>
  <anchor x="794.813375" y="1291.0" name="top"/>
  <outline>
    <contour>
      <point x="494.0" y="-21.625" type="curve" smooth="yes"/>
      <point x="571.625" y="-21.625"/>
      <point x="647.125" y="-20.625"/>
      <point x="691.125" y="-16.0" type="curve"/>
      <point x="737.625" y="60.875"/>
      <point x="1138.0" y="782.75"/>
      <point x="1373.25" y="1304.125" type="curve"/>
      <point x="1265.375" y="1342.25"/>
      <point x="1099.5" y="1364.5"/>
      <point x="980.125" y="1365.125" type="curve"/>
      <point x="955.375" y="1293.375"/>
      <point x="728.75" y="709.875"/>
      <point x="585.125" y="382.375" type="curve"/>
      <point x="623.25" y="793.125"/>
      <point x="627.75" y="1234.625"/>
      <point x="627.75" y="1359.25" type="curve"/>
      <point x="532.25" y="1359.25"/>
      <point x="342.125" y="1341.5"/>
      <point x="222.125" y="1306.75" type="curve"/>
      <point x="222.125" y="975.75"/>
      <point x="242.125" y="228.125"/>
      <point x="279.0" y="-10.0" type="curve"/>
      <point x="322.75" y="-16.0"/>
      <point x="408.75" y="-21.625"/>
    </contour>
  </outline>
</glyph>
<glyph name="W" format="2">
  <advance width="1344.0"/>
  <unicode hex="0057"/>
  <anchor x="529.585" y="0.0" name="bottom"/>
  <anchor x="875.507" y="1291.0" name="top"/>
  <outline>
    <contour>
      <point x="648.75" y="-15.25" type="curve"/>
      <point x="991.5" y="19.625" type="line"/>
      <point x="1045.875" y="126.875"/>
      <point x="1391.625" y="817.125"/>
      <point x="1543.375" y="1386.125" type="curve"/>
      <point x="1182.375" y="1349.25" type="line"/>
      <point x="1126.125" y="1138.875"/>
      <point x="997.25" y="729.0"/>
      <point x="885.75" y="448.625" type="curve"/>
      <point x="894.5" y="603.875"/>
      <point x="913.0" y="868.0"/>
      <point x="920.625" y="956.375" type="curve"/>
      <point x="681.5" y="932.375" type="line"/>
      <point x="630.75" y="854.125"/>
      <point x="495.25" y="655.625"/>
      <point x="422.625" y="528.625" type="curve"/>
      <point x="489.625" y="760.375"/>
      <point x="601.25" y="1127.625"/>
      <point x="658.625" y="1340.0" type="curve"/>
      <point x="270.875" y="1354.5" type="line"/>
      <point x="128.125" y="821.5"/>
      <point x="46.75" y="226.125"/>
      <point x="16.5" y="17.375" type="curve"/>
      <point x="378.25" y="1.625" type="line"/>
      <point x="441.5" y="96.75"/>
      <point x="590.625" y="338.25"/>
      <point x="656.0" y="456.75" type="curve"/>
      <point x="647.375" y="326.0"/>
      <point x="644.25" y="107.25"/>
    </contour>
  </outline>
</glyph>
<glyph name="X" format="2">
  <advance width="1235.5"/>
  <unicode hex="0058"/>
  <anchor x="476.761875" y="0.0" name="bottom"/>
  <anchor x="822.693625" y="1291.0" name="top"/>
  <outline>
    <contour>
      <point x="486.375" y="677.375" type="curve"/>
      <point x="322.0" y="479.625"/>
      <point x="82.625" y="205.5"/>
      <point x="-67.0" y="53.875" type="curve"/>
      <point x="74.625" y="11.125"/>
      <point x="199.625" y="-15.125"/>
      <point x="314.875" y="-27.0" type="curve"/>
      <point x="351.875" y="10.875"/>
      <point x="507.375" y="175.5"/>
      <point x="638.375" y="355.5" type="curve"/>
      <point x="689.75" y="201.875"/>
      <point x="714.875" y="48.375"/>
      <point x="724.75" y="-49.125" type="curve"/>
      <point x="824.5" y="-31.5"/>
      <point x="979.875" y="14.625"/>
      <point x="1085.625" y="72.125" type="curve"/>
      <point x="1070.0" y="169.625"/>
      <point x="959.25" y="504.5"/>
      <point x="876.0" y="668.75" type="curve"/>
      <point x="1019.375" y="809.25"/>
      <point x="1279.5" y="1069.375"/>
      <point x="1373.125" y="1202.875" type="curve"/>
      <point x="1330.625" y="1246.5"/>
      <point x="1145.875" y="1312.125"/>
      <point x="1007.625" y="1325.5" type="curve"/>
      <point x="952.25" y="1214.25"/>
      <point x="855.0" y="1053.75"/>
      <point x="758.375" y="930.125" type="curve"/>
      <point x="742.5" y="1004.0"/>
      <point x="688.625" y="1257.375"/>
      <point x="647.375" y="1344.625" type="curve"/>
      <point x="545.75" y="1330.875"/>
      <point x="321.5" y="1262.125"/>
      <point x="223.125" y="1218.25" type="curve"/>
      <point x="255.625" y="1169.75"/>
      <point x="418.625" y="913.375"/>
    </contour>
  </outline>
</glyph>
<glyph name="Y" format="2">
  <advance width="1065.0"/>
  <unicode hex="0059"/>
  <anchor x="411.0" y="0.0" name="bottom"/>
  <anchor x="757.0" y="1291.0" name="top"/>
  <anchor x="244.0" y="1291.0" name="topleft"/>
  <outline>
    <contour>
      <point x="417.375" y="571.25" type="curve"/>
      <point x="381.875" y="496.625"/>
      <point x="312.25" y="253.875"/>
      <point x="246.875" y="19.75" type="curve"/>
      <point x="290.75" y="10.625"/>
      <point x="368.125" y="4.375"/>
      <point x="441.0" y="4.375" type="curve" smooth="yes"/>
      <point x="510.0" y="4.375"/>
      <point x="575.75" y="10.625"/>
      <point x="594.25" y="17.75" type="curve"/>
      <point x="601.125" y="37.5"/>
      <point x="632.625" y="149.25"/>
      <point x="655.625" y="238.25" type="curve" smooth="yes"/>
      <point x="675.375" y="313.375"/>
      <point x="714.375" y="474.5"/>
      <point x="742.875" y="596.875" type="curve"/>
      <point x="931.75" y="841.75"/>
      <point x="1139.5" y="1079.875"/>
      <point x="1260.5" y="1198.125" type="curve"/>
      <point x="1195.5" y="1244.125"/>
      <point x="1049.375" y="1301.5"/>
      <point x="929.125" y="1308.25" type="curve"/>
      <point x="854.625" y="1234.875"/>
      <point x="685.25" y="993.875"/>
      <point x="639.0" y="924.375" type="curve"/>
      <point x="614.5" y="1025.25"/>
      <point x="580.5" y="1262.875"/>
      <point x="573.125" y="1324.125" type="curve"/>
      <point x="494.125" y="1323.5"/>
      <point x="369.25" y="1307.375"/>
      <point x="216.5" y="1255.25" type="curve"/>
      <point x="259.25" y="987.25"/>
      <point x="339.5" y="740.75"/>
    </contour>
  </outline>
</glyph>
<glyph name="Z" format="2">
  <advance width="1044.0"/>
  <unicode hex="005A"/>
  <anchor x="379.585" y="0.0" name="bottom"/>
  <anchor x="552.68" y="646.0" name="center"/>
  <anchor x="725.507" y="1291.0" name="top"/>
  <outline>
    <contour>
      <point x="833.125" y="-14.0" type="curve"/>
      <point x="848.625" y="15.375"/>
      <point x="880.375" y="101.125"/>
      <point x="902.25" y="181.375" type="curve" smooth="yes"/>
      <point x="920.5" y="249.125"/>
      <point x="936.125" y="320.375"/>
      <point x="942.625" y="358.0" type="curve"/>
      <point x="843.5" y="353.375"/>
      <point x="740.625" y="348.875"/>
      <point x="656.25" y="348.875" type="curve" smooth="yes"/>
      <point x="560.625" y="348.875"/>
      <point x="503.625" y="351.5"/>
      <point x="468.75" y="356.125" type="curve"/>
      <point x="596.375" y="471.125"/>
      <point x="1018.625" y="893.5"/>
      <point x="1144.875" y="1037.0" type="curve"/>
      <point x="1154.125" y="1055.875"/>
      <point x="1173.875" y="1117.125"/>
      <point x="1191.125" y="1183.25" type="curve" smooth="yes"/>
      <point x="1204.5" y="1235.625"/>
      <point x="1218.0" y="1292.625"/>
      <point x="1220.75" y="1330.0" type="curve"/>
      <point x="1188.75" y="1333.5"/>
      <point x="1087.5" y="1334.875"/>
      <point x="1039.375" y="1334.75" type="curve" smooth="yes"/>
      <point x="830.875" y="1334.0"/>
      <point x="481.5" y="1306.125"/>
      <point x="356.25" y="1294.0" type="curve"/>
      <point x="342.75" y="1259.75"/>
      <point x="326.375" y="1206.875"/>
      <point x="311.0" y="1149.5" type="curve" smooth="yes"/>
      <point x="297.375" y="1099.25"/>
      <point x="284.625" y="1036.75"/>
      <point x="278.25" y="999.0" type="curve"/>
      <point x="425.0" y="1008.5"/>
      <point x="680.25" y="1024.0"/>
      <point x="743.875" y="1024.125" type="curve"/>
      <point x="661.875" y="930.25"/>
      <point x="243.25" y="518.375"/>
      <point x="50.75" y="351.5" type="curve"/>
      <point x="28.375" y="269.75"/>
      <point x="-14.75" y="91.5"/>
      <point x="-28.25" y="22.0" type="curve"/>
      <point x="311.75" y="-3.25"/>
      <point x="597.125" y="-14.0"/>
    </contour>
  </outline>
</glyph>
<glyph name="bracketleft" format="2">
  <advance width="735.0"/>
  <unicode hex="005B"/>
  <outline>
    <contour>
      <point x="81.875" y="-526.125" type="curve" smooth="yes"/>
      <point x="212.875" y="-526.125"/>
      <point x="317.0" y="-517.875"/>
      <point x="381.125" y="-510.125" type="curve"/>
      <point x="403.625" y="-456.125"/>
      <point x="455.625" y="-300.625"/>
      <point x="478.0" y="-225.125" type="curve"/>
      <point x="445.375" y="-225.375"/>
      <point x="378.75" y="-224.5"/>
      <point x="334.75" y="-222.75" type="curve" smooth="yes"/>
      <point x="278.375" y="-220.125"/>
      <point x="232.25" y="-217.5"/>
      <point x="214.375" y="-212.375" type="curve"/>
      <point x="249.125" y="-41.625"/>
      <point x="300.625" y="174.75"/>
      <point x="361.375" y="401.0" type="curve" smooth="yes"/>
      <point x="447.75" y="722.0"/>
      <point x="554.875" y="1068.75"/>
      <point x="678.75" y="1394.375" type="curve"/>
      <point x="764.0" y="1400.875"/>
      <point x="901.75" y="1409.375"/>
      <point x="935.5" y="1409.375" type="curve"/>
      <point x="944.0" y="1425.75"/>
      <point x="968.0" y="1476.75"/>
      <point x="992.75" y="1538.125" type="curve" smooth="yes"/>
      <point x="1009.75" y="1580.0"/>
      <point x="1025.75" y="1626.625"/>
      <point x="1037.125" y="1669.5" type="curve"/>
      <point x="812.375" y="1667.75"/>
      <point x="568.0" y="1652.25"/>
      <point x="424.125" y="1625.5" type="curve"/>
      <point x="332.5" y="1422.875"/>
      <point x="186.5" y="997.75"/>
      <point x="59.125" y="521.625" type="curve" smooth="yes"/>
      <point x="-32.875" y="179.0"/>
      <point x="-115.75" y="-189.125"/>
      <point x="-161.75" y="-516.75" type="curve"/>
      <point x="-74.25" y="-523.25"/>
      <point x="7.25" y="-526.125"/>
    </contour>
  </outline>
</glyph>
<glyph name="backslash" format="2">
  <advance width="725.0"/>
  <unicode hex="005C"/>
  <outline>
    <contour>
      <point x="610.625" y="21.75" type="curve"/>
      <point x="527.5" y="510.25"/>
      <point x="482.25" y="896.5"/>
      <point x="482.25" y="1475.5" type="curve"/>
      <point x="354.75" y="1466.75"/>
      <point x="217.875" y="1430.875"/>
      <point x="159.625" y="1377.875" type="curve"/>
      <point x="162.625" y="833.375"/>
      <point x="196.25" y="381.875"/>
      <point x="287.0" y="-114.625" type="curve"/>
      <point x="387.625" y="-92.25"/>
      <point x="490.875" y="-47.5"/>
    </contour>
  </outline>
</glyph>
<glyph name="bracketright" format="2">
  <advance width="619.0"/>
  <unicode hex="005D"/>
  <outline>
    <contour>
      <point x="659.125" y="562.875" type="curve" smooth="yes"/>
      <point x="758.625" y="934.5"/>
      <point x="834.125" y="1317.5"/>
      <point x="854.25" y="1636.25" type="curve"/>
      <point x="738.75" y="1659.375"/>
      <point x="620.0" y="1668.75"/>
      <point x="480.25" y="1668.75" type="curve" smooth="yes"/>
      <point x="440.875" y="1668.75"/>
      <point x="383.0" y="1667.875"/>
      <point x="351.0" y="1666.125" type="curve"/>
      <point x="330.0" y="1619.0"/>
      <point x="301.0" y="1526.5"/>
      <point x="278.75" y="1448.875" type="curve"/>
      <point x="274.875" y="1430.5"/>
      <point x="273.625" y="1413.0"/>
      <point x="274.375" y="1397.25" type="curve" smooth="yes"/>
      <point x="338.125" y="1395.5"/>
      <point x="411.625" y="1395.0"/>
      <point x="478.5" y="1393.125" type="curve"/>
      <point x="470.625" y="1257.625"/>
      <point x="404.625" y="939.375"/>
      <point x="315.25" y="605.25" type="curve" smooth="yes"/>
      <point x="237.125" y="314.125"/>
      <point x="140.75" y="11.375"/>
      <point x="52.375" y="-193.875" type="curve"/>
      <point x="9.25" y="-204.0"/>
      <point x="-101.625" y="-216.375"/>
      <point x="-144.0" y="-216.375" type="curve"/>
      <point x="-162.0" y="-286.375"/>
      <point x="-195.0" y="-416.5"/>
      <point x="-212.0" y="-497.375" type="curve"/>
      <point x="-79.75" y="-497.375"/>
      <point x="137.5" y="-490.75"/>
      <point x="303.125" y="-453.875" type="curve"/>
      <point x="403.5" y="-250.25"/>
      <point x="544.625" y="136.25"/>
    </contour>
  </outline>
</glyph>
<glyph name="asciicircum" format="2">
  <advance width="1032.0"/>
  <unicode hex="005E"/>
  <outline>
    <contour>
      <point x="900.5" y="1325.0" type="curve"/>
      <point x="877.75" y="1333.125"/>
      <point x="829.0" y="1336.25"/>
      <point x="776.375" y="1336.25" type="curve" smooth="yes"/>
      <point x="725.375" y="1336.25"/>
      <point x="672.25" y="1331.75"/>
      <point x="637.0" y="1326.0" type="curve"/>
      <point x="492.0" y="1217.0"/>
      <point x="250.75" y="976.0"/>
      <point x="98.25" y="812.0" type="curve"/>
      <point x="158.75" y="735.25"/>
      <point x="260.5" y="691.625"/>
      <point x="342.75" y="679.75" type="curve"/>
      <point x="434.125" y="798.125"/>
      <point x="630.375" y="1016.125"/>
      <point x="827.75" y="1145.375" type="curve"/>
      <point x="663.625" y="1154.25" type="line"/>
      <point x="745.625" y="1006.125"/>
      <point x="771.75" y="850.0"/>
      <point x="774.25" y="707.375" type="curve"/>
      <point x="913.875" y="731.25"/>
      <point x="1010.375" y="762.625"/>
      <point x="1072.25" y="805.0" type="curve"/>
      <point x="1049.0" y="1017.5"/>
      <point x="970.75" y="1213.5"/>
    </contour>
  </outline>
</glyph>
<glyph name="underscore" format="2">
  <advance width="1549.0"/>
  <unicode hex="005F"/>
  <outline>
    <contour>
      <point x="127.375" y="26.875" type="curve" smooth="yes"/>
      <point x="69.5" y="26.875"/>
      <point x="-10.375" y="26.875"/>
      <point x="-63.0" y="28.875" type="curve"/>
      <point x="-78.5" y="-49.625"/>
      <point x="-109.125" y="-225.75"/>
      <point x="-115.25" y="-270.625" type="curve"/>
      <point x="236.125" y="-279.0"/>
      <point x="556.0" y="-282.125"/>
      <point x="782.75" y="-282.125" type="curve" smooth="yes"/>
      <point x="1023.875" y="-282.125"/>
      <point x="1185.5" y="-278.5"/>
      <point x="1269.375" y="-275.5" type="curve"/>
      <point x="1301.625" y="-199.375"/>
      <point x="1345.625" y="-66.375"/>
      <point x="1379.5" y="59.25" type="curve"/>
      <point x="1165.875" y="49.5"/>
      <point x="595.5" y="26.875"/>
    </contour>
  </outline>
</glyph>
<glyph name="a" format="2">
  <advance width="1295.0"/>
  <unicode hex="0061"/>
  <anchor x="475.125" y="0.0" name="bottom"/>
  <anchor x="1061.75" y="1.25" name="ogonek"/>
  <anchor x="748.25" y="1063.0" name="top"/>
  <outline>
    <contour>
      <point x="385.25" y="-16.125" type="curve" smooth="yes"/>
      <point x="600.75" y="-16.125"/>
      <point x="768.375" y="79.375"/>
      <point x="815.375" y="174.75" type="curve"/>
      <point x="815.375" y="52.125"/>
      <point x="876.375" y="-9.625"/>
      <point x="991.375" y="-9.625" type="curve" smooth="yes"/>
      <point x="1099.125" y="-9.625"/>
      <point x="1177.25" y="32.75"/>
      <point x="1207.25" y="77.625" type="curve"/>
      <point x="1157.25" y="309.375" type="line"/>
      <point x="1137.25" y="285.5"/>
      <point x="1113.625" y="271.375"/>
      <point x="1080.25" y="271.375" type="curve" smooth="yes"/>
      <point x="1056.375" y="271.375"/>
      <point x="1043.875" y="280.25"/>
      <point x="1043.875" y="316.875" type="curve" smooth="yes"/>
      <point x="1043.875" y="371.375"/>
      <point x="1059.625" y="441.125"/>
      <point x="1078.5" y="511.25" type="curve" smooth="yes"/>
      <point x="1099.625" y="590.875"/>
      <point x="1117.0" y="676.875"/>
      <point x="1117.0" y="749.625" type="curve" smooth="yes"/>
      <point x="1117.0" y="988.0"/>
      <point x="957.75" y="1073.375"/>
      <point x="690.375" y="1073.375" type="curve" smooth="yes"/>
      <point x="476.125" y="1073.375"/>
      <point x="263.125" y="987.5"/>
      <point x="138.875" y="863.125" type="curve"/>
      <point x="363.0" y="688.25" type="line"/>
      <point x="411.25" y="744.5"/>
      <point x="531.75" y="800.0"/>
      <point x="632.125" y="800.0" type="curve" smooth="yes"/>
      <point x="725.25" y="800.0"/>
      <point x="777.125" y="772.75"/>
      <point x="799.0" y="721.0" type="curve" smooth="yes"/>
      <point x="812.125" y="695.0"/>
      <point x="812.625" y="645.75"/>
      <point x="811.375" y="626.75" type="curve"/>
      <point x="785.75" y="648.125"/>
      <point x="682.375" y="673.75"/>
      <point x="589.625" y="673.75" type="curve" smooth="yes"/>
      <point x="298.375" y="673.75"/>
      <point x="6.375" y="572.625"/>
      <point x="6.375" y="273.0" type="curve" smooth="yes"/>
      <point x="6.375" y="63.375"/>
      <point x="157.625" y="-16.125"/>
    </contour>
    <contour>
      <point x="513.375" y="244.875" type="curve" smooth="yes"/>
      <point x="407.625" y="244.875"/>
      <point x="367.375" y="271.25"/>
      <point x="367.375" y="331.625" type="curve" smooth="yes"/>
      <point x="367.375" y="409.875"/>
      <point x="497.25" y="443.375"/>
      <point x="598.0" y="443.375" type="curve" smooth="yes"/>
      <point x="671.75" y="443.375"/>
      <point x="752.375" y="429.5"/>
      <point x="776.125" y="418.0" type="curve"/>
      <point x="769.5" y="394.625"/>
      <point x="761.375" y="352.75"/>
      <point x="757.25" y="324.375" type="curve"/>
      <point x="713.625" y="282.875"/>
      <point x="596.875" y="244.875"/>
    </contour>
  </outline>
</glyph>
<glyph name="b" format="2">
  <advance width="1200.0"/>
  <unicode hex="0062"/>
  <anchor x="455.136875" y="0.0" name="bottom"/>
  <anchor x="848.91125" y="1470.0" name="top"/>
  <outline>
    <contour>
      <point x="-3.25" y="-4.5" type="curve"/>
      <point x="86.125" y="-15.875"/>
      <point x="235.875" y="-19.125"/>
      <point x="348.0" y="-19.0" type="curve"/>
      <point x="350.5" y="-0.25"/>
      <point x="367.25" y="74.875"/>
      <point x="376.375" y="113.875" type="curve"/>
      <point x="395.5" y="73.375"/>
      <point x="497.25" y="0.75"/>
      <point x="637.875" y="0.75" type="curve" smooth="yes"/>
      <point x="952.0" y="0.75"/>
      <point x="1149.625" y="266.125"/>
      <point x="1149.625" y="586.875" type="curve" smooth="yes"/>
      <point x="1149.625" y="812.0"/>
      <point x="1036.375" y="918.625"/>
      <point x="841.875" y="918.625" type="curve" smooth="yes"/>
      <point x="711.875" y="918.625"/>
      <point x="602.0" y="850.125"/>
      <point x="519.25" y="780.75" type="curve"/>
      <point x="572.25" y="1044.375"/>
      <point x="641.875" y="1318.75"/>
      <point x="675.625" y="1439.875" type="curve"/>
      <point x="486.625" y="1411.875"/>
      <point x="345.5" y="1386.25"/>
      <point x="326.5" y="1382.375" type="curve"/>
      <point x="269.5" y="1170.375"/>
      <point x="28.625" y="159.5"/>
    </contour>
    <contour>
      <point x="431.25" y="358.125" type="curve"/>
      <point x="436.75" y="384.875"/>
      <point x="459.75" y="490.75"/>
      <point x="465.125" y="515.375" type="curve"/>
      <point x="508.375" y="559.0"/>
      <point x="592.375" y="633.125"/>
      <point x="714.75" y="633.125" type="curve" smooth="yes"/>
      <point x="798.75" y="633.125"/>
      <point x="827.25" y="587.25"/>
      <point x="827.25" y="517.125" type="curve" smooth="yes"/>
      <point x="827.25" y="391.25"/>
      <point x="745.375" y="310.25"/>
      <point x="607.5" y="310.25" type="curve" smooth="yes"/>
      <point x="534.875" y="310.25"/>
      <point x="457.5" y="338.75"/>
    </contour>
  </outline>
</glyph>
<glyph name="c" format="2">
  <advance width="1026.0"/>
  <unicode hex="0063"/>
  <anchor x="402.5" y="0.0" name="bottom"/>
  <anchor x="654.113125" y="1063.0" name="top"/>
  <outline>
    <contour>
      <point x="924.5" y="213.5" type="curve"/>
      <point x="745.375" y="469.125" type="line"/>
      <point x="725.75" y="446.125"/>
      <point x="626.875" y="353.0"/>
      <point x="511.875" y="353.0" type="curve" smooth="yes"/>
      <point x="416.375" y="353.0"/>
      <point x="385.5" y="413.75"/>
      <point x="385.5" y="494.875" type="curve" smooth="yes"/>
      <point x="385.5" y="669.625"/>
      <point x="481.625" y="815.625"/>
      <point x="656.875" y="815.625" type="curve" smooth="yes"/>
      <point x="765.875" y="815.625"/>
      <point x="785.875" y="743.75"/>
      <point x="788.125" y="724.75" type="curve"/>
      <point x="1067.5" y="858.125" type="line"/>
      <point x="1023.375" y="1007.125"/>
      <point x="874.625" y="1095.75"/>
      <point x="687.125" y="1095.75" type="curve" smooth="yes"/>
      <point x="312.75" y="1095.75"/>
      <point x="40.875" y="806.875"/>
      <point x="40.875" y="420.75" type="curve" smooth="yes"/>
      <point x="40.875" y="171.5"/>
      <point x="158.0" y="-11.0"/>
      <point x="423.75" y="-11.0" type="curve" smooth="yes"/>
      <point x="662.375" y="-11.0"/>
      <point x="849.375" y="106.0"/>
    </contour>
  </outline>
</glyph>
<glyph name="d" format="2">
  <advance width="1195.0"/>
  <unicode hex="0064"/>
  <anchor x="429.698125" y="0.0" name="bottom"/>
  <anchor x="1058.0" y="1182.625" name="center"/>
  <anchor x="822.80875" y="1470.0" name="top"/>
  <anchor x="1269.625" y="1019.875" name="topright"/>
  <outline>
    <contour>
      <point x="649.25" y="3.0" type="curve"/>
      <point x="719.375" y="-4.125"/>
      <point x="894.25" y="-6.875"/>
      <point x="946.625" y="-6.875" type="curve"/>
      <point x="1080.875" y="508.5"/>
      <point x="1204.625" y="958.0"/>
      <point x="1361.0" y="1415.375" type="curve"/>
      <point x="1283.5" y="1437.375"/>
      <point x="1167.0" y="1447.25"/>
      <point x="1082.0" y="1447.25" type="curve"/>
      <point x="1051.75" y="1370.75"/>
      <point x="935.5" y="1045.5"/>
      <point x="882.625" y="849.375" type="curve"/>
      <point x="860.625" y="903.5"/>
      <point x="745.25" y="959.0"/>
      <point x="606.0" y="959.0" type="curve" smooth="yes"/>
      <point x="272.375" y="959.0"/>
      <point x="36.625" y="716.25"/>
      <point x="36.625" y="379.25" type="curve" smooth="yes"/>
      <point x="36.625" y="170.75"/>
      <point x="186.625" y="-1.625"/>
      <point x="372.875" y="-1.625" type="curve" smooth="yes"/>
      <point x="560.875" y="-1.625"/>
      <point x="637.0" y="80.75"/>
      <point x="678.75" y="130.375" type="curve"/>
      <point x="669.0" y="95.25"/>
      <point x="653.25" y="29.125"/>
    </contour>
    <contour>
      <point x="503.75" y="326.5" type="curve" smooth="yes"/>
      <point x="425.25" y="326.5"/>
      <point x="371.125" y="372.0"/>
      <point x="371.125" y="461.25" type="curve" smooth="yes"/>
      <point x="371.125" y="588.5"/>
      <point x="472.875" y="674.125"/>
      <point x="598.625" y="674.125" type="curve" smooth="yes"/>
      <point x="678.375" y="674.125"/>
      <point x="764.375" y="636.875"/>
      <point x="796.25" y="595.875" type="curve"/>
      <point x="785.125" y="559.25"/>
      <point x="762.125" y="477.75"/>
      <point x="748.0" y="426.75" type="curve"/>
      <point x="686.125" y="368.625"/>
      <point x="594.125" y="326.5"/>
    </contour>
  </outline>
</glyph>
<glyph name="e" format="2">
  <advance width="1119.125"/>
  <unicode hex="0065"/>
  <anchor x="405.625" y="10.0" name="bottom"/>
  <anchor x="669.75" y="22.375" name="ogonek"/>
  <anchor x="735.875" y="1063.0" name="top"/>
  <outline>
    <contour>
      <point x="975.25" y="166.25" type="curve"/>
      <point x="950.375" y="256.875"/>
      <point x="824.875" y="415.25"/>
      <point x="810.875" y="428.375" type="curve"/>
      <point x="723.0" y="361.875"/>
      <point x="646.625" y="318.0"/>
      <point x="547.375" y="318.0" type="curve" smooth="yes"/>
      <point x="456.5" y="318.0"/>
      <point x="385.5" y="356.75"/>
      <point x="385.5" y="432.625" type="curve" smooth="yes"/>
      <point x="385.5" y="456.25"/>
      <point x="388.625" y="471.5"/>
      <point x="393.875" y="484.0" type="curve"/>
      <point x="448.75" y="493.25"/>
      <point x="559.375" y="504.625"/>
      <point x="667.5" y="505.25" type="curve" smooth="yes"/>
      <point x="725.875" y="505.875"/>
      <point x="1008.0" y="501.75"/>
      <point x="1047.125" y="500.0" type="curve"/>
      <point x="1084.75" y="568.625"/>
      <point x="1105.375" y="657.125"/>
      <point x="1105.375" y="737.25" type="curve" smooth="yes"/>
      <point x="1105.375" y="944.625"/>
      <point x="966.875" y="1063.875"/>
      <point x="725.375" y="1063.875" type="curve" smooth="yes"/>
      <point x="339.375" y="1063.875"/>
      <point x="36.875" y="792.875"/>
      <point x="36.875" y="370.0" type="curve" smooth="yes"/>
      <point x="36.875" y="122.125"/>
      <point x="207.125" y="-10.625"/>
      <point x="465.25" y="-10.625" type="curve" smooth="yes"/>
      <point x="710.875" y="-10.625"/>
      <point x="869.875" y="69.625"/>
    </contour>
    <contour>
      <point x="460.125" y="688.25" type="curve"/>
      <point x="481.125" y="760.625"/>
      <point x="568.75" y="850.125"/>
      <point x="682.75" y="850.125" type="curve" smooth="yes"/>
      <point x="765.375" y="850.125"/>
      <point x="809.75" y="802.5"/>
      <point x="811.5" y="744.875" type="curve" smooth="yes"/>
      <point x="811.5" y="730.25"/>
      <point x="810.75" y="714.875"/>
      <point x="806.875" y="701.625" type="curve"/>
      <point x="790.625" y="702.5"/>
      <point x="734.375" y="703.875"/>
      <point x="679.0" y="703.5" type="curve" smooth="yes"/>
      <point x="581.375" y="702.875"/>
      <point x="502.625" y="694.875"/>
    </contour>
  </outline>
</glyph>
<glyph name="f" format="2">
  <advance width="896.0"/>
  <unicode hex="0066"/>
  <anchor x="305.585" y="0.0" name="bottom"/>
  <anchor x="699.47" y="1470.0" name="top"/>
  <outline>
    <contour>
      <point x="100.375" y="-12.875" type="curve"/>
      <point x="214.5" y="-12.75"/>
      <point x="396.75" y="-9.0"/>
      <point x="489.875" y="5.875" type="curve"/>
      <point x="493.375" y="62.5"/>
      <point x="522.875" y="409.0"/>
      <point x="531.625" y="488.5" type="curve"/>
      <point x="591.875" y="494.125"/>
      <point x="723.75" y="498.5"/>
      <point x="742.75" y="498.5" type="curve"/>
      <point x="766.375" y="583.875"/>
      <point x="795.125" y="704.375"/>
      <point x="806.625" y="782.875" type="curve"/>
      <point x="765.125" y="788.125"/>
      <point x="634.5" y="791.625"/>
      <point x="573.0" y="790.375" type="curve"/>
      <point x="574.375" y="814.625"/>
      <point x="578.625" y="847.875"/>
      <point x="585.375" y="873.5" type="curve" smooth="yes"/>
      <point x="605.875" y="952.25"/>
      <point x="655.625" y="1012.125"/>
      <point x="736.0" y="1012.125" type="curve" smooth="yes"/>
      <point x="790.375" y="1012.125"/>
      <point x="829.375" y="962.0"/>
      <point x="850.0" y="916.5" type="curve"/>
      <point x="891.0" y="958.25"/>
      <point x="1028.25" y="1112.125"/>
      <point x="1099.25" y="1199.625" type="curve"/>
      <point x="1079.25" y="1252.75"/>
      <point x="1004.625" y="1358.375"/>
      <point x="776.375" y="1358.375" type="curve" smooth="yes"/>
      <point x="492.625" y="1358.375"/>
      <point x="307.375" y="1137.625"/>
      <point x="243.25" y="901.125" type="curve" smooth="yes"/>
      <point x="229.125" y="848.625"/>
      <point x="218.875" y="793.0"/>
      <point x="212.0" y="738.75" type="curve"/>
      <point x="184.75" y="733.75"/>
      <point x="106.5" y="714.125"/>
      <point x="79.375" y="705.0" type="curve"/>
      <point x="54.0" y="617.375"/>
      <point x="33.875" y="471.875"/>
      <point x="33.75" y="401.875" type="curve"/>
      <point x="78.75" y="416.875"/>
      <point x="137.5" y="432.125"/>
      <point x="161.5" y="436.25" type="curve"/>
      <point x="144.375" y="319.875"/>
      <point x="102.25" y="5.25"/>
    </contour>
  </outline>
</glyph>
<glyph name="g" format="2">
  <advance width="1231.0"/>
  <unicode hex="0067"/>
  <anchor x="331.572" y="-530.0" name="bottom"/>
  <anchor x="758.415" y="1063.0" name="top"/>
  <outline>
    <contour>
      <point x="616.25" y="265.375" type="curve" smooth="yes"/>
      <point x="929.25" y="265.375"/>
      <point x="1171.875" y="434.5"/>
      <point x="1171.875" y="737.75" type="curve" smooth="yes"/>
      <point x="1171.875" y="775.5"/>
      <point x="1166.625" y="809.625"/>
      <point x="1156.25" y="840.875" type="curve"/>
      <point x="1207.125" y="900.125"/>
      <point x="1281.5" y="944.875"/>
      <point x="1341.25" y="969.875" type="curve"/>
      <point x="1312.625" y="1024.625"/>
      <point x="1261.75" y="1139.5"/>
      <point x="1243.0" y="1185.375" type="curve"/>
      <point x="1165.375" y="1154.375"/>
      <point x="1061.75" y="1078.0"/>
      <point x="1002.875" y="1008.75" type="curve"/>
      <point x="938.5" y="1039.625"/>
      <point x="852.875" y="1056.0"/>
      <point x="746.25" y="1056.0" type="curve" smooth="yes"/>
      <point x="418.875" y="1056.0"/>
      <point x="136.875" y="910.125"/>
      <point x="136.875" y="596.625" type="curve" smooth="yes"/>
      <point x="136.875" y="530.625"/>
      <point x="151.875" y="466.375"/>
      <point x="191.375" y="412.125" type="curve"/>
      <point x="117.875" y="377.625"/>
      <point x="51.5" y="301.25"/>
      <point x="51.5" y="224.375" type="curve" smooth="yes"/>
      <point x="51.5" y="182.5"/>
      <point x="74.125" y="145.375"/>
      <point x="132.375" y="114.375" type="curve"/>
      <point x="-19.375" y="50.875"/>
      <point x="-131.125" y="-59.25"/>
      <point x="-131.125" y="-215.125" type="curve" smooth="yes"/>
      <point x="-131.125" y="-428.75"/>
      <point x="69.5" y="-499.0"/>
      <point x="369.0" y="-499.0" type="curve" smooth="yes"/>
      <point x="710.875" y="-499.0"/>
      <point x="1006.375" y="-376.875"/>
      <point x="1006.375" y="-56.25" type="curve" smooth="yes"/>
      <point x="1006.375" y="108.25"/>
      <point x="895.0" y="190.125"/>
      <point x="705.625" y="190.125" type="curve" smooth="yes"/>
      <point x="569.875" y="190.125"/>
      <point x="506.75" y="186.625"/>
      <point x="424.375" y="181.375" type="curve" smooth="yes"/>
      <point x="361.75" y="181.375"/>
      <point x="332.25" y="207.0"/>
      <point x="332.25" y="236.375" type="curve" smooth="yes"/>
      <point x="332.25" y="257.625"/>
      <point x="349.25" y="280.25"/>
      <point x="380.25" y="297.375" type="curve"/>
      <point x="442.375" y="277.625"/>
      <point x="520.375" y="265.375"/>
    </contour>
    <contour>
      <point x="418.375" y="-284.625" type="curve" smooth="yes"/>
      <point x="296.5" y="-284.625"/>
      <point x="222.625" y="-248.25"/>
      <point x="222.625" y="-185.625" type="curve" smooth="yes"/>
      <point x="222.625" y="-106.75"/>
      <point x="286.625" y="-67.125"/>
      <point x="374.375" y="-67.125" type="curve" smooth="yes"/>
      <point x="541.375" y="-67.125" type="line" smooth="yes"/>
      <point x="605.875" y="-67.125"/>
      <point x="661.5" y="-86.25"/>
      <point x="661.5" y="-141.875" type="curve" smooth="yes"/>
      <point x="661.5" y="-241.0"/>
      <point x="541.125" y="-284.625"/>
    </contour>
    <contour>
      <point x="648.75" y="530.5" type="curve" smooth="yes"/>
      <point x="561.625" y="530.5"/>
      <point x="500.625" y="568.125"/>
      <point x="500.625" y="642.375" type="curve" smooth="yes"/>
      <point x="500.625" y="756.5"/>
      <point x="612.25" y="799.0"/>
      <point x="714.75" y="799.0" type="curve" smooth="yes"/>
      <point x="791.875" y="799.0"/>
      <point x="848.25" y="753.375"/>
      <point x="848.25" y="681.0" type="curve" smooth="yes"/>
      <point x="848.25" y="575.0"/>
      <point x="756.5" y="530.5"/>
    </contour>
  </outline>
</glyph>
<glyph name="h" format="2">
  <advance width="1123.0"/>
  <unicode hex="0068"/>
  <anchor x="414.636875" y="0.0" name="bottom"/>
  <anchor x="521.625" y="1198.5" name="center"/>
  <anchor x="440.5" y="1410.25" name="top"/>
  <outline>
    <contour>
      <point x="270.5" y="-8.0" type="curve"/>
      <point x="315.5" y="92.375"/>
      <point x="385.375" y="301.75"/>
      <point x="441.375" y="503.625" type="curve"/>
      <point x="492.875" y="554.75"/>
      <point x="575.375" y="610.875"/>
      <point x="655.125" y="610.875" type="curve" smooth="yes"/>
      <point x="706.625" y="610.875"/>
      <point x="731.375" y="575.875"/>
      <point x="731.375" y="528.25" type="curve" smooth="yes"/>
      <point x="731.375" y="443.0"/>
      <point x="606.625" y="132.125"/>
      <point x="551.875" y="6.5" type="curve"/>
      <point x="598.625" y="-3.375"/>
      <point x="657.0" y="-8.875"/>
      <point x="717.125" y="-8.875" type="curve" smooth="yes"/>
      <point x="772.0" y="-8.875"/>
      <point x="828.625" y="-4.5"/>
      <point x="882.875" y="4.375" type="curve"/>
      <point x="966.875" y="192.375"/>
      <point x="1095.875" y="543.0"/>
      <point x="1095.875" y="704.0" type="curve" smooth="yes"/>
      <point x="1095.875" y="841.5"/>
      <point x="1024.375" y="912.5"/>
      <point x="861.375" y="912.5" type="curve" smooth="yes"/>
      <point x="745.375" y="912.5"/>
      <point x="607.375" y="862.75"/>
      <point x="522.5" y="791.25" type="curve"/>
      <point x="586.75" y="1061.5"/>
      <point x="625.5" y="1292.0"/>
      <point x="634.625" y="1443.0" type="curve"/>
      <point x="569.625" y="1442.75"/>
      <point x="319.625" y="1408.25"/>
      <point x="297.75" y="1401.25" type="curve"/>
      <point x="252.625" y="1181.5"/>
      <point x="188.375" y="876.0"/>
      <point x="114.5" y="601.75" type="curve" smooth="yes"/>
      <point x="45.75" y="345.625"/>
      <point x="-31.375" y="113.875"/>
      <point x="-75.75" y="-0.625" type="curve"/>
      <point x="-47.625" y="-13.0"/>
      <point x="23.0" y="-17.625"/>
      <point x="101.375" y="-17.625" type="curve" smooth="yes"/>
      <point x="167.5" y="-17.625"/>
      <point x="234.625" y="-14.125"/>
    </contour>
  </outline>
</glyph>
<glyph name="i" format="2">
  <advance width="610.0"/>
  <unicode hex="0069"/>
  <anchor x="164.5" y="0.0" name="bottom"/>
  <outline>
    <contour>
      <point x="309.875" y="2.25" type="curve"/>
      <point x="354.375" y="84.25"/>
      <point x="456.375" y="404.0"/>
      <point x="520.75" y="645.625" type="curve" smooth="yes"/>
      <point x="552.875" y="765.75"/>
      <point x="575.875" y="878.5"/>
      <point x="579.375" y="924.0" type="curve"/>
      <point x="498.875" y="924.0"/>
      <point x="327.375" y="914.875"/>
      <point x="248.5" y="907.625" type="curve"/>
      <point x="187.75" y="700.25"/>
      <point x="-9.875" y="91.125"/>
      <point x="-47.875" y="4.125" type="curve"/>
      <point x="7.625" y="-3.125"/>
      <point x="66.5" y="-6.0"/>
      <point x="122.75" y="-6.0" type="curve" smooth="yes"/>
      <point x="202.25" y="-6.0"/>
      <point x="285.625" y="0.25"/>
    </contour>
    <contour>
      <point x="465.5" y="1034.375" type="curve" smooth="yes"/>
      <point x="602.875" y="1034.375"/>
      <point x="721.0" y="1152.25"/>
      <point x="721.0" y="1286.625" type="curve" smooth="yes"/>
      <point x="721.0" y="1377.0"/>
      <point x="647.75" y="1444.625"/>
      <point x="547.5" y="1444.625" type="curve" smooth="yes"/>
      <point x="402.5" y="1444.625"/>
      <point x="271.75" y="1334.375"/>
      <point x="271.75" y="1186.875" type="curve" smooth="yes"/>
      <point x="271.75" y="1092.375"/>
      <point x="355.625" y="1034.375"/>
    </contour>
  </outline>
</glyph>
<glyph name="j" format="2">
  <advance width="703.625"/>
  <unicode hex="006A"/>
  <outline>
    <contour>
      <point x="535.75" y="224.875" type="curve" smooth="yes"/>
      <point x="597.625" y="472.0"/>
      <point x="621.625" y="782.625"/>
      <point x="623.875" y="880.125" type="curve"/>
      <point x="242.625" y="862.5" type="line"/>
      <point x="238.625" y="684.625"/>
      <point x="190.625" y="391.875"/>
      <point x="135.375" y="183.25" type="curve" smooth="yes"/>
      <point x="91.875" y="20.125"/>
      <point x="25.25" y="-202.0"/>
      <point x="-80.875" y="-202.0" type="curve" smooth="yes"/>
      <point x="-153.25" y="-202.0"/>
      <point x="-186.25" y="-136.75"/>
      <point x="-187.875" y="-60.0" type="curve"/>
      <point x="-282.25" y="-86.25"/>
      <point x="-431.25" y="-146.625"/>
      <point x="-542.5" y="-211.875" type="curve"/>
      <point x="-538.5" y="-390.375"/>
      <point x="-361.375" y="-513.375"/>
      <point x="-137.375" y="-513.375" type="curve" smooth="yes"/>
      <point x="217.875" y="-513.375"/>
      <point x="413.0" y="-267.125"/>
    </contour>
    <contour>
      <point x="499.625" y="1424.875" type="curve" smooth="yes"/>
      <point x="349.75" y="1424.875"/>
      <point x="215.875" y="1300.625"/>
      <point x="215.875" y="1157.25" type="curve" smooth="yes"/>
      <point x="215.875" y="1061.875"/>
      <point x="296.625" y="983.75"/>
      <point x="415.75" y="983.75" type="curve" smooth="yes"/>
      <point x="556.875" y="983.75"/>
      <point x="707.25" y="1100.625"/>
      <point x="707.25" y="1242.0" type="curve" smooth="yes"/>
      <point x="707.25" y="1334.375"/>
      <point x="632.5" y="1424.875"/>
    </contour>
  </outline>
</glyph>
<glyph name="k" format="2">
  <advance width="1156.0"/>
  <unicode hex="006B"/>
  <anchor x="438.136875" y="0.0" name="bottom"/>
  <anchor x="831.91125" y="1470.0" name="top"/>
  <outline>
    <contour>
      <point x="689.75" y="-54.125" type="curve"/>
      <point x="756.0" y="-38.375"/>
      <point x="994.625" y="45.5"/>
      <point x="1046.5" y="73.25" type="curve"/>
      <point x="979.625" y="271.875"/>
      <point x="856.5" y="458.75"/>
      <point x="781.0" y="518.0" type="curve"/>
      <point x="863.0" y="568.375"/>
      <point x="1086.75" y="695.625"/>
      <point x="1216.75" y="767.5" type="curve"/>
      <point x="1195.0" y="834.375"/>
      <point x="1116.25" y="986.875"/>
      <point x="1065.5" y="1029.125" type="curve"/>
      <point x="897.125" y="941.125"/>
      <point x="641.875" y="805.625"/>
      <point x="509.375" y="682.75" type="curve"/>
      <point x="553.875" y="809.25"/>
      <point x="659.625" y="1162.125"/>
      <point x="735.75" y="1430.25" type="curve"/>
      <point x="682.5" y="1447.875"/>
      <point x="616.75" y="1455.0"/>
      <point x="545.625" y="1455.0" type="curve" smooth="yes"/>
      <point x="497.125" y="1455.0"/>
      <point x="446.0" y="1451.5"/>
      <point x="395.125" y="1447.125" type="curve"/>
      <point x="335.625" y="1261.875"/>
      <point x="13.375" y="228.25"/>
      <point x="-63.375" y="-20.5" type="curve"/>
      <point x="-18.625" y="-26.125"/>
      <point x="45.5" y="-31.625"/>
      <point x="119.0" y="-31.625" type="curve" smooth="yes"/>
      <point x="171.875" y="-31.625"/>
      <point x="229.75" y="-28.75"/>
      <point x="287.75" y="-22.375" type="curve"/>
      <point x="307.625" y="34.5"/>
      <point x="347.875" y="155.875"/>
      <point x="381.0" y="271.0" type="curve"/>
      <point x="394.75" y="280.125"/>
      <point x="472.5" y="326.375"/>
      <point x="500.875" y="341.875" type="curve"/>
      <point x="578.25" y="297.625"/>
      <point x="673.375" y="38.125"/>
    </contour>
  </outline>
</glyph>
<glyph name="l" format="2">
  <advance width="645.0"/>
  <unicode hex="006C"/>
  <anchor x="165.585" y="0.0" name="bottom"/>
  <anchor x="362.528" y="735.0" name="center"/>
  <anchor x="559.47" y="1470.0" name="top"/>
  <anchor x="613.875" y="1036.625" name="topright"/>
  <outline>
    <contour>
      <point x="552.375" y="40.875" type="curve"/>
      <point x="548.375" y="68.375"/>
      <point x="515.0" y="285.625"/>
      <point x="506.5" y="321.0" type="curve"/>
      <point x="480.0" y="291.0"/>
      <point x="448.125" y="271.5"/>
      <point x="404.625" y="271.5" type="curve" smooth="yes"/>
      <point x="368.375" y="271.5"/>
      <point x="356.0" y="296.875"/>
      <point x="356.0" y="338.125" type="curve" smooth="yes"/>
      <point x="356.0" y="461.625"/>
      <point x="489.125" y="866.375"/>
      <point x="680.375" y="1426.0" type="curve"/>
      <point x="612.375" y="1431.625"/>
      <point x="559.5" y="1434.5"/>
      <point x="502.875" y="1434.5" type="curve" smooth="yes"/>
      <point x="461.25" y="1434.5"/>
      <point x="407.625" y="1432.625"/>
      <point x="353.75" y="1429.0" type="curve"/>
      <point x="242.5" y="1100.0"/>
      <point x="7.0" y="399.875"/>
      <point x="7.0" y="166.5" type="curve" smooth="yes"/>
      <point x="7.0" y="34.5"/>
      <point x="92.0" y="-41.625"/>
      <point x="257.0" y="-41.625" type="curve" smooth="yes"/>
      <point x="387.0" y="-41.625"/>
      <point x="501.375" y="3.25"/>
    </contour>
  </outline>
</glyph>
<glyph name="m" format="2">
  <advance width="1858.0"/>
  <unicode hex="006D"/>
  <anchor x="786.585" y="0.0" name="bottom"/>
  <anchor x="1071.415" y="1063.0" name="top"/>
  <outline>
    <contour>
      <point x="-20.75" y="-7.375" type="curve"/>
      <point x="20.375" y="-12.25"/>
      <point x="126.375" y="-16.875"/>
      <point x="222.25" y="-16.875" type="curve" smooth="yes"/>
      <point x="260.5" y="-16.875"/>
      <point x="325.125" y="-14.875"/>
      <point x="341.125" y="-13.875" type="curve"/>
      <point x="345.25" y="12.875"/>
      <point x="398.0" y="272.0"/>
      <point x="471.125" y="591.125" type="curve"/>
      <point x="515.5" y="669.25"/>
      <point x="623.5" y="745.5"/>
      <point x="714.375" y="745.5" type="curve" smooth="yes"/>
      <point x="778.375" y="745.5"/>
      <point x="804.0" y="705.375"/>
      <point x="804.0" y="628.25" type="curve" smooth="yes"/>
      <point x="804.0" y="511.5"/>
      <point x="731.75" y="236.25"/>
      <point x="665.0" y="-7.0" type="curve"/>
      <point x="691.125" y="-11.0"/>
      <point x="763.875" y="-13.0"/>
      <point x="834.875" y="-13.0" type="curve" smooth="yes"/>
      <point x="894.25" y="-13.0"/>
      <point x="953.375" y="-11.0"/>
      <point x="983.25" y="-9.0" type="curve"/>
      <point x="1007.875" y="77.875"/>
      <point x="1032.0" y="161.25"/>
      <point x="1056.0" y="237.75" type="curve" smooth="yes"/>
      <point x="1144.0" y="522.625"/>
      <point x="1236.625" y="738.125"/>
      <point x="1399.0" y="738.125" type="curve" smooth="yes"/>
      <point x="1453.25" y="738.125"/>
      <point x="1477.125" y="703.375"/>
      <point x="1477.125" y="638.5" type="curve" smooth="yes"/>
      <point x="1477.125" y="498.5"/>
      <point x="1365.0" y="212.875"/>
      <point x="1272.875" y="-7.375" type="curve"/>
      <point x="1330.875" y="-12.875"/>
      <point x="1390.875" y="-14.75"/>
      <point x="1451.0" y="-14.75" type="curve" smooth="yes"/>
      <point x="1507.25" y="-14.75"/>
      <point x="1567.75" y="-12.75"/>
      <point x="1623.0" y="-9.625" type="curve"/>
      <point x="1716.875" y="282.0"/>
      <point x="1808.375" y="573.625"/>
      <point x="1808.375" y="763.5" type="curve" smooth="yes"/>
      <point x="1808.375" y="948.875"/>
      <point x="1715.125" y="1044.375"/>
      <point x="1502.375" y="1044.375" type="curve" smooth="yes"/>
      <point x="1315.0" y="1044.375"/>
      <point x="1150.5" y="911.75"/>
      <point x="1067.875" y="783.125" type="curve"/>
      <point x="1070.0" y="811.125"/>
      <point x="1071.5" y="841.625"/>
      <point x="1067.125" y="869.875" type="curve" smooth="yes"/>
      <point x="1051.375" y="958.5"/>
      <point x="993.0" y="1037.875"/>
      <point x="862.625" y="1037.875" type="curve" smooth="yes"/>
      <point x="681.0" y="1037.875"/>
      <point x="559.0" y="919.375"/>
      <point x="531.125" y="871.125" type="curve"/>
      <point x="538.125" y="899.625"/>
      <point x="558.0" y="981.875"/>
      <point x="569.875" y="1027.0" type="curve"/>
      <point x="495.75" y="1026.875"/>
      <point x="292.125" y="1004.75"/>
      <point x="216.25" y="986.25" type="curve"/>
      <point x="166.5" y="800.5"/>
      <point x="18.5" y="199.125"/>
    </contour>
  </outline>
</glyph>
<glyph name="n" format="2">
  <advance width="1330.0"/>
  <unicode hex="006E"/>
  <anchor x="522.585" y="0.0" name="bottom"/>
  <anchor x="807.415" y="1063.0" name="top"/>
  <outline>
    <contour>
      <point x="326.5" y="-13.75" type="curve"/>
      <point x="371.25" y="98.25"/>
      <point x="450.25" y="314.625"/>
      <point x="534.625" y="623.625" type="curve"/>
      <point x="610.375" y="680.0"/>
      <point x="727.25" y="740.75"/>
      <point x="825.375" y="740.75" type="curve" smooth="yes"/>
      <point x="912.375" y="740.75"/>
      <point x="944.25" y="698.875"/>
      <point x="944.25" y="628.5" type="curve" smooth="yes"/>
      <point x="944.25" y="489.75"/>
      <point x="803.75" y="143.875"/>
      <point x="732.0" y="-3.0" type="curve"/>
      <point x="762.0" y="-6.125"/>
      <point x="838.0" y="-8.125"/>
      <point x="914.625" y="-8.125" type="curve" smooth="yes"/>
      <point x="985.5" y="-8.125"/>
      <point x="1056.125" y="-6.0"/>
      <point x="1088.125" y="-3.0" type="curve"/>
      <point x="1184.625" y="244.375"/>
      <point x="1308.625" y="624.75"/>
      <point x="1308.625" y="812.75" type="curve" smooth="yes"/>
      <point x="1308.625" y="977.875"/>
      <point x="1229.625" y="1060.0"/>
      <point x="1026.5" y="1060.0" type="curve" smooth="yes"/>
      <point x="862.875" y="1060.0"/>
      <point x="672.75" y="956.625"/>
      <point x="610.75" y="882.875" type="curve"/>
      <point x="625.5" y="931.375"/>
      <point x="649.125" y="1017.25"/>
      <point x="653.0" y="1035.125" type="curve"/>
      <point x="615.25" y="1041.5"/>
      <point x="561.75" y="1044.125"/>
      <point x="506.125" y="1044.125" type="curve" smooth="yes"/>
      <point x="427.875" y="1044.125"/>
      <point x="343.125" y="1039.375"/>
      <point x="284.375" y="1032.0" type="curve"/>
      <point x="162.75" y="579.0"/>
      <point x="58.75" y="218.375"/>
      <point x="-24.75" y="-3.875" type="curve"/>
      <point x="1.25" y="-6.75"/>
      <point x="87.625" y="-10.5"/>
      <point x="141.625" y="-12.25" type="curve" smooth="yes"/>
      <point x="209.625" y="-14.0"/>
      <point x="280.375" y="-13.875"/>
    </contour>
  </outline>
</glyph>
<glyph name="o" format="2">
  <advance width="1170.25"/>
  <unicode hex="006F"/>
  <anchor x="433.875" y="0.0" name="bottom"/>
  <anchor x="575.875" y="532.0" name="center"/>
  <anchor x="627.25" y="0.0" name="ogonek"/>
  <anchor x="717.875" y="1063.0" name="top"/>
  <anchor x="976.0" y="941.0" name="topright"/>
  <outline>
    <contour>
      <point x="485.0" y="-19.75" type="curve" smooth="yes"/>
      <point x="875.5" y="-19.75"/>
      <point x="1114.25" y="250.75"/>
      <point x="1114.25" y="653.375" type="curve" smooth="yes"/>
      <point x="1114.25" y="901.5"/>
      <point x="996.875" y="1060.375"/>
      <point x="712.75" y="1060.375" type="curve" smooth="yes"/>
      <point x="314.875" y="1060.375"/>
      <point x="43.625" y="781.0"/>
      <point x="43.625" y="370.625" type="curve" smooth="yes"/>
      <point x="43.625" y="125.125"/>
      <point x="188.75" y="-19.75"/>
    </contour>
    <contour>
      <point x="532.875" y="303.25" type="curve" smooth="yes"/>
      <point x="438.375" y="303.25"/>
      <point x="393.25" y="373.875"/>
      <point x="393.25" y="472.0" type="curve" smooth="yes"/>
      <point x="393.25" y="638.375"/>
      <point x="491.875" y="801.625"/>
      <point x="654.0" y="801.625" type="curve" smooth="yes"/>
      <point x="756.75" y="801.625"/>
      <point x="796.875" y="721.375"/>
      <point x="796.875" y="622.5" type="curve" smooth="yes"/>
      <point x="796.875" y="453.125"/>
      <point x="704.875" y="303.25"/>
    </contour>
  </outline>
</glyph>
<glyph name="p" format="2">
  <advance width="1225.25"/>
  <unicode hex="0070"/>
  <anchor x="457.585" y="0.0" name="bottom"/>
  <anchor x="742.415" y="1063.0" name="top"/>
  <outline>
    <contour>
      <point x="-215.75" y="-451.75" type="curve"/>
      <point x="-145.375" y="-451.75"/>
      <point x="8.875" y="-445.375"/>
      <point x="134.625" y="-421.75" type="curve"/>
      <point x="177.5" y="-304.375"/>
      <point x="302.375" y="80.625"/>
      <point x="325.25" y="165.0" type="curve"/>
      <point x="347.25" y="119.5"/>
      <point x="474.375" y="59.375"/>
      <point x="595.375" y="59.375" type="curve" smooth="yes"/>
      <point x="962.875" y="59.375"/>
      <point x="1200.25" y="345.125"/>
      <point x="1200.25" y="701.0" type="curve" smooth="yes"/>
      <point x="1200.25" y="918.375"/>
      <point x="1114.125" y="1070.125"/>
      <point x="888.5" y="1070.125" type="curve" smooth="yes"/>
      <point x="702.875" y="1070.125"/>
      <point x="587.75" y="964.125"/>
      <point x="541.125" y="914.875" type="curve"/>
      <point x="554.375" y="962.875"/>
      <point x="567.0" y="1023.75"/>
      <point x="574.625" y="1070.5" type="curve"/>
      <point x="461.75" y="1070.5"/>
      <point x="330.5" y="1058.625"/>
      <point x="229.5" y="1029.125" type="curve"/>
      <point x="183.75" y="858.375"/>
      <point x="-30.125" y="107.25"/>
    </contour>
    <contour>
      <point x="615.375" y="407.625" type="curve" smooth="yes"/>
      <point x="494.125" y="407.625"/>
      <point x="450.0" y="460.125"/>
      <point x="426.25" y="494.5" type="curve"/>
      <point x="436.375" y="524.25"/>
      <point x="471.875" y="646.75"/>
      <point x="480.75" y="679.5" type="curve"/>
      <point x="528.5" y="724.5"/>
      <point x="610.625" y="782.125"/>
      <point x="726.625" y="782.125" type="curve" smooth="yes"/>
      <point x="831.875" y="782.125"/>
      <point x="860.625" y="732.0"/>
      <point x="860.625" y="648.75" type="curve" smooth="yes"/>
      <point x="860.625" y="497.25"/>
      <point x="766.125" y="407.625"/>
    </contour>
  </outline>
</glyph>
<glyph name="q" format="2">
  <advance width="1207.0"/>
  <unicode hex="0071"/>
  <anchor x="461.585" y="0.0" name="bottom"/>
  <anchor x="746.415" y="1063.0" name="top"/>
  <outline>
    <contour>
      <point x="859.625" y="-460.875" type="curve"/>
      <point x="877.375" y="-342.25"/>
      <point x="917.75" y="-100.75"/>
      <point x="979.625" y="131.375" type="curve" smooth="yes"/>
      <point x="1057.0" y="422.25"/>
      <point x="1174.25" y="780.875"/>
      <point x="1281.25" y="1046.625" type="curve"/>
      <point x="1175.875" y="1075.25"/>
      <point x="1079.25" y="1089.0"/>
      <point x="976.375" y="1089.25" type="curve"/>
      <point x="966.375" y="1067.875"/>
      <point x="932.125" y="988.625"/>
      <point x="920.5" y="946.25" type="curve"/>
      <point x="848.125" y="1030.125"/>
      <point x="751.375" y="1084.25"/>
      <point x="599.625" y="1084.25" type="curve" smooth="yes"/>
      <point x="253.625" y="1084.25"/>
      <point x="66.0" y="788.125"/>
      <point x="66.0" y="404.0" type="curve" smooth="yes"/>
      <point x="66.0" y="173.5"/>
      <point x="164.5" y="3.5"/>
      <point x="403.125" y="3.5" type="curve" smooth="yes"/>
      <point x="533.125" y="3.5"/>
      <point x="623.0" y="53.875"/>
      <point x="656.125" y="92.625" type="curve"/>
      <point x="604.375" y="-100.125"/>
      <point x="564.75" y="-273.625"/>
      <point x="538.375" y="-445.125" type="curve"/>
      <point x="612.25" y="-452.625"/>
      <point x="719.25" y="-460.875"/>
    </contour>
    <contour>
      <point x="534.875" y="357.0" type="curve" smooth="yes"/>
      <point x="444.625" y="357.0"/>
      <point x="401.875" y="409.0"/>
      <point x="401.875" y="491.25" type="curve" smooth="yes"/>
      <point x="401.875" y="629.375"/>
      <point x="489.5" y="758.0"/>
      <point x="628.125" y="758.0" type="curve" smooth="yes"/>
      <point x="725.875" y="758.0"/>
      <point x="801.25" y="693.25"/>
      <point x="825.375" y="670.875" type="curve"/>
      <point x="800.875" y="599.375"/>
      <point x="763.25" y="485.75"/>
      <point x="741.875" y="414.125" type="curve"/>
      <point x="702.5" y="391.75"/>
      <point x="616.625" y="357.0"/>
    </contour>
  </outline>
</glyph>
<glyph name="r" format="2">
  <advance width="853.0"/>
  <unicode hex="0072"/>
  <anchor x="293.698125" y="0.0" name="bottom"/>
  <anchor x="577.801875" y="1063.0" name="top"/>
  <outline>
    <contour>
      <point x="474.0" y="898.875" type="curve"/>
      <point x="476.0" y="938.125"/>
      <point x="477.75" y="1025.75"/>
      <point x="477.75" y="1071.5" type="curve"/>
      <point x="449.25" y="1069.625"/>
      <point x="284.625" y="1042.625"/>
      <point x="167.5" y="1012.125" type="curve"/>
      <point x="161.375" y="810.25"/>
      <point x="53.125" y="271.25"/>
      <point x="-17.75" y="-6.75" type="curve"/>
      <point x="109.5" y="-7.125"/>
      <point x="256.0" y="-3.75"/>
      <point x="366.125" y="10.25" type="curve"/>
      <point x="389.875" y="100.75"/>
      <point x="441.0" y="455.25"/>
      <point x="455.75" y="602.375" type="curve"/>
      <point x="527.125" y="672.0"/>
      <point x="611.75" y="715.75"/>
      <point x="697.125" y="715.75" type="curve" smooth="yes"/>
      <point x="752.5" y="715.75"/>
      <point x="794.0" y="697.5"/>
      <point x="819.625" y="686.0" type="curve"/>
      <point x="984.875" y="1043.0" type="line"/>
      <point x="963.75" y="1061.0"/>
      <point x="889.5" y="1076.625"/>
      <point x="827.75" y="1076.625" type="curve" smooth="yes"/>
      <point x="679.875" y="1076.625"/>
      <point x="537.875" y="985.25"/>
    </contour>
  </outline>
</glyph>
<glyph name="s" format="2">
  <advance width="988.875"/>
  <unicode hex="0073"/>
  <anchor x="337.375" y="-68.75" name="bottom"/>
  <anchor x="643.0" y="1120.75" name="top"/>
  <outline>
    <contour>
      <point x="362.25" y="-77.875" type="curve" smooth="yes"/>
      <point x="640.875" y="-77.875"/>
      <point x="901.625" y="74.0"/>
      <point x="901.625" y="341.125" type="curve" smooth="yes"/>
      <point x="901.625" y="513.375"/>
      <point x="761.125" y="619.125"/>
      <point x="647.75" y="671.75" type="curve" smooth="yes"/>
      <point x="552.625" y="717.0"/>
      <point x="507.25" y="746.125"/>
      <point x="507.25" y="787.875" type="curve" smooth="yes"/>
      <point x="507.25" y="849.5"/>
      <point x="586.625" y="867.125"/>
      <point x="646.125" y="867.125" type="curve" smooth="yes"/>
      <point x="721.375" y="867.125"/>
      <point x="801.875" y="812.75"/>
      <point x="840.375" y="764.375" type="curve"/>
      <point x="933.0" y="847.625"/>
      <point x="1030.5" y="970.875"/>
      <point x="1054.5" y="1012.125" type="curve"/>
      <point x="978.375" y="1078.5"/>
      <point x="828.5" y="1125.375"/>
      <point x="669.75" y="1125.375" type="curve" smooth="yes"/>
      <point x="421.625" y="1125.375"/>
      <point x="182.75" y="1007.25"/>
      <point x="182.75" y="759.125" type="curve" smooth="yes"/>
      <point x="182.75" y="612.375"/>
      <point x="273.75" y="517.625"/>
      <point x="398.375" y="456.375" type="curve" smooth="yes"/>
      <point x="488.875" y="412.5"/>
      <point x="564.0" y="368.5"/>
      <point x="564.0" y="311.875" type="curve" smooth="yes"/>
      <point x="564.0" y="246.125"/>
      <point x="500.625" y="218.125"/>
      <point x="435.625" y="218.125" type="curve" smooth="yes"/>
      <point x="343.25" y="218.125"/>
      <point x="240.625" y="301.125"/>
      <point x="163.875" y="380.625" type="curve"/>
      <point x="96.125" y="326.25"/>
      <point x="-56.75" y="130.125"/>
      <point x="-85.375" y="78.125" type="curve"/>
      <point x="-50.625" y="29.5"/>
      <point x="107.375" y="-77.875"/>
    </contour>
  </outline>
</glyph>
<glyph name="t" format="2">
  <advance width="964.0"/>
  <unicode hex="0074"/>
  <anchor x="463.375" y="-50.5" name="bottom"/>
  <anchor x="459.5" y="532.0" name="center"/>
  <anchor x="630.125" y="1422.875" name="top"/>
  <anchor x="840.75" y="1352.25" name="topright"/>
  <outline>
    <contour>
      <point x="819.5" y="86.125" type="curve"/>
      <point x="809.375" y="111.0"/>
      <point x="729.125" y="315.25"/>
      <point x="712.875" y="342.0" type="curve"/>
      <point x="681.75" y="306.5"/>
      <point x="636.25" y="258.0"/>
      <point x="580.625" y="258.0" type="curve" smooth="yes"/>
      <point x="531.375" y="258.0"/>
      <point x="522.25" y="286.375"/>
      <point x="522.25" y="335.125" type="curve" smooth="yes"/>
      <point x="522.25" y="426.5"/>
      <point x="597.375" y="688.0"/>
      <point x="654.875" y="849.125" type="curve"/>
      <point x="698.0" y="852.25"/>
      <point x="757.625" y="857.0"/>
      <point x="803.625" y="860.5" type="curve" smooth="yes"/>
      <point x="872.625" y="865.75"/>
      <point x="962.625" y="869.375"/>
      <point x="975.625" y="869.25" type="curve"/>
      <point x="998.75" y="953.625"/>
      <point x="1027.875" y="1072.625"/>
      <point x="1037.5" y="1145.625" type="curve"/>
      <point x="1022.5" y="1145.75"/>
      <point x="969.625" y="1146.375"/>
      <point x="887.625" y="1142.0" type="curve" smooth="yes"/>
      <point x="852.375" y="1140.25"/>
      <point x="782.375" y="1136.375"/>
      <point x="737.5" y="1134.375" type="curve"/>
      <point x="750.25" y="1190.25"/>
      <point x="763.0" y="1240.75"/>
      <point x="774.0" y="1282.5" type="curve" smooth="yes"/>
      <point x="794.125" y="1357.375"/>
      <point x="810.875" y="1420.0"/>
      <point x="814.375" y="1433.625" type="curve"/>
      <point x="480.125" y="1401.875" type="line"/>
      <point x="474.75" y="1374.5"/>
      <point x="462.5" y="1319.75"/>
      <point x="451.625" y="1272.375" type="curve" smooth="yes"/>
      <point x="440.125" y="1222.0"/>
      <point x="427.25" y="1169.0"/>
      <point x="414.375" y="1118.5" type="curve"/>
      <point x="316.375" y="1114.125"/>
      <point x="232.125" y="1106.5"/>
      <point x="151.0" y="1097.125" type="curve"/>
      <point x="145.125" y="1075.625"/>
      <point x="109.125" y="923.625"/>
      <point x="98.625" y="795.875" type="curve"/>
      <point x="136.375" y="803.625"/>
      <point x="238.875" y="817.75"/>
      <point x="337.75" y="827.5" type="curve"/>
      <point x="276.25" y="658.875"/>
      <point x="197.75" y="346.25"/>
      <point x="197.75" y="228.25" type="curve" smooth="yes"/>
      <point x="197.75" y="73.875"/>
      <point x="277.25" y="-50.5"/>
      <point x="467.125" y="-50.5" type="curve" smooth="yes"/>
      <point x="654.0" y="-50.5"/>
      <point x="761.375" y="19.75"/>
    </contour>
  </outline>
</glyph>
<glyph name="u" format="2">
  <advance width="1178.0"/>
  <unicode hex="0075"/>
  <anchor x="438.198125" y="0.0" name="bottom"/>
  <anchor x="692.25" y="0.0" name="ogonek"/>
  <anchor x="722.301875" y="1063.0" name="top"/>
  <anchor x="1126.625" y="906.75" name="topright"/>
  <outline>
    <contour>
      <point x="839.125" y="971.125" type="curve"/>
      <point x="836.875" y="883.5"/>
      <point x="817.875" y="779.625"/>
      <point x="785.75" y="664.5" type="curve" smooth="yes"/>
      <point x="728.125" y="457.625"/>
      <point x="645.25" y="269.625"/>
      <point x="525.375" y="269.625" type="curve" smooth="yes"/>
      <point x="458.5" y="269.625"/>
      <point x="431.25" y="322.5"/>
      <point x="431.25" y="411.25" type="curve" smooth="yes"/>
      <point x="431.25" y="559.75"/>
      <point x="506.375" y="806.0"/>
      <point x="577.625" y="1001.125" type="curve"/>
      <point x="537.5" y="1013.875"/>
      <point x="455.375" y="1022.125"/>
      <point x="380.125" y="1022.5" type="curve" smooth="yes"/>
      <point x="327.75" y="1022.875"/>
      <point x="255.75" y="1019.625"/>
      <point x="214.875" y="1016.25" type="curve"/>
      <point x="135.25" y="780.0"/>
      <point x="65.5" y="533.5"/>
      <point x="65.5" y="337.25" type="curve" smooth="yes"/>
      <point x="65.5" y="95.375"/>
      <point x="167.625" y="-61.125"/>
      <point x="445.25" y="-61.125" type="curve" smooth="yes"/>
      <point x="833.5" y="-61.125"/>
      <point x="1033.75" y="272.25"/>
      <point x="1142.375" y="678.125" type="curve" smooth="yes"/>
      <point x="1168.5" y="777.0"/>
      <point x="1187.125" y="878.875"/>
      <point x="1199.375" y="979.25" type="curve"/>
      <point x="1158.375" y="986.375"/>
      <point x="1083.875" y="991.625"/>
      <point x="1028.625" y="991.625" type="curve" smooth="yes"/>
      <point x="961.875" y="991.625"/>
      <point x="880.125" y="983.5"/>
    </contour>
  </outline>
</glyph>
<glyph name="v" format="2">
  <advance width="1007.0"/>
  <unicode hex="0076"/>
  <anchor x="361.585" y="0.0" name="bottom"/>
  <anchor x="646.415" y="1063.0" name="top"/>
  <outline>
    <contour>
      <point x="800.0" y="1091.0" type="curve"/>
      <point x="677.875" y="791.75"/>
      <point x="576.875" y="608.875"/>
      <point x="480.25" y="436.0" type="curve"/>
      <point x="467.75" y="553.0"/>
      <point x="451.25" y="899.75"/>
      <point x="451.25" y="1092.0" type="curve"/>
      <point x="369.375" y="1069.5"/>
      <point x="178.25" y="1024.875"/>
      <point x="137.0" y="1019.0" type="curve"/>
      <point x="149.75" y="681.75"/>
      <point x="184.0" y="310.25"/>
      <point x="243.0" y="27.625" type="curve"/>
      <point x="279.125" y="23.0"/>
      <point x="333.375" y="17.625"/>
      <point x="389.5" y="17.625" type="curve" smooth="yes"/>
      <point x="442.625" y="17.625"/>
      <point x="496.625" y="21.25"/>
      <point x="536.375" y="27.625" type="curve"/>
      <point x="742.25" y="322.0"/>
      <point x="972.875" y="730.5"/>
      <point x="1107.625" y="1012.125" type="curve"/>
      <point x="1088.5" y="1018.875"/>
      <point x="950.875" y="1063.625"/>
    </contour>
  </outline>
</glyph>
<glyph name="w" format="2">
  <advance width="1520.0"/>
  <unicode hex="0077"/>
  <anchor x="617.585" y="0.0" name="bottom"/>
  <anchor x="902.415" y="1063.0" name="top"/>
  <outline>
    <contour>
      <point x="323.5" y="7.0" type="curve" smooth="yes"/>
      <point x="484.375" y="7.0"/>
      <point x="600.875" y="107.25"/>
      <point x="668.25" y="208.5" type="curve"/>
      <point x="692.5" y="87.0"/>
      <point x="759.75" y="14.875"/>
      <point x="906.125" y="14.875" type="curve" smooth="yes"/>
      <point x="1216.125" y="14.875"/>
      <point x="1390.25" y="276.375"/>
      <point x="1507.0" y="706.0" type="curve" smooth="yes"/>
      <point x="1528.375" y="784.625"/>
      <point x="1563.375" y="948.25"/>
      <point x="1579.875" y="1033.75" type="curve"/>
      <point x="1544.625" y="1036.625"/>
      <point x="1466.625" y="1041.125"/>
      <point x="1419.25" y="1041.125" type="curve" smooth="yes"/>
      <point x="1369.75" y="1041.125"/>
      <point x="1321.125" y="1041.125"/>
      <point x="1271.375" y="1041.0" type="curve"/>
      <point x="1245.0" y="933.0"/>
      <point x="1218.0" y="825.0"/>
      <point x="1193.875" y="735.125" type="curve" smooth="yes"/>
      <point x="1125.75" y="481.125"/>
      <point x="1044.625" y="298.375"/>
      <point x="947.375" y="298.375" type="curve" smooth="yes"/>
      <point x="904.625" y="298.375"/>
      <point x="886.75" y="331.75"/>
      <point x="886.75" y="394.75" type="curve" smooth="yes"/>
      <point x="886.75" y="484.0"/>
      <point x="912.75" y="585.125"/>
      <point x="1030.5" y="1036.0" type="curve"/>
      <point x="958.5" y="1039.0"/>
      <point x="799.375" y="1040.875"/>
      <point x="735.25" y="1040.875" type="curve"/>
      <point x="710.25" y="933.5"/>
      <point x="680.5" y="817.375"/>
      <point x="654.375" y="719.5" type="curve" smooth="yes"/>
      <point x="596.375" y="504.625"/>
      <point x="514.125" y="337.875"/>
      <point x="429.875" y="337.875" type="curve" smooth="yes"/>
      <point x="391.875" y="337.875"/>
      <point x="375.25" y="367.75"/>
      <point x="375.25" y="421.0" type="curve" smooth="yes"/>
      <point x="375.25" y="539.25"/>
      <point x="470.0" y="823.75"/>
      <point x="546.625" y="1045.5" type="curve"/>
      <point x="449.75" y="1052.75"/>
      <point x="322.75" y="1059.75"/>
      <point x="227.625" y="1059.75" type="curve"/>
      <point x="132.75" y="802.625"/>
      <point x="41.75" y="535.5"/>
      <point x="41.75" y="327.5" type="curve" smooth="yes"/>
      <point x="41.75" y="138.625"/>
      <point x="116.625" y="7.0"/>
    </contour>
  </outline>
</glyph>
<glyph name="x" format="2">
  <advance width="1142.0"/>
  <unicode hex="0078"/>
  <anchor x="428.585" y="0.0" name="bottom"/>
  <anchor x="713.415" y="1063.0" name="top"/>
  <outline>
    <contour>
      <point x="136.5" y="-31.5" type="curve"/>
      <point x="228.75" y="36.125"/>
      <point x="356.375" y="147.875"/>
      <point x="539.0" y="322.875" type="curve"/>
      <point x="602.125" y="217.5"/>
      <point x="646.875" y="98.75"/>
      <point x="687.875" y="-20.25" type="curve"/>
      <point x="780.375" y="20.375"/>
      <point x="913.625" y="85.25"/>
      <point x="998.875" y="146.0" type="curve"/>
      <point x="927.0" y="312.5"/>
      <point x="871.375" y="439.375"/>
      <point x="801.25" y="567.125" type="curve"/>
      <point x="951.375" y="693.0"/>
      <point x="1153.5" y="898.25"/>
      <point x="1250.375" y="1010.625" type="curve"/>
      <point x="1191.125" y="1054.75"/>
      <point x="1063.25" y="1119.875"/>
      <point x="979.75" y="1162.5" type="curve"/>
      <point x="864.75" y="1014.875"/>
      <point x="761.75" y="899.75"/>
      <point x="654.625" y="789.375" type="curve"/>
      <point x="623.375" y="879.125"/>
      <point x="500.375" y="1098.0"/>
      <point x="453.875" y="1165.625" type="curve"/>
      <point x="385.375" y="1133.75"/>
      <point x="184.25" y="1004.375"/>
      <point x="156.25" y="976.5" type="curve"/>
      <point x="206.5" y="903.75"/>
      <point x="294.5" y="776.125"/>
      <point x="418.25" y="574.375" type="curve"/>
      <point x="273.75" y="452.0"/>
      <point x="16.75" y="243.75"/>
      <point x="-49.75" y="192.75" type="curve"/>
      <point x="-14.375" y="126.875"/>
      <point x="93.625" y="11.875"/>
    </contour>
  </outline>
</glyph>
<glyph name="y" format="2">
  <advance width="1079.0"/>
  <unicode hex="0079"/>
  <anchor x="397.585" y="0.0" name="bottom"/>
  <anchor x="682.415" y="1063.0" name="top"/>
  <outline>
    <contour>
      <point x="221.25" y="-526.375" type="curve" smooth="yes"/>
      <point x="562.125" y="-526.375"/>
      <point x="754.75" y="-297.125"/>
      <point x="866.875" y="56.0" type="curve" smooth="yes"/>
      <point x="934.0" y="266.75"/>
      <point x="997.5" y="480.25"/>
      <point x="1046.25" y="661.875" type="curve" smooth="yes"/>
      <point x="1073.5" y="764.25"/>
      <point x="1096.875" y="857.75"/>
      <point x="1115.375" y="939.375" type="curve"/>
      <point x="1048.875" y="954.625"/>
      <point x="984.75" y="961.75"/>
      <point x="915.375" y="961.75" type="curve" smooth="yes"/>
      <point x="882.0" y="961.75"/>
      <point x="847.75" y="959.875"/>
      <point x="812.25" y="957.0" type="curve"/>
      <point x="809.0" y="934.375"/>
      <point x="789.625" y="855.375"/>
      <point x="763.125" y="764.5" type="curve" smooth="yes"/>
      <point x="696.375" y="527.25"/>
      <point x="604.75" y="357.5"/>
      <point x="471.625" y="357.5" type="curve" smooth="yes"/>
      <point x="414.875" y="357.5"/>
      <point x="394.0" y="403.75"/>
      <point x="394.0" y="470.875" type="curve" smooth="yes"/>
      <point x="394.0" y="598.75"/>
      <point x="476.625" y="839.75"/>
      <point x="531.375" y="961.25" type="curve"/>
      <point x="504.5" y="967.625"/>
      <point x="412.875" y="972.875"/>
      <point x="329.75" y="972.875" type="curve" smooth="yes"/>
      <point x="271.25" y="972.875"/>
      <point x="217.5" y="970.125"/>
      <point x="190.625" y="964.625" type="curve"/>
      <point x="116.125" y="732.25"/>
      <point x="50.125" y="514.625"/>
      <point x="50.125" y="342.875" type="curve" smooth="yes"/>
      <point x="50.125" y="158.25"/>
      <point x="126.125" y="36.875"/>
      <point x="335.5" y="36.875" type="curve" smooth="yes"/>
      <point x="451.625" y="36.875"/>
      <point x="567.125" y="90.75"/>
      <point x="618.0" y="175.375" type="curve"/>
      <point x="565.625" y="-2.0"/>
      <point x="457.125" y="-213.0"/>
      <point x="279.75" y="-213.0" type="curve" smooth="yes"/>
      <point x="146.0" y="-213.0"/>
      <point x="19.625" y="-139.125"/>
      <point x="-41.0" y="-91.25" type="curve"/>
      <point x="-93.625" y="-143.625"/>
      <point x="-221.75" y="-305.375"/>
      <point x="-266.625" y="-377.875" type="curve"/>
      <point x="-175.75" y="-450.875"/>
      <point x="12.0" y="-526.375"/>
    </contour>
  </outline>
</glyph>
<glyph name="z" format="2">
  <advance width="1074.0"/>
  <unicode hex="007A"/>
  <anchor x="372.5" y="0.0" name="bottom"/>
  <anchor x="514.5" y="532.0" name="center"/>
  <anchor x="656.5" y="1063.0" name="top"/>
  <outline>
    <contour>
      <point x="853.125" y="2.625" type="curve"/>
      <point x="870.125" y="40.375"/>
      <point x="940.125" y="277.125"/>
      <point x="947.75" y="305.25" type="curve"/>
      <point x="867.5" y="297.0"/>
      <point x="727.25" y="286.75"/>
      <point x="610.75" y="286.75" type="curve" smooth="yes"/>
      <point x="562.75" y="286.75"/>
      <point x="476.875" y="287.375"/>
      <point x="449.25" y="289.375" type="curve"/>
      <point x="539.625" y="376.875"/>
      <point x="877.25" y="675.875"/>
      <point x="1061.625" y="810.375" type="curve"/>
      <point x="1072.5" y="848.75"/>
      <point x="1115.5" y="1023.75"/>
      <point x="1115.5" y="1043.875" type="curve"/>
      <point x="1010.875" y="1044.625"/>
      <point x="844.375" y="1044.875"/>
      <point x="704.0" y="1044.875" type="curve" smooth="yes"/>
      <point x="565.375" y="1044.875"/>
      <point x="333.625" y="1051.75"/>
      <point x="241.625" y="1055.5" type="curve"/>
      <point x="155.375" y="786.5" type="line"/>
      <point x="164.625" y="786.375"/>
      <point x="215.25" y="787.375"/>
      <point x="266.875" y="787.375" type="curve" smooth="yes"/>
      <point x="373.5" y="787.375"/>
      <point x="573.875" y="790.625"/>
      <point x="626.625" y="793.375" type="curve"/>
      <point x="414.5" y="634.125"/>
      <point x="113.625" y="371.0"/>
      <point x="6.75" y="261.0" type="curve"/>
      <point x="-74.625" y="12.0" type="line"/>
      <point x="37.75" y="-4.25"/>
      <point x="218.875" y="-10.0"/>
      <point x="397.375" y="-10.0" type="curve" smooth="yes"/>
      <point x="573.375" y="-10.0"/>
      <point x="748.25" y="-4.125"/>
    </contour>
  </outline>
</glyph>
<glyph name="braceleft" format="2">
  <advance width="665.0"/>
  <unicode hex="007B"/>
  <outline>
    <contour>
      <point x="252.0" y="-451.375" type="curve"/>
      <point x="318.25" y="-377.25"/>
      <point x="381.25" y="-299.875"/>
      <point x="444.75" y="-212.25" type="curve"/>
      <point x="368.25" y="-195.125"/>
      <point x="332.0" y="-141.625"/>
      <point x="332.0" y="-66.375" type="curve" smooth="yes"/>
      <point x="332.0" y="7.875"/>
      <point x="365.5" y="82.875"/>
      <point x="400.875" y="158.5" type="curve" smooth="yes"/>
      <point x="436.0" y="232.75"/>
      <point x="468.125" y="308.375"/>
      <point x="468.125" y="383.0" type="curve" smooth="yes"/>
      <point x="468.125" y="518.0"/>
      <point x="345.375" y="569.75"/>
      <point x="191.875" y="578.375" type="curve"/>
      <point x="185.0" y="555.125" type="line"/>
      <point x="361.5" y="558.625"/>
      <point x="523.125" y="684.5"/>
      <point x="567.875" y="852.625" type="curve" smooth="yes"/>
      <point x="583.375" y="909.0"/>
      <point x="586.125" y="948.625"/>
      <point x="586.125" y="988.0" type="curve" smooth="yes"/>
      <point x="586.125" y="1025.125"/>
      <point x="589.75" y="1062.875"/>
      <point x="602.875" y="1113.25" type="curve" smooth="yes"/>
      <point x="632.375" y="1224.0"/>
      <point x="716.125" y="1321.125"/>
      <point x="835.625" y="1350.0" type="curve"/>
      <point x="835.75" y="1420.875"/>
      <point x="829.625" y="1555.875"/>
      <point x="793.875" y="1597.75" type="curve"/>
      <point x="523.625" y="1576.625"/>
      <point x="342.375" y="1397.125"/>
      <point x="291.375" y="1187.75" type="curve" smooth="yes"/>
      <point x="281.625" y="1147.25"/>
      <point x="276.875" y="1117.25"/>
      <point x="275.125" y="1080.375" type="curve" smooth="yes"/>
      <point x="273.375" y="1046.375"/>
      <point x="272.875" y="1007.875"/>
      <point x="271.125" y="951.375" type="curve" smooth="yes"/>
      <point x="266.875" y="807.625"/>
      <point x="211.25" y="709.125"/>
      <point x="68.125" y="689.625" type="curve"/>
      <point x="54.375" y="659.875"/>
      <point x="36.5" y="605.25"/>
      <point x="24.75" y="560.0" type="curve" smooth="yes"/>
      <point x="12.125" y="512.0"/>
      <point x="0.5" y="455.125"/>
      <point x="0.5" y="427.375" type="curve"/>
      <point x="93.0" y="409.625"/>
      <point x="144.875" y="361.125"/>
      <point x="144.875" y="296.25" type="curve" smooth="yes"/>
      <point x="144.875" y="205.75"/>
      <point x="110.5" y="138.5"/>
      <point x="75.875" y="70.75" type="curve" smooth="yes"/>
      <point x="41.5" y="2.75"/>
      <point x="6.75" y="-67.0"/>
      <point x="6.75" y="-162.875" type="curve" smooth="yes"/>
      <point x="6.75" y="-318.0"/>
      <point x="87.0" y="-428.0"/>
    </contour>
  </outline>
</glyph>
<glyph name="bar" format="2">
  <advance width="487.0"/>
  <unicode hex="007C"/>
  <outline>
    <contour>
      <point x="110.25" y="-554.75" type="curve"/>
      <point x="186.625" y="-385.625"/>
      <point x="283.375" y="-66.125"/>
      <point x="378.25" y="285.75" type="curve" smooth="yes"/>
      <point x="495.25" y="720.25"/>
      <point x="613.125" y="1223.5"/>
      <point x="676.375" y="1538.75" type="curve"/>
      <point x="587.75" y="1538.75"/>
      <point x="413.5" y="1530.75"/>
      <point x="361.875" y="1527.75" type="curve"/>
      <point x="222.0" y="1059.875"/>
      <point x="104.875" y="641.625"/>
      <point x="11.375" y="293.5" type="curve" smooth="yes"/>
      <point x="-83.5" y="-58.875"/>
      <point x="-153.0" y="-340.75"/>
      <point x="-199.5" y="-533.125" type="curve"/>
      <point x="-106.125" y="-552.625"/>
      <point x="20.375" y="-554.75"/>
    </contour>
  </outline>
</glyph>
<glyph name="braceright" format="2">
  <advance width="614.0"/>
  <unicode hex="007D"/>
  <outline>
    <contour>
      <point x="-85.25" y="-465.75" type="curve"/>
      <point x="145.625" y="-426.125"/>
      <point x="376.5" y="-232.125"/>
      <point x="382.625" y="2.25" type="curve" smooth="yes"/>
      <point x="384.75" y="24.875"/>
      <point x="385.125" y="59.75"/>
      <point x="383.375" y="95.375" type="curve" smooth="yes"/>
      <point x="381.625" y="131.75"/>
      <point x="382.125" y="167.875"/>
      <point x="384.0" y="190.625" type="curve" smooth="yes"/>
      <point x="388.625" y="344.0"/>
      <point x="439.25" y="438.875"/>
      <point x="579.25" y="461.125" type="curve"/>
      <point x="602.625" y="489.125"/>
      <point x="622.75" y="546.5"/>
      <point x="634.625" y="589.625" type="curve" smooth="yes"/>
      <point x="644.875" y="626.0"/>
      <point x="647.5" y="674.375"/>
      <point x="647.5" y="725.125" type="curve"/>
      <point x="575.875" y="727.625"/>
      <point x="510.0" y="755.625"/>
      <point x="510.0" y="838.625" type="curve" smooth="yes"/>
      <point x="510.0" y="918.875"/>
      <point x="543.125" y="985.125"/>
      <point x="579.375" y="1054.125" type="curve" smooth="yes"/>
      <point x="619.125" y="1130.125"/>
      <point x="659.5" y="1208.25"/>
      <point x="659.5" y="1312.375" type="curve" smooth="yes"/>
      <point x="659.5" y="1458.375"/>
      <point x="579.875" y="1592.375"/>
      <point x="438.125" y="1626.625" type="curve"/>
      <point x="368.875" y="1566.25"/>
      <point x="266.875" y="1467.25"/>
      <point x="203.5" y="1390.375" type="curve"/>
      <point x="291.625" y="1364.625"/>
      <point x="329.125" y="1307.75"/>
      <point x="329.125" y="1228.375" type="curve" smooth="yes"/>
      <point x="329.125" y="1149.375"/>
      <point x="297.125" y="1080.125"/>
      <point x="264.5" y="1011.5" type="curve" smooth="yes"/>
      <point x="232.25" y="942.75"/>
      <point x="200.375" y="874.625"/>
      <point x="200.375" y="797.0" type="curve" smooth="yes"/>
      <point x="200.375" y="644.125"/>
      <point x="335.375" y="557.625"/>
      <point x="471.75" y="556.125" type="curve"/>
      <point x="486.25" y="598.0" type="line"/>
      <point x="290.875" y="597.375"/>
      <point x="93.875" y="437.625"/>
      <point x="88.0" y="232.0" type="curve" smooth="yes"/>
      <point x="86.0" y="199.0"/>
      <point x="88.25" y="169.25"/>
      <point x="90.875" y="139.5" type="curve" smooth="yes"/>
      <point x="93.5" y="108.375"/>
      <point x="95.0" y="78.125"/>
      <point x="93.125" y="45.875" type="curve" smooth="yes"/>
      <point x="87.75" y="-93.25"/>
      <point x="20.5" y="-152.875"/>
      <point x="-129.375" y="-216.375" type="curve"/>
      <point x="-129.375" y="-327.0"/>
      <point x="-106.25" y="-428.125"/>
    </contour>
  </outline>
</glyph>
<glyph name="asciitilde" format="2">
  <advance width="1115.0"/>
  <unicode hex="007E"/>
  <outline>
    <contour>
      <point x="206.125" y="755.25" type="curve"/>
      <point x="369.375" y="616.375" type="line"/>
      <point x="385.5" y="651.625"/>
      <point x="428.0" y="732.25"/>
      <point x="505.625" y="732.25" type="curve" smooth="yes"/>
      <point x="543.125" y="732.25"/>
      <point x="581.25" y="705.0"/>
      <point x="621.5" y="672.875" type="curve" smooth="yes"/>
      <point x="670.0" y="634.0"/>
      <point x="726.375" y="591.625"/>
      <point x="794.625" y="591.625" type="curve" smooth="yes"/>
      <point x="957.0" y="591.625"/>
      <point x="1047.625" y="747.0"/>
      <point x="1060.25" y="811.375" type="curve"/>
      <point x="892.25" y="918.25" type="line"/>
      <point x="874.75" y="864.875"/>
      <point x="836.375" y="809.875"/>
      <point x="777.875" y="809.875" type="curve" smooth="yes"/>
      <point x="732.75" y="809.875"/>
      <point x="697.375" y="837.875"/>
      <point x="660.375" y="869.625" type="curve" smooth="yes"/>
      <point x="616.0" y="907.125"/>
      <point x="565.0" y="946.25"/>
      <point x="488.5" y="946.25" type="curve" smooth="yes"/>
      <point x="354.75" y="946.25"/>
      <point x="239.25" y="849.5"/>
    </contour>
  </outline>
</glyph>
<glyph name="exclamdown" format="2">
  <advance width="708.0"/>
  <unicode hex="00A1"/>
  <outline>
    <contour>
      <point x="251.125" y="613.0" type="curve"/>
      <point x="175.0" y="368.0"/>
      <point x="-47.25" y="-266.875"/>
      <point x="-94.625" y="-389.625" type="curve"/>
      <point x="316.75" y="-406.875" type="line"/>
      <point x="406.125" y="-85.75"/>
      <point x="490.25" y="282.75"/>
      <point x="550.875" y="597.625" type="curve"/>
      <point x="478.375" y="606.625"/>
      <point x="318.25" y="613.0"/>
    </contour>
    <contour>
      <point x="499.625" y="1093.0" type="curve" smooth="yes"/>
      <point x="363.125" y="1093.0"/>
      <point x="231.25" y="990.0"/>
      <point x="231.25" y="857.5" type="curve" smooth="yes"/>
      <point x="231.25" y="759.0"/>
      <point x="309.5" y="680.5"/>
      <point x="421.5" y="680.5" type="curve" smooth="yes"/>
      <point x="567.75" y="680.5"/>
      <point x="692.625" y="786.625"/>
      <point x="692.625" y="927.625" type="curve" smooth="yes"/>
      <point x="692.625" y="1021.5"/>
      <point x="617.5" y="1093.0"/>
    </contour>
  </outline>
</glyph>
<glyph name="cent" format="2">
  <advance width="1026.0"/>
  <unicode hex="00A2"/>
  <anchor x="400.375" y="104.625" name="bottom"/>
  <anchor x="651.988125" y="1167.625" name="top"/>
  <outline>
    <contour>
      <point x="747.75" y="1310.0" type="curve"/>
      <point x="625.25" y="986.375"/>
      <point x="352.625" y="373.125"/>
      <point x="165.25" y="26.375" type="curve"/>
      <point x="208.375" y="1.625"/>
      <point x="272.5" y="-12.125"/>
      <point x="339.625" y="-13.0" type="curve"/>
      <point x="469.625" y="211.875"/>
      <point x="720.875" y="773.5"/>
      <point x="898.75" y="1287.875" type="curve"/>
      <point x="880.75" y="1299.0"/>
      <point x="799.0" y="1310.0"/>
    </contour>
    <component base="c" xOffset="-2.125" yOffset="104.625"/>
  </outline>
</glyph>
<glyph name="sterling" format="2">
  <advance width="1140.0"/>
  <unicode hex="00A3"/>
  <outline>
    <contour>
      <point x="186.0" y="501.875" type="curve" smooth="yes"/>
      <point x="365.25" y="501.875"/>
      <point x="719.875" y="519.125"/>
      <point x="814.0" y="545.125" type="curve"/>
      <point x="824.75" y="585.0"/>
      <point x="862.875" y="748.0"/>
      <point x="868.125" y="780.0" type="curve"/>
      <point x="777.0" y="761.75"/>
      <point x="453.375" y="748.5"/>
      <point x="272.5" y="748.5" type="curve" smooth="yes"/>
      <point x="214.375" y="748.5"/>
      <point x="165.125" y="749.5"/>
      <point x="131.5" y="752.375" type="curve"/>
      <point x="57.125" y="507.875" type="line"/>
      <point x="80.0" y="503.875"/>
      <point x="127.25" y="501.875"/>
    </contour>
    <component base="sterlira"/>
  </outline>
</glyph>
<glyph name="currency" format="2">
  <advance width="974.0"/>
  <unicode hex="00A4"/>
  <outline>
    <contour>
      <point x="62.125" y="41.25" type="curve"/>
      <point x="125.25" y="94.875"/>
      <point x="326.875" y="288.0"/>
      <point x="379.875" y="331.875" type="curve"/>
      <point x="222.375" y="458.625" type="line"/>
      <point x="133.875" y="392.125"/>
      <point x="-1.625" y="285.625"/>
      <point x="-85.25" y="217.375" type="curve"/>
      <point x="-70.625" y="194.875"/>
      <point x="49.125" y="62.5"/>
    </contour>
    <contour>
      <point x="666.875" y="57.125" type="curve"/>
      <point x="711.0" y="87.625"/>
      <point x="856.375" y="211.75"/>
      <point x="891.625" y="242.0" type="curve"/>
      <point x="852.5" y="285.625"/>
      <point x="780.875" y="393.25"/>
      <point x="728.75" y="454.875" type="curve"/>
      <point x="516.0" y="309.0" type="line"/>
      <point x="545.625" y="278.375"/>
      <point x="620.125" y="123.875"/>
    </contour>
    <contour>
      <point x="255.5" y="644.5" type="curve"/>
      <point x="459.0" y="813.0" type="line"/>
      <point x="426.125" y="884.75"/>
      <point x="352.75" y="1000.875"/>
      <point x="309.0" y="1050.625" type="curve"/>
      <point x="263.875" y="1022.625"/>
      <point x="108.0" y="902.375"/>
      <point x="82.0" y="872.75" type="curve"/>
      <point x="128.125" y="807.125"/>
      <point x="200.0" y="708.0"/>
    </contour>
    <contour>
      <point x="772.625" y="645.625" type="line"/>
      <point x="867.375" y="715.125"/>
      <point x="955.125" y="800.125"/>
      <point x="1048.75" y="874.5" type="curve"/>
      <point x="1035.375" y="896.625"/>
      <point x="940.375" y="1032.625"/>
      <point x="925.75" y="1053.125" type="curve"/>
      <point x="832.125" y="975.0"/>
      <point x="718.5" y="877.875"/>
      <point x="641.75" y="808.625" type="curve"/>
    </contour>
    <component base="degree" xOffset="-126.0" yOffset="-656.0"/>
  </outline>
</glyph>
<glyph name="yen" format="2">
  <advance width="1065.0"/>
  <unicode hex="00A5"/>
  <anchor x="409.25" y="0.0" name="bottom"/>
  <anchor x="755.25" y="1291.0" name="top"/>
  <anchor x="242.25" y="1291.0" name="topleft"/>
  <outline>
    <contour>
      <point x="125.375" y="504.0" type="curve"/>
      <point x="218.5" y="506.125"/>
      <point x="891.375" y="515.125"/>
      <point x="985.375" y="515.125" type="curve"/>
      <point x="1001.625" y="576.5"/>
      <point x="1014.125" y="664.625"/>
      <point x="1022.875" y="738.375" type="curve"/>
      <point x="937.125" y="748.375"/>
      <point x="807.75" y="753.25"/>
      <point x="663.625" y="753.25" type="curve" smooth="yes"/>
      <point x="509.375" y="753.25"/>
      <point x="354.375" y="748.25"/>
      <point x="211.0" y="737.375" type="curve"/>
      <point x="195.75" y="703.75"/>
      <point x="148.0" y="589.25"/>
    </contour>
    <contour>
      <point x="907.0" y="204.5" type="curve"/>
      <point x="928.75" y="283.0"/>
      <point x="941.0" y="386.75"/>
      <point x="942.0" y="420.25" type="curve"/>
      <point x="844.625" y="428.375"/>
      <point x="700.25" y="433.75"/>
      <point x="554.875" y="433.75" type="curve" smooth="yes"/>
      <point x="382.125" y="433.75"/>
      <point x="218.375" y="427.375"/>
      <point x="111.125" y="419.125" type="curve"/>
      <point x="81.625" y="352.125"/>
      <point x="55.625" y="290.375"/>
      <point x="35.875" y="216.75" type="curve"/>
      <point x="130.0" y="217.0"/>
      <point x="793.25" y="207.125"/>
    </contour>
    <component base="Y" xOffset="-1.75"/>
  </outline>
</glyph>
<glyph name="brokenbar" format="2">
  <advance width="432.0"/>
  <unicode hex="00A6"/>
  <outline>
    <contour>
      <point x="-8.375" y="281.625" type="curve"/>
      <point x="-47.5" y="137.25"/>
      <point x="-131.875" y="-277.375"/>
      <point x="-155.625" y="-427.875" type="curve"/>
      <point x="-80.25" y="-427.875"/>
      <point x="78.5" y="-420.5"/>
      <point x="128.375" y="-401.875" type="curve"/>
      <point x="155.5" y="-272.125"/>
      <point x="279.25" y="206.0"/>
      <point x="302.25" y="293.0" type="curve"/>
      <point x="213.125" y="293.0"/>
      <point x="82.875" y="290.375"/>
    </contour>
    <contour>
      <point x="140.125" y="800.625" type="curve"/>
      <point x="163.125" y="797.125"/>
      <point x="313.0" y="787.0"/>
      <point x="444.375" y="787.375" type="curve"/>
      <point x="473.75" y="908.0"/>
      <point x="587.5" y="1333.0"/>
      <point x="625.875" y="1472.25" type="curve"/>
      <point x="582.25" y="1498.125"/>
      <point x="430.5" y="1502.0"/>
      <point x="351.75" y="1502.0" type="curve"/>
      <point x="316.375" y="1393.5"/>
      <point x="204.125" y="1040.0"/>
    </contour>
  </outline>
</glyph>
<glyph name="section" format="2">
  <advance width="1000.0"/>
  <unicode hex="00A7"/>
  <outline>
    <contour>
      <point x="571.625" y="664.625" type="curve"/>
      <point x="369.125" y="803.25" type="line"/>
      <point x="205.875" y="743.0"/>
      <point x="86.375" y="655.375"/>
      <point x="86.375" y="478.5" type="curve" smooth="yes"/>
      <point x="86.375" y="332.75"/>
      <point x="189.0" y="241.375"/>
      <point x="311.625" y="187.25" type="curve" smooth="yes"/>
      <point x="438.125" y="131.25"/>
      <point x="518.75" y="79.875"/>
      <point x="518.75" y="21.375" type="curve" smooth="yes"/>
      <point x="518.75" y="-45.5"/>
      <point x="443.875" y="-70.0"/>
      <point x="359.0" y="-70.0" type="curve" smooth="yes"/>
      <point x="262.25" y="-70.0"/>
      <point x="145.0" y="-5.75"/>
      <point x="51.75" y="65.0" type="curve"/>
      <point x="-7.5" y="20.25"/>
      <point x="-144.875" y="-140.875"/>
      <point x="-184.875" y="-193.75" type="curve"/>
      <point x="-146.125" y="-243.625"/>
      <point x="38.625" y="-357.25"/>
      <point x="305.0" y="-357.25" type="curve" smooth="yes"/>
      <point x="573.375" y="-357.25"/>
      <point x="827.25" y="-204.5"/>
      <point x="827.25" y="56.0" type="curve" smooth="yes"/>
      <point x="827.25" y="231.5"/>
      <point x="705.0" y="333.125"/>
      <point x="584.125" y="384.875" type="curve" smooth="yes"/>
      <point x="482.125" y="430.125"/>
      <point x="408.375" y="476.875"/>
      <point x="408.375" y="530.0" type="curve" smooth="yes"/>
      <point x="408.375" y="598.75"/>
      <point x="503.0" y="654.125"/>
    </contour>
    <contour>
      <point x="513.625" y="395.875" type="curve"/>
      <point x="621.5" y="194.125" type="line"/>
      <point x="815.5" y="257.125"/>
      <point x="979.25" y="371.625"/>
      <point x="979.25" y="574.375" type="curve" smooth="yes"/>
      <point x="979.25" y="744.625"/>
      <point x="844.0" y="849.5"/>
      <point x="724.375" y="902.0" type="curve" smooth="yes"/>
      <point x="622.125" y="948.375"/>
      <point x="553.375" y="984.75"/>
      <point x="553.375" y="1029.25" type="curve" smooth="yes"/>
      <point x="553.375" y="1086.125"/>
      <point x="637.5" y="1106.125"/>
      <point x="703.5" y="1106.125" type="curve" smooth="yes"/>
      <point x="782.25" y="1106.125"/>
      <point x="888.125" y="1060.5"/>
      <point x="929.25" y="1012.125" type="curve"/>
      <point x="1026.25" y="1096.25"/>
      <point x="1120.375" y="1232.0"/>
      <point x="1131.25" y="1249.75" type="curve"/>
      <point x="1039.375" y="1324.875"/>
      <point x="871.375" y="1364.375"/>
      <point x="732.75" y="1364.375" type="curve" smooth="yes"/>
      <point x="468.875" y="1364.375"/>
      <point x="251.625" y="1238.25"/>
      <point x="251.625" y="972.25" type="curve" smooth="yes"/>
      <point x="251.625" y="834.25"/>
      <point x="324.75" y="756.75"/>
      <point x="448.375" y="704.375" type="curve" smooth="yes"/>
      <point x="569.75" y="653.375"/>
      <point x="670.625" y="602.75"/>
      <point x="670.625" y="547.125" type="curve" smooth="yes"/>
      <point x="670.625" y="480.625"/>
      <point x="589.75" y="404.0"/>
    </contour>
  </outline>
</glyph>
<glyph name="copyright" format="2">
  <advance width="1745.0"/>
  <unicode hex="00A9"/>
  <outline>
    <contour>
      <point x="734.875" y="-68.0" type="curve" smooth="yes"/>
      <point x="1288.375" y="-68.0"/>
      <point x="1710.25" y="257.75"/>
      <point x="1710.25" y="799.375" type="curve" smooth="yes"/>
      <point x="1710.25" y="1165.5"/>
      <point x="1479.0" y="1350.0"/>
      <point x="1078.375" y="1350.0" type="curve" smooth="yes"/>
      <point x="503.0" y="1350.0"/>
      <point x="39.625" y="999.875"/>
      <point x="39.625" y="452.125" type="curve" smooth="yes"/>
      <point x="39.625" y="121.125"/>
      <point x="317.75" y="-68.0"/>
    </contour>
    <contour>
      <point x="769.875" y="198.625" type="curve" smooth="yes"/>
      <point x="535.625" y="198.625"/>
      <point x="411.125" y="326.125"/>
      <point x="411.125" y="522.25" type="curve" smooth="yes"/>
      <point x="411.125" y="860.75"/>
      <point x="687.25" y="1091.0"/>
      <point x="1027.0" y="1091.0" type="curve" smooth="yes"/>
      <point x="1274.25" y="1091.0"/>
      <point x="1384.0" y="975.875"/>
      <point x="1384.0" y="781.5" type="curve" smooth="yes"/>
      <point x="1384.0" y="408.0"/>
      <point x="1142.0" y="198.625"/>
    </contour>
    <contour>
      <point x="819.75" y="288.75" type="curve" smooth="yes"/>
      <point x="972.75" y="288.75"/>
      <point x="1124.0" y="362.75"/>
      <point x="1226.25" y="499.75" type="curve"/>
      <point x="1177.375" y="550.375"/>
      <point x="1115.375" y="602.625"/>
      <point x="1060.625" y="633.0" type="curve"/>
      <point x="995.625" y="563.0"/>
      <point x="931.25" y="538.625"/>
      <point x="880.75" y="538.625" type="curve" smooth="yes"/>
      <point x="822.875" y="538.625"/>
      <point x="784.375" y="563.375"/>
      <point x="784.375" y="615.0" type="curve" smooth="yes"/>
      <point x="784.375" y="695.125"/>
      <point x="862.0" y="767.75"/>
      <point x="950.375" y="767.75" type="curve" smooth="yes"/>
      <point x="998.125" y="767.75"/>
      <point x="1049.5" y="747.125"/>
      <point x="1062.5" y="721.75" type="curve"/>
      <point x="1110.625" y="754.125"/>
      <point x="1194.0" y="827.125"/>
      <point x="1272.125" y="905.75" type="curve"/>
      <point x="1236.125" y="964.75"/>
      <point x="1133.75" y="993.75"/>
      <point x="1021.625" y="993.75" type="curve" smooth="yes"/>
      <point x="756.625" y="993.75"/>
      <point x="533.125" y="801.125"/>
      <point x="533.125" y="541.25" type="curve" smooth="yes"/>
      <point x="533.125" y="382.75"/>
      <point x="635.0" y="288.75"/>
    </contour>
  </outline>
</glyph>
<glyph name="ordfeminine" format="2">
  <advance width="750.0"/>
  <unicode hex="00AA"/>
  <outline>
    <contour>
      <point x="534.125" y="728.75" type="curve"/>
      <point x="565.25" y="723.25"/>
      <point x="633.125" y="721.25"/>
      <point x="680.125" y="721.25" type="curve" smooth="yes"/>
      <point x="697.75" y="721.25"/>
      <point x="735.875" y="721.375"/>
      <point x="742.375" y="722.375" type="curve"/>
      <point x="797.75" y="848.125"/>
      <point x="869.375" y="1057.25"/>
      <point x="869.375" y="1191.625" type="curve" smooth="yes"/>
      <point x="869.375" y="1344.375"/>
      <point x="788.75" y="1430.875"/>
      <point x="589.25" y="1430.875" type="curve" smooth="yes"/>
      <point x="455.75" y="1430.875"/>
      <point x="345.75" y="1395.625"/>
      <point x="256.5" y="1341.75" type="curve"/>
      <point x="352.25" y="1182.125" type="line"/>
      <point x="388.125" y="1202.125"/>
      <point x="471.5" y="1224.625"/>
      <point x="536.875" y="1224.625" type="curve" smooth="yes"/>
      <point x="607.75" y="1224.625"/>
      <point x="656.375" y="1205.5"/>
      <point x="656.375" y="1150.875" type="curve" smooth="yes"/>
      <point x="656.375" y="1144.625"/>
      <point x="655.375" y="1138.25"/>
      <point x="654.125" y="1131.75" type="curve"/>
      <point x="644.625" y="1147.625"/>
      <point x="568.0" y="1160.625"/>
      <point x="518.75" y="1160.625" type="curve" smooth="yes"/>
      <point x="356.0" y="1160.625"/>
      <point x="156.5" y="1096.75"/>
      <point x="156.5" y="924.75" type="curve" smooth="yes"/>
      <point x="156.5" y="790.625"/>
      <point x="227.0" y="727.375"/>
      <point x="378.75" y="727.375" type="curve" smooth="yes"/>
      <point x="450.5" y="727.375"/>
      <point x="515.875" y="753.125"/>
      <point x="556.5" y="783.875" type="curve"/>
      <point x="549.875" y="764.375"/>
      <point x="537.625" y="735.25"/>
    </contour>
    <contour>
      <point x="490.625" y="912.125" type="curve" smooth="yes"/>
      <point x="440.125" y="912.125"/>
      <point x="414.0" y="922.0"/>
      <point x="414.0" y="947.0" type="curve" smooth="yes"/>
      <point x="414.0" y="992.5"/>
      <point x="475.0" y="1007.625"/>
      <point x="527.375" y="1007.625" type="curve" smooth="yes"/>
      <point x="563.75" y="1007.625"/>
      <point x="604.5" y="1001.625"/>
      <point x="616.5" y="995.5" type="curve"/>
      <point x="616.0" y="988.5"/>
      <point x="612.875" y="971.25"/>
      <point x="610.5" y="965.125" type="curve" smooth="yes"/>
      <point x="608.75" y="959.875"/>
      <point x="605.875" y="951.0"/>
      <point x="603.875" y="943.0" type="curve"/>
      <point x="577.375" y="926.875"/>
      <point x="536.5" y="912.125"/>
    </contour>
  </outline>
</glyph>
<glyph name="guillemetleft" format="2">
  <advance width="1214.0"/>
  <unicode hex="00AB"/>
  <outline>
    <contour>
      <point x="1254.25" y="1135.0" type="curve"/>
      <point x="1031.375" y="974.25"/>
      <point x="795.625" y="781.25"/>
      <point x="553.75" y="569.5" type="curve"/>
      <point x="978.125" y="127.625" type="line"/>
      <point x="982.75" y="129.0"/>
      <point x="1112.75" y="379.75"/>
      <point x="1120.125" y="447.75" type="curve"/>
      <point x="1081.0" y="488.25"/>
      <point x="970.625" y="558.875"/>
      <point x="898.875" y="600.625" type="curve"/>
      <point x="1329.875" y="922.125" type="line"/>
      <point x="1328.75" y="949.0"/>
      <point x="1320.875" y="1079.625"/>
    </contour>
    <contour>
      <point x="760.25" y="1120.875" type="curve"/>
      <point x="517.75" y="923.375"/>
      <point x="293.375" y="725.875"/>
      <point x="87.875" y="532.625" type="curve"/>
      <point x="216.125" y="334.375"/>
      <point x="382.75" y="154.25"/>
      <point x="555.0" y="0.0" type="curve"/>
      <point x="559.625" y="4.625"/>
      <point x="672.75" y="179.0"/>
      <point x="713.625" y="247.375" type="curve"/>
      <point x="690.375" y="260.125"/>
      <point x="539.375" y="431.125"/>
      <point x="431.0" y="556.25" type="curve"/>
      <point x="869.625" y="954.75" type="line"/>
      <point x="865.75" y="977.0"/>
      <point x="820.25" y="1062.25"/>
    </contour>
  </outline>
</glyph>
<glyph name="logicalnot" format="2">
  <advance width="1000.0"/>
  <unicode hex="00AC"/>
  <outline>
    <contour>
      <point x="1047.375" y="886.875" type="curve"/>
      <point x="869.5" y="886.875"/>
      <point x="271.125" y="864.25"/>
      <point x="119.375" y="849.75" type="curve"/>
      <point x="97.0" y="773.125"/>
      <point x="60.625" y="638.625"/>
      <point x="42.875" y="566.5" type="curve"/>
      <point x="152.75" y="570.0"/>
      <point x="505.375" y="588.125"/>
      <point x="688.375" y="601.5" type="curve"/>
      <point x="664.75" y="533.5"/>
      <point x="603.875" y="345.625"/>
      <point x="579.25" y="253.5" type="curve"/>
      <point x="620.125" y="250.0"/>
      <point x="798.375" y="250.125"/>
      <point x="848.625" y="250.75" type="curve"/>
      <point x="881.75" y="361.25"/>
      <point x="1022.25" y="807.5"/>
    </contour>
  </outline>
</glyph>
<glyph name="softhyphen" format="2">
  <advance width="800.625"/>
  <unicode hex="00AD"/>
  <outline>
    <contour>
      <point x="833.5" y="829.75" type="curve"/>
      <point x="752.125" y="842.25"/>
      <point x="649.0" y="846.625"/>
      <point x="518.5" y="846.625" type="curve" smooth="yes"/>
      <point x="401.875" y="846.625"/>
      <point x="249.625" y="834.625"/>
      <point x="125.125" y="817.75" type="curve"/>
      <point x="105.125" y="773.0"/>
      <point x="40.75" y="583.875"/>
      <point x="19.5" y="500.375" type="curve"/>
      <point x="189.125" y="512.25"/>
      <point x="677.5" y="528.875"/>
      <point x="768.375" y="528.875" type="curve"/>
      <point x="790.0" y="611.25"/>
      <point x="822.625" y="736.375"/>
    </contour>
  </outline>
</glyph>
<glyph name="registered" format="2">
  <advance width="1400.0"/>
  <unicode hex="00AE"/>
  <outline>
    <contour>
      <point x="658.25" y="265.5" type="curve" smooth="yes"/>
      <point x="1086.375" y="265.5"/>
      <point x="1420.375" y="500.125"/>
      <point x="1420.375" y="911.0" type="curve" smooth="yes"/>
      <point x="1420.375" y="1181.875"/>
      <point x="1216.75" y="1321.0"/>
      <point x="881.25" y="1321.0" type="curve" smooth="yes"/>
      <point x="461.5" y="1321.0"/>
      <point x="85.0" y="1078.375"/>
      <point x="85.0" y="665.25" type="curve" smooth="yes"/>
      <point x="85.0" y="351.25"/>
      <point x="367.875" y="265.5"/>
    </contour>
    <contour>
      <point x="675.5" y="469.25" type="curve" smooth="yes"/>
      <point x="529.0" y="469.25"/>
      <point x="361.875" y="487.5"/>
      <point x="361.875" y="674.625" type="curve" smooth="yes"/>
      <point x="361.875" y="937.125"/>
      <point x="578.875" y="1122.625"/>
      <point x="850.25" y="1122.625" type="curve" smooth="yes"/>
      <point x="1017.875" y="1122.625"/>
      <point x="1141.0" y="1071.625"/>
      <point x="1141.0" y="910.5" type="curve" smooth="yes"/>
      <point x="1141.0" y="648.125"/>
      <point x="947.375" y="469.25"/>
    </contour>
    <contour>
      <point x="678.25" y="549.375" type="curve"/>
      <point x="687.375" y="581.75"/>
      <point x="716.5" y="691.625"/>
      <point x="721.75" y="720.5" type="curve"/>
      <point x="726.875" y="721.25"/>
      <point x="736.625" y="722.125"/>
      <point x="741.875" y="722.125" type="curve"/>
      <point x="745.625" y="674.125"/>
      <point x="740.875" y="591.75"/>
      <point x="737.25" y="549.375" type="curve"/>
      <point x="812.0" y="549.375"/>
      <point x="884.25" y="558.25"/>
      <point x="928.625" y="580.0" type="curve"/>
      <point x="926.125" y="618.625"/>
      <point x="916.5" y="739.875"/>
      <point x="899.75" y="776.375" type="curve"/>
      <point x="962.875" y="796.75"/>
      <point x="1030.75" y="868.375"/>
      <point x="1030.75" y="933.125" type="curve" smooth="yes"/>
      <point x="1030.75" y="1017.25"/>
      <point x="926.125" y="1046.25"/>
      <point x="819.0" y="1046.25" type="curve" smooth="yes"/>
      <point x="742.875" y="1046.25"/>
      <point x="678.875" y="1034.125"/>
      <point x="613.75" y="1000.875" type="curve"/>
      <point x="581.75" y="922.0"/>
      <point x="511.5" y="687.75"/>
      <point x="482.625" y="578.875" type="curve"/>
      <point x="527.875" y="563.75"/>
      <point x="609.25" y="549.375"/>
    </contour>
    <contour>
      <point x="746.875" y="854.875" type="curve"/>
      <point x="751.0" y="870.25"/>
      <point x="758.625" y="906.625"/>
      <point x="759.875" y="917.5" type="curve"/>
      <point x="772.875" y="919.625"/>
      <point x="787.625" y="920.875"/>
      <point x="800.5" y="920.875" type="curve" smooth="yes"/>
      <point x="820.625" y="920.875"/>
      <point x="836.125" y="917.25"/>
      <point x="836.125" y="901.625" type="curve" smooth="yes"/>
      <point x="836.125" y="864.625"/>
      <point x="790.375" y="854.875"/>
    </contour>
  </outline>
</glyph>
<glyph name="degree" format="2">
  <advance width="814.0"/>
  <unicode hex="00B0"/>
  <outline>
    <contour>
      <point x="510.25" y="866.875" type="curve" smooth="yes"/>
      <point x="742.75" y="866.875"/>
      <point x="962.0" y="1057.375"/>
      <point x="962.0" y="1281.125" type="curve" smooth="yes"/>
      <point x="962.0" y="1431.75"/>
      <point x="830.5" y="1533.125"/>
      <point x="643.75" y="1533.125" type="curve" smooth="yes"/>
      <point x="414.25" y="1533.125"/>
      <point x="211.125" y="1361.5"/>
      <point x="211.125" y="1138.875" type="curve" smooth="yes"/>
      <point x="211.125" y="983.75"/>
      <point x="336.25" y="866.875"/>
    </contour>
    <contour>
      <point x="555.125" y="1111.625" type="curve" smooth="yes"/>
      <point x="511.0" y="1111.625"/>
      <point x="486.75" y="1137.625"/>
      <point x="486.75" y="1177.5" type="curve" smooth="yes"/>
      <point x="486.75" y="1242.5"/>
      <point x="540.875" y="1288.375"/>
      <point x="601.125" y="1288.375" type="curve" smooth="yes"/>
      <point x="656.625" y="1288.375"/>
      <point x="681.5" y="1262.0"/>
      <point x="681.5" y="1224.5" type="curve" smooth="yes"/>
      <point x="681.5" y="1162.375"/>
      <point x="617.875" y="1111.625"/>
    </contour>
  </outline>
</glyph>
<glyph name="twosuperior" format="2">
  <advance width="729.125"/>
  <unicode hex="00B2"/>
  <outline>
    <contour>
      <point x="719.5" y="762.0" type="curve"/>
      <point x="631.375" y="755.5"/>
      <point x="538.875" y="745.5"/>
      <point x="483.125" y="737.625" type="curve"/>
      <point x="519.25" y="754.5"/>
      <point x="580.375" y="798.875"/>
      <point x="643.75" y="856.375" type="curve" smooth="yes"/>
      <point x="740.0" y="943.0"/>
      <point x="813.875" y="1061.875"/>
      <point x="813.875" y="1160.5" type="curve" smooth="yes"/>
      <point x="813.875" y="1265.375"/>
      <point x="725.0" y="1327.625"/>
      <point x="595.25" y="1327.625" type="curve" smooth="yes"/>
      <point x="452.5" y="1327.625"/>
      <point x="299.25" y="1240.5"/>
      <point x="196.625" y="1127.625" type="curve"/>
      <point x="222.875" y="1091.0"/>
      <point x="299.375" y="1015.875"/>
      <point x="351.5" y="987.0" type="curve"/>
      <point x="379.5" y="1012.5"/>
      <point x="452.875" y="1059.75"/>
      <point x="500.75" y="1059.75" type="curve" smooth="yes"/>
      <point x="527.5" y="1059.75"/>
      <point x="540.5" y="1049.875"/>
      <point x="540.5" y="1032.375" type="curve" smooth="yes"/>
      <point x="540.5" y="981.75"/>
      <point x="428.125" y="912.0"/>
      <point x="331.625" y="853.25" type="curve" smooth="yes"/>
      <point x="220.25" y="788.75"/>
      <point x="147.125" y="745.75"/>
      <point x="105.375" y="721.5" type="curve"/>
      <point x="88.375" y="648.875"/>
      <point x="86.25" y="505.5"/>
      <point x="86.25" y="490.0" type="curve"/>
      <point x="663.375" y="516.0" type="line"/>
      <point x="672.0" y="544.75"/>
      <point x="717.375" y="717.875"/>
    </contour>
  </outline>
</glyph>
